{
.appVersion = "3108";
.formatVersion = 3;
customParameters = (
{
name = vendorID;
value = UNKN;
},
{
name = panose;
value = (
2,
0,
5,
4,
0,
0,
0,
2,
0,
4
);
},
{
name = unicodeRanges;
value = (
0,
1,
2,
31
);
},
{
name = fsType;
value = (
);
},
{
name = glyphOrder;
value = (
.notdef,
.null,
CR,
space,
exclam,
quotedbl,
numbersign,
dollar,
percent,
ampersand,
quotesingle,
parenleft,
parenright,
asterisk,
plus,
comma,
hyphen,
period,
slash,
zero,
one,
two,
three,
four,
five,
six,
seven,
eight,
nine,
colon,
semicolon,
less,
equal,
greater,
question,
at,
A,
B,
C,
D,
E,
F,
G,
H,
I,
J,
K,
L,
M,
N,
O,
P,
Q,
R,
S,
T,
U,
V,
W,
X,
Y,
Z,
bracketleft,
backslash,
bracketright,
asciicircum,
underscore,
grave,
a,
b,
c,
d,
e,
f,
g,
h,
i,
j,
k,
l,
m,
n,
o,
p,
q,
r,
s,
t,
u,
v,
w,
x,
y,
z,
braceleft,
bar,
braceright,
asciitilde,
Euro,
quotesinglbase,
florin,
quotedblbase,
ellipsis,
dagger,
daggerdbl,
circumflex,
perthousand,
Scaron,
guilsinglleft,
OE,
Zcaron,
quoteleft,
quoteright,
quotedblleft,
quotedblright,
bullet,
endash,
emdash,
tilde,
trademark,
scaron,
guilsinglright,
oe,
zcaron,
Ydieresis,
exclamdown,
cent,
sterling,
currency,
yen,
brokenbar,
section,
dieresis,
copyright,
ordfeminine,
guillemotleft,
logicalnot,
minus,
registered,
macron,
degree,
plusminus,
twosuperior,
threesuperior,
acute,
mu,
paragraph,
periodcentered,
cedilla,
onesuperior,
ordmasculine,
guillemotright,
onequarter,
onehalf,
threequarters,
questiondown,
Agrave,
Aacute,
Acircumflex,
Atilde,
Adieresis,
Aring,
AE,
Ccedilla,
Egrave,
Eacute,
Ecircumflex,
Edieresis,
Igrave,
Iacute,
Icircumflex,
Idieresis,
Eth,
Ntilde,
Ograve,
Oacute,
Ocircumflex,
Otilde,
Odieresis,
multiply,
Oslash,
Ugrave,
Uacute,
Ucircumflex,
Udieresis,
Yacute,
Thorn,
germandbls,
agrave,
aacute,
acircumflex,
atilde,
adieresis,
aring,
ae,
ccedilla,
egrave,
eacute,
ecircumflex,
edieresis,
igrave,
iacute,
icircumflex,
idieresis,
eth,
ntilde,
ograve,
oacute,
ocircumflex,
otilde,
odieresis,
divide,
oslash,
ugrave,
uacute,
ucircumflex,
udieresis,

glyphs = (
{
glyphname = exclam;
lastChange = "2022-06-09 09:49:02 +0000";
layers = (
{
layerId = m01;
shapes = (
{
closed = 1;
nodes = (
(250,625,l),
(250,250,l),
(125,250,l),
(125,625,l)
);
},
{
closed = 1;
nodes = (
(250,125,l),
(250,0,l),
(125,0,l),
(125,125,l)
);
}
);
width = 375;
},
{
layerId = "15C0796C-B0F3-4225-BD6B-773C46650136";
shapes = (
{
closed = 1;
nodes = (
(375,625,l),
(375,250,l),
(125,250,l),
(125,625,l)
);
},
{
closed = 1;
nodes = (
(375,125,l),
(375,0,l),
(125,0,l),
(125,125,l)
);
}
);
width = 500;
}
);
note = exclam;
unicode = 33;
},
{
glyphname = quotedbl;
lastChange = "2022-06-09 09:49:02 +0000";
layers = (
{
layerId = m01;
shapes = (
{
closed = 1;
nodes = (
(250,375,l),
(125,375,l),
(125,625,l),
(250,625,l)
);
},
{
closed = 1;
nodes = (
(500,625,l),
(500,375,l),
(375,375,l),
(375,625,l)
);
}
);
width = 625;
},
{
layerId = "15C0796C-B0F3-4225-BD6B-773C46650136";
shapes = (
{
closed = 1;
nodes = (
(625,625,l),
(625,375,l),
(125,375,l),
(125,625,l)
);
}
);
width = 750;
}
);
note = quotedbl;
unicode = 34;
},
{
glyphname = numbersign;
lastChange = "2022-06-09 09:49:02 +0000";
layers = (
{
layerId = m01;
shapes = (
{
closed = 1;
nodes = (
(250,250,l),
(250,375,l),
(125,375,l),
(125,500,l),
(250,500,l),
(250,625,l),
(375,625,l),
(375,500,l),
(500,500,l),
(500,625,l),
(625,625,l),
(625,500,l),
(750,500,l),
(750,375,l),
(625,375,l),
(625,250,l),
(750,250,l),
(750,125,l),
(625,125,l),
(625,0,l),
(500,0,l),
(500,125,l),
(375,125,l),
(375,0,l),
(250,0,l),
(250,125,l),
(125,125,l),
(125,250,l)
);
},
{
closed = 1;
nodes = (
(500,250,l),
(500,375,l),
(375,375,l),
(375,250,l)
);
}
);
width = 875;
},
{
layerId = "15C0796C-B0F3-4225-BD6B-773C46650136";
shapes = (
{
closed = 1;
nodes = (
(250,250,l),
(250,375,l),
(125,375,l),
(125,500,l),
(250,500,l),
(250,625,l),
(750,625,l),
(750,500,l),
(875,500,l),
(875,375,l),
(750,375,l),
(750,250,l),
(875,250,l),
(875,125,l),
(750,125,l),
(750,0,l),
(250,0,l),
(250,125,l),
(128,125,l),
(125,250,l)
);
}
);
width = 1000;
}
);
note = numbersign;
unicode = 35;
},
{
glyphname = dollar;
lastChange = "2022-06-09 09:49:02 +0000";
layers = (
{
layerId = m01;
shapes = (
{
closed = 1;
nodes = (
(500,125,l),
(500,250,l),
(250,250,l),
(250,375,l),
(125,375,l),
(125,500,l),
(250,500,l),
(250,375,l),
(500,375,l),
(500,250,l),
(625,250,l),
(625,125,l),
(500,125,l),
(500,0,l),
(375,0,l),
(375,-125,l),
(250,-125,l),
(250,0,l),
(125,0,l),
(125,125,l)
);
},
{
closed = 1;
nodes = (
(250,625,l),
(375,625,l),
(375,750,l),
(500,750,l),
(500,625,l),
(625,625,l),
(625,500,l),
(250,500,l)
);
}
);
width = 750;
},
{
layerId = "15C0796C-B0F3-4225-BD6B-773C46650136";
shapes = (
{
closed = 1;
nodes = (
(500,125,l),
(500,250,l),
(250,250,l),
(250,375,l),
(125,375,l),
(125,500,l),
(250,500,l),
(250,625,l),
(375,625,l),
(375,750,l),
(625,750,l),
(625,625,l),
(750,625,l),
(750,500,l),
(375,500,l),
(375,375,l),
(625,375,l),
(625,250,l),
(750,250,l),
(750,125,l),
(625,125,l),
(625,0,l),
(500,0,l),
(500,-125,l),
(250,-125,l),
(250,0,l),
(125,0,l),
(125,125,l)
);
}
);
width = 875;
}
);
note = dollar;
unicode = 36;
},
{
glyphname = percent;
lastChange = "2022-06-09 09:49:02 +0000";
layers = (
{
layerId = m01;
shapes = (
{
closed = 1;
nodes = (
(375,375,l),
(125,375,l),
(125,625,l),
(375,625,l),
(375,375,l),
(500,375,l),
(500,250,l),
(750,250,l),
(750,0,l),
(500,0,l),
(500,250,l),
(375,250,l)
);
},
{
closed = 1;
nodes = (
(250,250,l),
(375,250,l),
(375,0,l),
(250,0,l)
);
},
{
closed = 1;
nodes = (
(500,625,l),
(625,625,l),
(625,375,l),
(500,375,l)
);
}
);
width = 875;
},
{
layerId = "15C0796C-B0F3-4225-BD6B-773C46650136";
shapes = (
{
closed = 1;
nodes = (
(375,250,l),
(375,375,l),
(125,375,l),
(125,625,l),
(750,625,l),
(750,375,l),
(625,375,l),
(625,250,l),
(875,250,l),
(875,0,l),
(250,0,l),
(250,250,l)
);
}
);
width = 1000;
}
);
note = percent;
unicode = 37;
},
{
glyphname = ampersand;
lastChange = "2022-06-09 09:49:02 +0000";
layers = (
{
layerId = m01;
shapes = (
{
closed = 1;
nodes = (
(125,125,l),
(125,250,l),
(250,250,l),
(250,375,l),
(125,375,l),
(125,500,l),
(250,500,l),
(250,625,l),
(375,625,l),
(375,750,l),
(500,750,l),
(500,625,l),
(625,625,l),
(625,500,l),
(250,500,l),
(250,375,l),
(500,375,l),
(500,250,l),
(250,250,l),
(250,125,l),
(625,125,l),
(625,0,l),
(500,0,l),
(500,-125,l),
(375,-125,l),
(375,0,l),
(250,0,l),
(250,125,l)
);
}
);
width = 750;
},
{
layerId = "15C0796C-B0F3-4225-BD6B-773C46650136";
shapes = (
{
closed = 1;
nodes = (
(125,125,l),
(125,250,l),
(250,250,l),
(250,375,l),
(125,375,l),
(125,500,l),
(250,500,l),
(250,625,l),
(375,625,l),
(375,750,l),
(625,750,l),
(625,625,l),
(750,625,l),
(750,500,l),
(375,500,l),
(375,375,l),
(625,375,l),
(625,250,l),
(375,250,l),
(375,125,l),
(750,125,l),
(750,0,l),
(625,0,l),
(625,-125,l),
(375,-125,l),
(375,0,l),
(250,0,l),
(250,125,l)
);
}
);
width = 875;
}
);
note = ampersand;
unicode = 38;
},
{
glyphname = quotesingle;
lastChange = "2022-06-09 09:49:02 +0000";
layers = (
{
layerId = m01;
shapes = (
{
closed = 1;
nodes = (
(250,625,l),
(250,375,l),
(125,375,l),
(125,625,l)
);
}
);
width = 375;
},
{
layerId = "15C0796C-B0F3-4225-BD6B-773C46650136";
shapes = (
{
closed = 1;
nodes = (
(375,625,l),
(375,375,l),
(125,375,l),
(125,625,l)
);
}
);
width = 500;
}
);
note = quotesingle;
unicode = 39;
},
{
glyphname = parenleft;
lastChange = "2022-06-09 09:49:02 +0000";
layers = (
{
layerId = m01;
shapes = (
{
closed = 1;
nodes = (
(125,125,l),
(125,500,l),
(250,500,l),
(250,125,l),
(375,125,l),
(375,0,l),
(250,0,l),
(250,125,l)
);
},
{
closed = 1;
nodes = (
(250,625,l),
(375,625,l),
(375,500,l),
(250,500,l)
);
}
);
width = 500;
},
{
layerId = "15C0796C-B0F3-4225-BD6B-773C46650136";
shapes = (
{
closed = 1;
nodes = (
(125,125,l),
(125,500,l),
(250,500,l),
(250,625,l),
(500,625,l),
(500,500,l),
(375,500,l),
(375,125,l),
(500,125,l),
(500,0,l),
(250,0,l),
(250,125,l)
);
}
);
width = 625;
}
);
note = parenleft;
unicode = 40;
},
{
glyphname = parenright;
lastChange = "2022-06-09 09:49:02 +0000";
layers = (
{
layerId = m01;
shapes = (
{
closed = 1;
nodes = (
(250,500,l),
(125,500,l),
(125,625,l),
(250,625,l),
(250,500,l),
(375,500,l),
(375,125,l),
(250,125,l)
);
},
{
closed = 1;
nodes = (
(250,125,l),
(250,0,l),
(125,0,l),
(125,125,l)
);
}
);
width = 500;
},
{
layerId = "15C0796C-B0F3-4225-BD6B-773C46650136";
shapes = (
{
closed = 1;
nodes = (
(250,125,l),
(250,500,l),
(125,500,l),
(125,625,l),
(375,625,l),
(375,500,l),
(500,500,l),
(500,125,l),
(375,125,l),
(375,0,l),
(125,0,l),
(125,125,l)
);
}
);
width = 625;
}
);
note = parenright;
unicode = 41;
},
{
glyphname = asterisk;
lastChange = "2022-06-09 09:49:02 +0000";
layers = (
{
layerId = m01;
shapes = (
{
closed = 1;
nodes = (
(250,250,l),
(250,125,l),
(125,125,l),
(125,250,l),
(250,250,l),
(250,375,l),
(125,375,l),
(125,500,l),
(250,500,l),
(250,375,l),
(375,375,l),
(375,625,l),
(500,625,l),
(500,375,l),
(625,375,l),
(625,250,l),
(750,250,l),
(750,125,l),
(625,125,l),
(625,250,l),
(500,250,l),
(500,0,l),
(375,0,l),
(375,250,l)
);
},
{
closed = 1;
nodes = (
(625,500,l),
(750,500,l),
(750,375,l),
(625,375,l)
);
}
);
width = 875;
},
{
layerId = "15C0796C-B0F3-4225-BD6B-773C46650136";
shapes = (
{
closed = 1;
nodes = (
(125,125,l),
(125,250,l),
(250,250,l),
(250,375,l),
(125,375,l),
(125,500,l),
(375,500,l),
(375,625,l),
(625,625,l),
(625,500,l),
(875,500,l),
(875,375,l),
(750,375,l),
(750,250,l),
(875,250,l),
(875,125,l),
(625,125,l),
(625,0,l),
(375,0,l),
(375,125,l)
);
}
);
width = 1000;
}
);
note = asterisk;
unicode = 42;
},
{
glyphname = plus;
lastChange = "2022-06-09 09:49:02 +0000";
layers = (
{
layerId = m01;
shapes = (
{
closed = 1;
nodes = (
(125,250,l),
(125,375,l),
(375,375,l),
(375,625,l),
(500,625,l),
(500,375,l),
(750,375,l),
(750,250,l),
(500,250,l),
(500,0,l),
(375,0,l),
(375,250,l)
);
}
);
width = 875;
},
{
layerId = "15C0796C-B0F3-4225-BD6B-773C46650136";
shapes = (
{
closed = 1;
nodes = (
(125,250,l),
(125,375,l),
(375,375,l),
(375,625,l),
(625,625,l),
(625,375,l),
(875,375,l),
(875,250,l),
(625,250,l),
(625,0,l),
(375,0,l),
(375,250,l)
);
}
);
width = 1000;
}
);
note = plus;
unicode = 43;
},
{
glyphname = comma;
lastChange = "2022-06-09 09:49:02 +0000";
layers = (
{
layerId = m01;
shapes = (
{
closed = 1;
nodes = (
(250,0,l),
(250,-125,l),
(125,-125,l),
(125,0,l)
);
},
{
closed = 1;
nodes = (
(250,125,l),
(375,125,l),
(375,0,l),
(250,0,l)
);
}
);
width = 500;
},
{
layerId = "15C0796C-B0F3-4225-BD6B-773C46650136";
shapes = (
{
closed = 1;
nodes = (
(250,0,l),
(250,125,l),
(500,125,l),
(500,0,l),
(375,0,l),
(375,-125,l),
(125,-125,l),
(125,0,l)
);
}
);
width = 625;
}
);
note = comma;
unicode = 44;
},
{
glyphname = hyphen;
lastChange = "2022-06-09 09:49:02 +0000";
layers = (
{
layerId = m01;
shapes = (
{
closed = 1;
nodes = (
(500,375,l),
(500,250,l),
(125,250,l),
(125,375,l)
);
}
);
width = 625;
},
{
layerId = "15C0796C-B0F3-4225-BD6B-773C46650136";
shapes = (
{
closed = 1;
nodes = (
(625,375,l),
(625,250,l),
(125,250,l),
(125,375,l)
);
}
);
width = 750;
}
);
note = hyphen;
unicode = 45;
},
{
glyphname = period;
lastChange = "2022-06-09 09:49:02 +0000";
layers = (
{
layerId = m01;
shapes = (
{
closed = 1;
nodes = (
(250,0,l),
(125,0,l),
(125,125,l),
(250,125,l)
);
}
);
width = 375;
},
{
layerId = "15C0796C-B0F3-4225-BD6B-773C46650136";
shapes = (
{
closed = 1;
nodes = (
(375,0,l),
(125,0,l),
(125,125,l),
(375,125,l)
);
}
);
width = 500;
}
);
note = period;
unicode = 46;
},
{
glyphname = slash;
lastChange = "2022-06-09 09:49:02 +0000";
layers = (
{
layerId = m01;
shapes = (
{
closed = 1;
nodes = (
(125,250,l),
(250,250,l),
(250,0,l),
(125,0,l)
);
},
{
closed = 1;
nodes = (
(375,625,l),
(500,625,l),
(500,375,l),
(375,375,l)
);
},
{
closed = 1;
nodes = (
(250,375,l),
(375,375,l),
(375,250,l),
(250,250,l)
);
}
);
width = 625;
},
{
layerId = "15C0796C-B0F3-4225-BD6B-773C46650136";
shapes = (
{
closed = 1;
nodes = (
(250,250,l),
(250,375,l),
(375,375,l),
(375,625,l),
(625,625,l),
(625,375,l),
(500,375,l),
(500,250,l),
(375,250,l),
(375,0,l),
(125,0,l),
(125,250,l)
);
}
);
width = 750;
}
);
note = slash;
unicode = 47;
},
{
glyphname = zero;
lastChange = "2022-06-09 09:49:02 +0000";
layers = (
{
layerId = m01;
shapes = (
{
closed = 1;
nodes = (
(250,500,l),
(250,625,l),
(500,625,l),
(500,500,l),
(625,500,l),
(625,125,l),
(500,125,l),
(500,0,l),
(250,0,l),
(250,125,l),
(125,125,l),
(125,500,l)
);
},
{
closed = 1;
nodes = (
(500,130,l),
(500,495,l),
(250,495,l),
(250,130,l)
);
}
);
width = 750;
},
{
layerId = "15C0796C-B0F3-4225-BD6B-773C46650136";
shapes = (
{
closed = 1;
nodes = (
(250,500,l),
(250,625,l),
(625,625,l),
(625,500,l),
(750,500,l),
(750,125,l),
(625,125,l),
(625,0,l),
(250,0,l),
(250,125,l),
(125,125,l),
(125,500,l)
);
},
{
closed = 1;
nodes = (
(500,130,l),
(500,495,l),
(375,495,l),
(375,130,l)
);
}
);
width = 875;
}
);
note = zero;
unicode = 48;
},
{
glyphname = one;
lastChange = "2022-06-09 09:49:02 +0000";
layers = (
{
layerId = m01;
shapes = (
{
closed = 1;
nodes = (
(250,125,l),
(250,500,l),
(125,500,l),
(125,625,l),
(375,625,l),
(375,125,l),
(500,125,l),
(500,0,l),
(125,0,l),
(125,125,l)
);
}
);
width = 625;
},
{
layerId = "15C0796C-B0F3-4225-BD6B-773C46650136";
shapes = (
{
closed = 1;
nodes = (
(250,125,l),
(250,500,l),
(125,500,l),
(125,625,l),
(500,625,l),
(500,125,l),
(625,125,l),
(625,0,l),
(125,0,l),
(125,125,l)
);
}
);
width = 750;
}
);
note = one;
unicode = 49;
},
{
glyphname = two;
lastChange = "2022-06-09 09:49:02 +0000";
layers = (
{
layerId = m01;
shapes = (
{
closed = 1;
nodes = (
(250,250,l),
(250,125,l),
(625,125,l),
(625,0,l),
(125,0,l),
(125,250,l)
);
},
{
closed = 1;
nodes = (
(500,500,l),
(125,500,l),
(125,625,l),
(500,625,l),
(500,500,l),
(625,500,l),
(625,375,l),
(500,375,l)
);
},
{
closed = 1;
nodes = (
(250,375,l),
(500,375,l),
(500,250,l),
(250,250,l)
);
}
);
width = 750;
},
{
layerId = "15C0796C-B0F3-4225-BD6B-773C46650136";
shapes = (
{
closed = 1;
nodes = (
(250,250,l),
(250,375,l),
(500,375,l),
(500,500,l),
(125,500,l),
(125,625,l),
(625,625,l),
(625,500,l),
(750,500,l),
(750,375,l),
(625,375,l),
(625,250,l),
(375,250,l),
(375,125,l),
(750,125,l),
(750,0,l),
(125,0,l),
(125,250,l)
);
}
);
width = 875;
}
);
note = two;
unicode = 50;
},
{
glyphname = three;
lastChange = "2022-06-09 09:49:02 +0000";
layers = (
{
layerId = m01;
shapes = (
{
closed = 1;
nodes = (
(500,500,l),
(125,500,l),
(125,625,l),
(500,625,l),
(500,500,l),
(625,500,l),
(625,375,l),
(500,375,l)
);
},
{
closed = 1;
nodes = (
(500,250,l),
(250,250,l),
(250,375,l),
(500,375,l),
(500,250,l),
(625,250,l),
(625,125,l),
(500,125,l)
);
},
{
closed = 1;
nodes = (
(500,125,l),
(500,0,l),
(125,0,l),
(125,125,l)
);
}
);
width = 750;
},
{
layerId = "15C0796C-B0F3-4225-BD6B-773C46650136";
shapes = (
{
closed = 1;
nodes = (
(500,125,l),
(500,250,l),
(250,250,l),
(250,375,l),
(500,375,l),
(500,500,l),
(125,500,l),
(125,625,l),
(625,625,l),
(625,500,l),
(750,500,l),
(750,375,l),
(625,375,l),
(625,250,l),
(750,250,l),
(750,125,l),
(625,125,l),
(625,0,l),
(125,0,l),
(125,125,l)
);
}
);
width = 875;
}
);
note = three;
unicode = 51;
},
{
glyphname = four;
lastChange = "2022-06-09 09:49:02 +0000";
layers = (
{
layerId = m01;
shapes = (
{
closed = 1;
nodes = (
(375,250,l),
(125,250,l),
(125,625,l),
(250,625,l),
(250,375,l),
(375,375,l),
(375,625,l),
(500,625,l),
(500,375,l),
(625,375,l),
(625,250,l),
(500,250,l),
(500,0,l),
(375,0,l)
);
}
);
width = 750;
},
{
layerId = "15C0796C-B0F3-4225-BD6B-773C46650136";
shapes = (
{
closed = 1;
nodes = (
(375,250,l),
(125,250,l),
(125,625,l),
(625,625,l),
(625,375,l),
(750,375,l),
(750,250,l),
(625,250,l),
(625,0,l),
(375,0,l)
);
}
);
width = 875;
}
);
note = four;
unicode = 52;
},
{
glyphname = five;
lastChange = "2022-06-09 09:49:02 +0000";
layers = (
{
layerId = m01;
shapes = (
{
closed = 1;
nodes = (
(500,250,l),
(125,250,l),
(125,625,l),
(625,625,l),
(625,500,l),
(250,500,l),
(250,375,l),
(500,375,l),
(500,250,l),
(625,250,l),
(625,125,l),
(500,125,l)
);
},
{
closed = 1;
nodes = (
(500,125,l),
(500,0,l),
(125,0,l),
(125,125,l)
);
}
);
width = 750;
},
{
layerId = "15C0796C-B0F3-4225-BD6B-773C46650136";
shapes = (
{
closed = 1;
nodes = (
(500,125,l),
(500,250,l),
(125,250,l),
(125,625,l),
(750,625,l),
(750,500,l),
(375,500,l),
(375,375,l),
(625,375,l),
(625,250,l),
(750,250,l),
(750,125,l),
(625,125,l),
(625,0,l),
(125,0,l),
(125,125,l)
);
}
);
width = 875;
}
);
note = five;
unicode = 53;
},
{
glyphname = six;
lastChange = "2022-06-09 09:49:02 +0000";
layers = (
{
layerId = m01;
shapes = (
{
closed = 1;
nodes = (
(125,125,l),
(125,500,l),
(250,500,l),
(250,625,l),
(500,625,l),
(500,500,l),
(250,500,l),
(250,375,l),
(500,375,l),
(500,250,l),
(625,250,l),
(625,125,l),
(500,125,l),
(500,0,l),
(250,0,l),
(250,125,l)
);
},
{
closed = 1;
nodes = (
(500,130,l),
(500,245,l),
(250,245,l),
(250,130,l)
);
}
);
width = 750;
},
{
layerId = "15C0796C-B0F3-4225-BD6B-773C46650136";
shapes = (
{
closed = 1;
nodes = (
(125,125,l),
(125,500,l),
(250,500,l),
(250,625,l),
(625,625,l),
(625,500,l),
(375,500,l),
(375,375,l),
(625,375,l),
(625,250,l),
(750,250,l),
(750,125,l),
(625,125,l),
(625,0,l),
(250,0,l),
(250,125,l)
);
},
{
closed = 1;
nodes = (
(500,125,l),
(500,250,l),
(375,250,l),
(375,125,l)
);
}
);
width = 875;
}
);
note = six;
unicode = 54;
},
{
glyphname = seven;
lastChange = "2022-06-09 09:49:02 +0000";
layers = (
{
layerId = m01;
shapes = (
{
closed = 1;
nodes = (
(375,250,l),
(375,375,l),
(500,375,l),
(500,500,l),
(125,500,l),
(125,625,l),
(625,625,l),
(625,375,l),
(500,375,l),
(500,250,l),
(375,250,l),
(375,0,l),
(250,0,l),
(250,250,l)
);
}
);
width = 750;
},
{
layerId = "15C0796C-B0F3-4225-BD6B-773C46650136";
shapes = (
{
closed = 1;
nodes = (
(375,250,l),
(375,375,l),
(500,375,l),
(500,500,l),
(125,500,l),
(125,625,l),
(750,625,l),
(750,375,l),
(625,375,l),
(625,250,l),
(500,250,l),
(500,0,l),
(250,0,l),
(250,250,l)
);
}
);
width = 875;
}
);
note = seven;
unicode = 55;
},
{
glyphname = eight;
lastChange = "2022-06-09 09:49:02 +0000";
layers = (
{
layerId = m01;
shapes = (
{
closed = 1;
nodes = (
(125,125,l),
(125,250,l),
(250,250,l),
(250,375,l),
(125,375,l),
(125,500,l),
(250,500,l),
(250,625,l),
(500,625,l),
(500,500,l),
(625,500,l),
(625,375,l),
(500,375,l),
(500,250,l),
(625,250,l),
(625,125,l),
(500,125,l),
(500,0,l),
(250,0,l),
(250,125,l)
);
},
{
closed = 1;
nodes = (
(500,380,l),
(500,495,l),
(250,495,l),
(250,380,l)
);
},
{
closed = 1;
nodes = (
(500,130,l),
(500,245,l),
(250,245,l),
(250,130,l)
);
}
);
width = 750;
},
{
layerId = "15C0796C-B0F3-4225-BD6B-773C46650136";
shapes = (
{
closed = 1;
nodes = (
(125,125,l),
(125,250,l),
(250,250,l),
(250,375,l),
(125,375,l),
(125,500,l),
(250,500,l),
(250,625,l),
(625,625,l),
(625,500,l),
(750,500,l),
(750,375,l),
(625,375,l),
(625,250,l),
(750,250,l),
(750,125,l),
(625,125,l),
(625,0,l),
(250,0,l),
(250,125,l)
);
},
{
closed = 1;
nodes = (
(500,380,l),
(500,495,l),
(375,495,l),
(375,380,l)
);
},
{
closed = 1;
nodes = (
(500,130,l),
(500,245,l),
(375,245,l),
(375,130,l)
);
}
);
width = 875;
}
);
note = eight;
unicode = 56;
},
{
glyphname = nine;
lastChange = "2022-06-09 09:49:02 +0000";
layers = (
{
layerId = m01;
shapes = (
{
closed = 1;
nodes = (
(500,125,l),
(500,250,l),
(250,250,l),
(250,375,l),
(125,375,l),
(125,500,l),
(250,500,l),
(250,625,l),
(500,625,l),
(500,500,l),
(625,500,l),
(625,125,l),
(500,125,l),
(500,0,l),
(250,0,l),
(250,125,l)
);
},
{
closed = 1;
nodes = (
(500,380,l),
(500,495,l),
(250,495,l),
(250,380,l)
);
}
);
width = 750;
},
{
layerId = "15C0796C-B0F3-4225-BD6B-773C46650136";
shapes = (
{
closed = 1;
nodes = (
(500,125,l),
(500,250,l),
(250,250,l),
(250,375,l),
(125,375,l),
(125,500,l),
(250,500,l),
(250,625,l),
(625,625,l),
(625,500,l),
(750,500,l),
(750,125,l),
(625,125,l),
(625,0,l),
(250,0,l),
(250,125,l)
);
},
{
closed = 1;
nodes = (
(375,375,l),
(500,375,l),
(500,500,l),
(375,500,l)
);
}
);
width = 875;
}
);
note = nine;
unicode = 57;
},
{
glyphname = colon;
lastChange = "2022-06-09 09:49:02 +0000";
layers = (
{
layerId = m01;
shapes = (
{
closed = 1;
nodes = (
(250,250,l),
(250,125,l),
(125,125,l),
(125,250,l)
);
},
{
closed = 1;
nodes = (
(250,500,l),
(250,375,l),
(125,375,l),
(125,500,l)
);
}
);
width = 375;
},
{
layerId = "15C0796C-B0F3-4225-BD6B-773C46650136";
shapes = (
{
closed = 1;
nodes = (
(375,250,l),
(375,125,l),
(125,125,l),
(125,250,l)
);
},
{
closed = 1;
nodes = (
(375,500,l),
(375,375,l),
(125,375,l),
(125,500,l)
);
}
);
width = 500;
}
);
note = colon;
unicode = 58;
},
{
glyphname = semicolon;
lastChange = "2022-06-09 09:49:02 +0000";
layers = (
{
layerId = m01;
shapes = (
{
closed = 1;
nodes = (
(250,125,l),
(250,0,l),
(125,0,l),
(125,125,l)
);
},
{
closed = 1;
nodes = (
(375,500,l),
(375,375,l),
(250,375,l),
(250,500,l)
);
},
{
closed = 1;
nodes = (
(250,250,l),
(375,250,l),
(375,125,l),
(250,125,l)
);
}
);
width = 500;
},
{
layerId = "15C0796C-B0F3-4225-BD6B-773C46650136";
shapes = (
{
closed = 1;
nodes = (
(250,125,l),
(250,250,l),
(500,250,l),
(500,125,l),
(375,125,l),
(375,0,l),
(125,0,l),
(125,125,l)
);
},
{
closed = 1;
nodes = (
(500,500,l),
(500,375,l),
(250,375,l),
(250,500,l)
);
}
);
width = 625;
}
);
note = semicolon;
unicode = 59;
},
{
glyphname = less;
lastChange = "2022-06-09 09:49:02 +0000";
layers = (
{
layerId = m01;
shapes = (
{
closed = 1;
nodes = (
(250,125,l),
(250,250,l),
(125,250,l),
(125,375,l),
(250,375,l),
(250,250,l),
(375,250,l),
(375,125,l),
(500,125,l),
(500,0,l),
(375,0,l),
(375,125,l)
);
},
{
closed = 1;
nodes = (
(250,500,l),
(375,500,l),
(375,375,l),
(250,375,l)
);
},
{
closed = 1;
nodes = (
(375,625,l),
(500,625,l),
(500,500,l),
(375,500,l)
);
}
);
width = 625;
},
{
layerId = "15C0796C-B0F3-4225-BD6B-773C46650136";
shapes = (
{
closed = 1;
nodes = (
(250,125,l),
(250,250,l),
(125,250,l),
(125,375,l),
(250,375,l),
(250,500,l),
(375,500,l),
(375,625,l),
(625,625,l),
(625,500,l),
(500,500,l),
(500,375,l),
(375,375,l),
(375,250,l),
(500,250,l),
(500,125,l),
(625,125,l),
(625,0,l),
(375,0,l),
(375,125,l)
);
}
);
width = 750;
}
);
note = less;
unicode = 60;
},
{
glyphname = equal;
lastChange = "2022-06-09 09:49:02 +0000";
layers = (
{
layerId = m01;
shapes = (
{
closed = 1;
nodes = (
(500,250,l),
(500,125,l),
(125,125,l),
(125,250,l)
);
},
{
closed = 1;
nodes = (
(500,500,l),
(500,375,l),
(125,375,l),
(125,500,l)
);
}
);
width = 625;
},
{
layerId = "15C0796C-B0F3-4225-BD6B-773C46650136";
shapes = (
{
closed = 1;
nodes = (
(625,250,l),
(625,125,l),
(125,125,l),
(125,250,l)
);
},
{
closed = 1;
nodes = (
(625,500,l),
(625,375,l),
(125,375,l),
(125,500,l)
);
}
);
width = 750;
}
);
note = equal;
unicode = 61;
},
{
glyphname = greater;
lastChange = "2022-06-09 09:49:02 +0000";
layers = (
{
layerId = m01;
shapes = (
{
closed = 1;
nodes = (
(375,375,l),
(250,375,l),
(250,500,l),
(125,500,l),
(125,625,l),
(250,625,l),
(250,500,l),
(375,500,l),
(375,375,l),
(500,375,l),
(500,250,l),
(375,250,l)
);
},
{
closed = 1;
nodes = (
(250,250,l),
(375,250,l),
(375,125,l),
(250,125,l)
);
},
{
closed = 1;
nodes = (
(250,125,l),
(250,0,l),
(125,0,l),
(125,125,l)
);
}
);
width = 625;
},
{
layerId = "15C0796C-B0F3-4225-BD6B-773C46650136";
shapes = (
{
closed = 1;
nodes = (
(500,125,l),
(500,250,l),
(625,250,l),
(625,375,l),
(500,375,l),
(500,500,l),
(375,500,l),
(375,625,l),
(125,625,l),
(125,500,l),
(250,500,l),
(250,375,l),
(375,375,l),
(375,250,l),
(250,250,l),
(250,125,l),
(125,125,l),
(125,0,l),
(375,0,l),
(375,125,l)
);
}
);
width = 750;
}
);
note = greater;
unicode = 62;
},
{
glyphname = question;
lastChange = "2022-06-09 09:49:02 +0000";
layers = (
{
layerId = m01;
shapes = (
{
closed = 1;
nodes = (
(500,500,l),
(125,500,l),
(125,625,l),
(500,625,l),
(500,500,l),
(625,500,l),
(625,375,l),
(500,375,l)
);
},
{
closed = 1;
nodes = (
(500,375,l),
(500,250,l),
(250,250,l),
(250,375,l)
);
},
{
closed = 1;
nodes = (
(375,125,l),
(375,0,l),
(250,0,l),
(250,125,l)
);
}
);
width = 750;
},
{
layerId = "15C0796C-B0F3-4225-BD6B-773C46650136";
shapes = (
{
closed = 1;
nodes = (
(500,375,l),
(500,500,l),
(125,500,l),
(125,625,l),
(625,625,l),
(625,500,l),
(750,500,l),
(750,375,l),
(625,375,l),
(625,250,l),
(250,250,l),
(250,375,l)
);
},
{
closed = 1;
nodes = (
(500,125,l),
(500,0,l),
(250,0,l),
(250,125,l)
);
}
);
width = 875;
}
);
note = question;
unicode = 63;
},
{
glyphname = at;
lastChange = "2022-06-09 09:49:02 +0000";
layers = (
{
layerId = m01;
shapes = (
{
closed = 1;
nodes = (
(250,625,l),
(625,625,l),
(625,500,l),
(750,500,l),
(750,375,l),
(625,375,l),
(625,250,l),
(375,250,l),
(375,500,l),
(250,500,l)
);
},
{
closed = 1;
nodes = (
(125,125,l),
(125,500,l),
(250,500,l),
(250,125,l),
(625,125,l),
(625,0,l),
(250,0,l),
(250,125,l)
);
},
{
closed = 1;
nodes = (
(620,375,l),
(620,500,l),
(500,500,l),
(500,375,l)
);
}
);
width = 875;
},
{
layerId = "15C0796C-B0F3-4225-BD6B-773C46650136";
shapes = (
{
closed = 1;
nodes = (
(125,125,l),
(125,500,l),
(250,500,l),
(250,625,l),
(750,625,l),
(750,500,l),
(875,500,l),
(875,375,l),
(750,375,l),
(750,250,l),
(375,250,l),
(375,125,l),
(750,125,l),
(750,0,l),
(250,0,l),
(250,125,l)
);
}
);
width = 1000;
}
);
note = at;
unicode = 64;
},
{
glyphname = A;
lastChange = "2022-06-09 09:49:02 +0000";
layers = (
{
layerId = m01;
shapes = (
{
closed = 1;
nodes = (
(250,250,l),
(250,0,l),
(125,0,l),
(125,500,l),
(250,500,l),
(250,625,l),
(500,625,l),
(500,500,l),
(625,500,l),
(625,0,l),
(500,0,l),
(500,250,l)
);
},
{
closed = 1;
nodes = (
(500,495,l),
(250,495,l),
(250,375,l),
(500,375,l)
);
}
);
width = 750;
},
{
layerId = "15C0796C-B0F3-4225-BD6B-773C46650136";
shapes = (
{
closed = 1;
nodes = (
(375,250,l),
(375,0,l),
(125,0,l),
(125,500,l),
(250,500,l),
(250,625,l),
(625,625,l),
(625,500,l),
(750,500,l),
(750,0,l),
(500,0,l),
(500,250,l)
);
},
{
closed = 1;
nodes = (
(500,495,l),
(375,495,l),
(375,375,l),
(500,375,l)
);
}
);
width = 875;
}
);
note = A;
unicode = 65;
},
{
glyphname = B;
lastChange = "2022-06-09 09:49:02 +0000";
layers = (
{
layerId = m01;
shapes = (
{
closed = 1;
nodes = (
(500,625,l),
(500,500,l),
(625,500,l),
(625,125,l),
(500,125,l),
(500,0,l),
(125,0,l),
(125,625,l)
);
},
{
closed = 1;
nodes = (
(495,375,l),
(495,500,l),
(250,500,l),
(250,375,l)
);
},
{
closed = 1;
nodes = (
(495,125,l),
(495,250,l),
(250,250,l),
(250,125,l)
);
}
);
width = 750;
},
{
layerId = "15C0796C-B0F3-4225-BD6B-773C46650136";
shapes = (
{
closed = 1;
nodes = (
(625,625,l),
(625,500,l),
(750,500,l),
(750,125,l),
(625,125,l),
(625,0,l),
(125,0,l),
(125,625,l)
);
},
{
closed = 1;
nodes = (
(495,375,l),
(495,500,l),
(375,500,l),
(375,375,l)
);
},
{
closed = 1;
nodes = (
(495,125,l),
(495,250,l),
(375,250,l),
(375,125,l)
);
}
);
width = 875;
}
);
note = B;
unicode = 66;
},
{
glyphname = C;
lastChange = "2022-06-09 09:49:02 +0000";
layers = (
{
layerId = m01;
shapes = (
{
closed = 1;
nodes = (
(125,125,l),
(125,500,l),
(250,500,l),
(250,125,l),
(500,125,l),
(500,0,l),
(250,0,l),
(250,125,l)
);
},
{
closed = 1;
nodes = (
(250,625,l),
(500,625,l),
(500,500,l),
(625,500,l),
(625,375,l),
(500,375,l),
(500,500,l),
(250,500,l)
);
},
{
closed = 1;
nodes = (
(500,250,l),
(625,250,l),
(625,125,l),
(500,125,l)
);
}
);
width = 750;
},
{
layerId = "15C0796C-B0F3-4225-BD6B-773C46650136";
shapes = (
{
closed = 1;
nodes = (
(125,125,l),
(125,500,l),
(250,500,l),
(250,625,l),
(625,625,l),
(625,500,l),
(750,500,l),
(750,375,l),
(500,375,l),
(500,500,l),
(375,500,l),
(375,125,l),
(500,125,l),
(500,250,l),
(750,250,l),
(750,125,l),
(625,125,l),
(625,0,l),
(250,0,l),
(250,125,l)
);
}
);
width = 875;
}
);
note = C;
unicode = 67;
},
{
glyphname = D;
lastChange = "2022-06-09 09:49:02 +0000";
layers = (
{
layerId = m01;
shapes = (
{
closed = 1;
nodes = (
(125,625,l),
(500,625,l),
(500,500,l),
(625,500,l),
(625,125,l),
(500,125,l),
(500,0,l),
(125,0,l)
);
},
{
closed = 1;
nodes = (
(495,125,l),
(495,500,l),
(250,500,l),
(250,125,l)
);
}
);
width = 750;
},
{
layerId = "15C0796C-B0F3-4225-BD6B-773C46650136";
shapes = (
{
closed = 1;
nodes = (
(125,625,l),
(625,625,l),
(625,500,l),
(750,500,l),
(750,125,l),
(625,125,l),
(625,0,l),
(125,0,l)
);
},
{
closed = 1;
nodes = (
(495,125,l),
(495,500,l),
(375,500,l),
(375,125,l)
);
}
);
width = 875;
}
);
note = D;
unicode = 68;
},
{
glyphname = E;
lastChange = "2022-06-09 09:49:02 +0000";
layers = (
{
layerId = m01;
shapes = (
{
closed = 1;
nodes = (
(500,625,l),
(500,500,l),
(250,500,l),
(250,375,l),
(500,375,l),
(500,250,l),
(250,250,l),
(250,125,l),
(500,125,l),
(500,0,l),
(125,0,l),
(125,625,l)
);
}
);
width = 625;
},
{
layerId = "15C0796C-B0F3-4225-BD6B-773C46650136";
shapes = (
{
closed = 1;
nodes = (
(625,625,l),
(625,500,l),
(375,500,l),
(375,375,l),
(625,375,l),
(625,250,l),
(375,250,l),
(375,125,l),
(625,125,l),
(625,0,l),
(125,0,l),
(125,625,l)
);
}
);
width = 750;
}
);
note = E;
unicode = 69;
},
{
glyphname = F;
lastChange = "2022-06-09 09:49:02 +0000";
layers = (
{
layerId = m01;
shapes = (
{
closed = 1;
nodes = (
(500,625,l),
(500,500,l),
(250,500,l),
(250,375,l),
(500,375,l),
(500,250,l),
(250,250,l),
(250,0,l),
(125,0,l),
(125,625,l)
);
}
);
width = 625;
},
{
layerId = "15C0796C-B0F3-4225-BD6B-773C46650136";
shapes = (
{
closed = 1;
nodes = (
(625,625,l),
(625,500,l),
(375,500,l),
(375,375,l),
(625,375,l),
(625,250,l),
(375,250,l),
(375,0,l),
(125,0,l),
(125,625,l)
);
}
);
width = 750;
}
);
note = F;
unicode = 70;
},
{
glyphname = G;
lastChange = "2022-06-09 09:49:02 +0000";
layers = (
{
layerId = m01;
shapes = (
{
closed = 1;
nodes = (
(500,250,l),
(375,250,l),
(375,375,l),
(625,375,l),
(625,125,l),
(500,125,l)
);
},
{
closed = 1;
nodes = (
(250,625,l),
(625,625,l),
(625,500,l),
(250,500,l)
);
},
{
closed = 1;
nodes = (
(125,125,l),
(125,500,l),
(250,500,l),
(250,125,l)
);
},
{
closed = 1;
nodes = (
(500,125,l),
(500,0,l),
(250,0,l),
(250,125,l)
);
}
);
width = 750;
},
{
layerId = "15C0796C-B0F3-4225-BD6B-773C46650136";
shapes = (
{
closed = 1;
nodes = (
(125,125,l),
(125,500,l),
(250,500,l),
(250,625,l),
(750,625,l),
(750,500,l),
(375,500,l),
(375,125,l),
(500,125,l),
(500,375,l),
(750,375,l),
(750,125,l),
(625,125,l),
(625,0,l),
(250,0,l),
(250,125,l)
);
}
);
width = 875;
}
);
note = G;
unicode = 71;
},
{
glyphname = H;
lastChange = "2022-06-09 09:49:02 +0000";
layers = (
{
layerId = m01;
shapes = (
{
closed = 1;
nodes = (
(250,250,l),
(250,0,l),
(125,0,l),
(125,625,l),
(250,625,l),
(250,375,l),
(500,375,l),
(500,625,l),
(625,625,l),
(625,0,l),
(500,0,l),
(500,250,l)
);
}
);
width = 750;
},
{
layerId = "15C0796C-B0F3-4225-BD6B-773C46650136";
shapes = (
{
closed = 1;
nodes = (
(375,250,l),
(375,0,l),
(125,0,l),
(125,625,l),
(375,625,l),
(375,375,l),
(500,375,l),
(500,625,l),
(750,625,l),
(750,0,l),
(500,0,l),
(500,250,l)
);
}
);
width = 875;
}
);
note = H;
unicode = 72;
},
{
glyphname = I;
lastChange = "2022-06-09 09:49:02 +0000";
layers = (
{
layerId = m01;
shapes = (
{
closed = 1;
nodes = (
(250,625,l),
(250,0,l),
(125,0,l),
(125,625,l)
);
}
);
width = 375;
},
{
layerId = "15C0796C-B0F3-4225-BD6B-773C46650136";
shapes = (
{
closed = 1;
nodes = (
(375,625,l),
(375,0,l),
(125,0,l),
(125,625,l)
);
}
);
width = 500;
}
);
note = I;
unicode = 73;
},
{
glyphname = J;
lastChange = "2022-06-09 09:49:02 +0000";
layers = (
{
layerId = m01;
shapes = (
{
closed = 1;
nodes = (
(500,625,l),
(625,625,l),
(625,125,l),
(500,125,l)
);
},
{
closed = 1;
nodes = (
(125,125,l),
(125,250,l),
(250,250,l),
(250,125,l),
(500,125,l),
(500,0,l),
(250,0,l),
(250,125,l)
);
}
);
width = 750;
},
{
layerId = "15C0796C-B0F3-4225-BD6B-773C46650136";
shapes = (
{
closed = 1;
nodes = (
(125,125,l),
(125,250,l),
(375,250,l),
(375,125,l),
(500,125,l),
(500,625,l),
(750,625,l),
(750,125,l),
(625,125,l),
(625,0,l),
(250,0,l),
(250,125,l)
);
}
);
width = 875;
}
);
note = J;
unicode = 74;
},
{
glyphname = K;
lastChange = "2022-06-09 09:49:02 +0000";
layers = (
{
layerId = m01;
shapes = (
{
closed = 1;
nodes = (
(125,625,l),
(250,625,l),
(250,375,l),
(375,375,l),
(375,250,l),
(500,250,l),
(500,125,l),
(625,125,l),
(625,0,l),
(500,0,l),
(500,125,l),
(375,125,l),
(375,250,l),
(250,250,l),
(250,0,l),
(125,0,l)
);
},
{
closed = 1;
nodes = (
(375,500,l),
(500,500,l),
(500,375,l),
(375,375,l)
);
},
{
closed = 1;
nodes = (
(500,625,l),
(625,625,l),
(625,500,l),
(500,500,l)
);
}
);
width = 750;
},
{
layerId = "15C0796C-B0F3-4225-BD6B-773C46650136";
shapes = (
{
closed = 1;
nodes = (
(375,625,l),
(375,500,l),
(500,500,l),
(500,625,l),
(750,625,l),
(750,500,l),
(625,500,l),
(625,375,l),
(500,375,l),
(500,250,l),
(625,250,l),
(625,125,l),
(750,125,l),
(750,0,l),
(500,0,l),
(500,125,l),
(375,125,l),
(375,0,l),
(125,0,l),
(125,625,l)
);
}
);
width = 875;
}
);
note = K;
unicode = 75;
},
{
glyphname = L;
lastChange = "2022-06-09 09:49:02 +0000";
layers = (
{
layerId = m01;
shapes = (
{
closed = 1;
nodes = (
(250,625,l),
(250,125,l),
(500,125,l),
(500,0,l),
(125,0,l),
(125,625,l)
);
}
);
width = 625;
},
{
layerId = "15C0796C-B0F3-4225-BD6B-773C46650136";
shapes = (
{
closed = 1;
nodes = (
(375,625,l),
(375,125,l),
(625,125,l),
(625,0,l),
(125,0,l),
(125,625,l)
);
}
);
width = 750;
}
);
note = L;
unicode = 76;
},
{
glyphname = M;
lastChange = "2022-06-09 09:49:02 +0000";
layers = (
{
layerId = m01;
shapes = (
{
closed = 1;
nodes = (
(250,625,l),
(250,500,l),
(375,500,l),
(375,375,l),
(500,375,l),
(500,250,l),
(375,250,l),
(375,375,l),
(250,375,l),
(250,0,l),
(125,0,l),
(125,625,l)
);
},
{
closed = 1;
nodes = (
(500,500,l),
(625,500,l),
(625,625,l),
(750,625,l),
(750,0,l),
(625,0,l),
(625,375,l),
(500,375,l)
);
}
);
width = 875;
},
{
layerId = "15C0796C-B0F3-4225-BD6B-773C46650136";
shapes = (
{
closed = 1;
nodes = (
(375,625,l),
(375,500,l),
(625,500,l),
(625,625,l),
(875,625,l),
(875,0,l),
(625,0,l),
(625,250,l),
(375,250,l),
(375,0,l),
(125,0,l),
(125,625,l)
);
}
);
width = 1000;
}
);
note = M;
unicode = 77;
},
{
glyphname = N;
lastChange = "2022-06-09 09:49:02 +0000";
layers = (
{
layerId = m01;
shapes = (
{
closed = 1;
nodes = (
(250,625,l),
(250,500,l),
(375,500,l),
(375,375,l),
(500,375,l),
(500,250,l),
(625,250,l),
(625,625,l),
(750,625,l),
(750,0,l),
(625,0,l),
(625,125,l),
(500,125,l),
(500,250,l),
(375,250,l),
(375,375,l),
(250,375,l),
(250,0,l),
(125,0,l),
(125,625,l)
);
}
);
width = 875;
},
{
layerId = "15C0796C-B0F3-4225-BD6B-773C46650136";
shapes = (
{
closed = 1;
nodes = (
(375,625,l),
(375,500,l),
(500,500,l),
(500,375,l),
(625,375,l),
(625,625,l),
(875,625,l),
(875,0,l),
(625,0,l),
(625,125,l),
(500,125,l),
(500,250,l),
(375,250,l),
(375,0,l),
(125,0,l),
(125,625,l)
);
}
);
width = 1000;
}
);
note = N;
unicode = 78;
},
{
glyphname = O;
lastChange = "2022-06-09 09:49:02 +0000";
layers = (
{
layerId = m01;
shapes = (
{
closed = 1;
nodes = (
(250,500,l),
(250,625,l),
(500,625,l),
(500,500,l),
(625,500,l),
(625,125,l),
(500,125,l),
(500,0,l),
(250,0,l),
(250,125,l),
(125,125,l),
(125,500,l)
);
},
{
closed = 1;
nodes = (
(500,130,l),
(500,495,l),
(250,495,l),
(250,130,l)
);
}
);
width = 750;
},
{
layerId = "15C0796C-B0F3-4225-BD6B-773C46650136";
shapes = (
{
closed = 1;
nodes = (
(250,500,l),
(250,625,l),
(625,625,l),
(625,500,l),
(750,500,l),
(750,125,l),
(625,125,l),
(625,0,l),
(250,0,l),
(250,125,l),
(125,125,l),
(125,500,l)
);
},
{
closed = 1;
nodes = (
(500,130,l),
(500,495,l),
(375,495,l),
(375,130,l)
);
}
);
width = 875;
}
);
note = O;
unicode = 79;
},
{
glyphname = P;
lastChange = "2022-06-09 09:49:02 +0000";
layers = (
{
layerId = m01;
shapes = (
{
closed = 1;
nodes = (
(500,625,l),
(500,500,l),
(625,500,l),
(625,375,l),
(500,375,l),
(500,250,l),
(250,250,l),
(250,0,l),
(125,0,l),
(125,625,l)
);
},
{
closed = 1;
nodes = (
(495,375,l),
(495,500,l),
(250,500,l),
(250,375,l)
);
}
);
width = 750;
},
{
layerId = "15C0796C-B0F3-4225-BD6B-773C46650136";
shapes = (
{
closed = 1;
nodes = (
(625,625,l),
(625,500,l),
(750,500,l),
(750,375,l),
(625,375,l),
(625,250,l),
(375,250,l),
(375,0,l),
(125,0,l),
(125,625,l)
);
},
{
closed = 1;
nodes = (
(495,375,l),
(495,500,l),
(375,500,l),
(375,375,l)
);
}
);
width = 875;
}
);
note = P;
unicode = 80;
},
{
glyphname = Q;
lastChange = "2022-06-09 09:49:02 +0000";
layers = (
{
layerId = m01;
shapes = (
{
closed = 1;
nodes = (
(125,125,l),
(125,500,l),
(250,500,l),
(250,625,l),
(500,625,l),
(500,500,l),
(625,500,l),
(625,125,l),
(500,125,l),
(500,0,l),
(625,0,l),
(625,-125,l),
(500,-125,l),
(500,0,l),
(250,0,l),
(250,125,l)
);
},
{
closed = 1;
nodes = (
(500,130,l),
(500,495,l),
(250,495,l),
(250,130,l)
);
}
);
width = 750;
},
{
layerId = "15C0796C-B0F3-4225-BD6B-773C46650136";
shapes = (
{
closed = 1;
nodes = (
(125,125,l),
(125,500,l),
(250,500,l),
(250,625,l),
(625,625,l),
(625,500,l),
(750,500,l),
(750,125,l),
(625,125,l),
(625,0,l),
(750,0,l),
(750,-125,l),
(500,-125,l),
(500,0,l),
(250,0,l),
(250,125,l)
);
},
{
closed = 1;
nodes = (
(375,125,l),
(500,125,l),
(500,500,l),
(375,500,l)
);
}
);
width = 875;
}
);
note = Q;
unicode = 81;
},
{
glyphname = R;
lastChange = "2022-06-09 09:49:02 +0000";
layers = (
{
layerId = m01;
shapes = (
{
closed = 1;
nodes = (
(500,625,l),
(500,500,l),
(625,500,l),
(625,375,l),
(500,375,l),
(500,125,l),
(625,125,l),
(625,0,l),
(500,0,l),
(500,125,l),
(375,125,l),
(375,250,l),
(250,250,l),
(250,0,l),
(125,0,l),
(125,625,l)
);
},
{
closed = 1;
nodes = (
(495,375,l),
(495,500,l),
(250,500,l),
(250,375,l)
);
}
);
width = 750;
},
{
layerId = "15C0796C-B0F3-4225-BD6B-773C46650136";
shapes = (
{
closed = 1;
nodes = (
(625,625,l),
(625,500,l),
(750,500,l),
(750,375,l),
(625,375,l),
(625,125,l),
(750,125,l),
(750,0,l),
(500,0,l),
(500,125,l),
(375,125,l),
(375,0,l),
(125,0,l),
(125,625,l)
);
},
{
closed = 1;
nodes = (
(375,375,l),
(500,375,l),
(500,500,l),
(375,500,l)
);
}
);
width = 875;
}
);
note = R;
unicode = 82;
},
{
glyphname = S;
lastChange = "2022-06-09 09:49:02 +0000";
layers = (
{
layerId = m01;
shapes = (
{
closed = 1;
nodes = (
(500,250,l),
(250,250,l),
(250,375,l),
(125,375,l),
(125,500,l),
(250,500,l),
(250,375,l),
(500,375,l),
(500,250,l),
(625,250,l),
(625,125,l),
(500,125,l)
);
},
{
closed = 1;
nodes = (
(500,125,l),
(500,0,l),
(125,0,l),
(125,125,l)
);
},
{
closed = 1;
nodes = (
(250,625,l),
(625,625,l),
(625,500,l),
(250,500,l)
);
}
);
width = 750;
},
{
layerId = "15C0796C-B0F3-4225-BD6B-773C46650136";
shapes = (
{
closed = 1;
nodes = (
(500,125,l),
(500,250,l),
(250,250,l),
(250,375,l),
(125,375,l),
(125,500,l),
(250,500,l),
(250,625,l),
(750,625,l),
(750,500,l),
(375,500,l),
(375,375,l),
(625,375,l),
(625,250,l),
(750,250,l),
(750,125,l),
(625,125,l),
(625,0,l),
(125,0,l),
(125,125,l)
);
}
);
width = 875;
}
);
note = S;
unicode = 83;
},
{
glyphname = T;
lastChange = "2022-06-09 09:49:02 +0000";
layers = (
{
layerId = m01;
shapes = (
{
closed = 1;
nodes = (
(125,500,l),
(125,625,l),
(500,625,l),
(500,500,l),
(375,500,l),
(375,0,l),
(250,0,l),
(250,500,l)
);
}
);
width = 625;
},
{
layerId = "15C0796C-B0F3-4225-BD6B-773C46650136";
shapes = (
{
closed = 1;
nodes = (
(125,500,l),
(125,625,l),
(625,625,l),
(625,500,l),
(500,500,l),
(500,0,l),
(250,0,l),
(250,500,l)
);
}
);
width = 750;
}
);
note = T;
unicode = 84;
},
{
glyphname = U;
lastChange = "2022-06-09 09:49:02 +0000";
layers = (
{
layerId = m01;
shapes = (
{
closed = 1;
nodes = (
(125,125,l),
(125,625,l),
(250,625,l),
(250,125,l),
(500,125,l),
(500,0,l),
(250,0,l),
(250,125,l)
);
},
{
closed = 1;
nodes = (
(500,625,l),
(625,625,l),
(625,125,l),
(500,125,l)
);
}
);
width = 750;
},
{
layerId = "15C0796C-B0F3-4225-BD6B-773C46650136";
shapes = (
{
closed = 1;
nodes = (
(125,125,l),
(125,625,l),
(375,625,l),
(375,125,l),
(500,125,l),
(500,625,l),
(750,625,l),
(750,125,l),
(625,125,l),
(625,0,l),
(250,0,l),
(250,125,l)
);
}
);
width = 875;
}
);
note = U;
unicode = 85;
},
{
glyphname = V;
lastChange = "2022-06-09 09:49:02 +0000";
layers = (
{
layerId = m01;
shapes = (
{
closed = 1;
nodes = (
(250,125,l),
(250,375,l),
(125,375,l),
(125,625,l),
(250,625,l),
(250,375,l),
(375,375,l),
(375,125,l),
(500,125,l),
(500,0,l),
(375,0,l),
(375,125,l)
);
},
{
closed = 1;
nodes = (
(500,375,l),
(625,375,l),
(625,125,l),
(500,125,l)
);
},
{
closed = 1;
nodes = (
(625,625,l),
(750,625,l),
(750,375,l),
(625,375,l)
);
}
);
width = 875;
},
{
layerId = "15C0796C-B0F3-4225-BD6B-773C46650136";
shapes = (
{
closed = 1;
nodes = (
(250,125,l),
(250,375,l),
(125,375,l),
(125,625,l),
(375,625,l),
(375,375,l),
(625,375,l),
(625,625,l),
(875,625,l),
(875,375,l),
(750,375,l),
(750,125,l),
(625,125,l),
(625,0,l),
(375,0,l),
(375,125,l)
);
}
);
width = 1000;
}
);
note = V;
unicode = 86;
},
{
glyphname = W;
lastChange = "2022-06-09 09:49:02 +0000";
layers = (
{
layerId = m01;
shapes = (
{
closed = 1;
nodes = (
(125,125,l),
(125,625,l),
(250,625,l),
(250,125,l),
(375,125,l),
(375,0,l),
(250,0,l),
(250,125,l)
);
},
{
closed = 1;
nodes = (
(625,625,l),
(750,625,l),
(750,125,l),
(625,125,l)
);
},
{
closed = 1;
nodes = (
(375,500,l),
(500,500,l),
(500,125,l),
(625,125,l),
(625,0,l),
(500,0,l),
(500,125,l),
(375,125,l)
);
}
);
width = 875;
},
{
layerId = "15C0796C-B0F3-4225-BD6B-773C46650136";
shapes = (
{
closed = 1;
nodes = (
(125,125,l),
(125,625,l),
(375,625,l),
(375,500,l),
(625,500,l),
(625,625,l),
(875,625,l),
(875,125,l),
(750,125,l),
(750,0,l),
(250,0,l),
(250,125,l)
);
}
);
width = 1000;
}
);
note = W;
unicode = 87;
},
{
glyphname = X;
lastChange = "2022-06-09 09:49:02 +0000";
layers = (
{
layerId = m01;
shapes = (
{
closed = 1;
nodes = (
(375,375,l),
(250,375,l),
(250,500,l),
(125,500,l),
(125,625,l),
(250,625,l),
(250,500,l),
(375,500,l),
(375,375,l),
(500,375,l),
(500,250,l),
(625,250,l),
(625,125,l),
(750,125,l),
(750,0,l),
(625,0,l),
(625,125,l),
(500,125,l),
(500,250,l),
(375,250,l)
);
},
{
closed = 1;
nodes = (
(500,500,l),
(625,500,l),
(625,625,l),
(750,625,l),
(750,500,l),
(625,500,l),
(625,375,l),
(500,375,l)
);
},
{
closed = 1;
nodes = (
(250,125,l),
(250,0,l),
(125,0,l),
(125,125,l)
);
},
{
closed = 1;
nodes = (
(250,250,l),
(375,250,l),
(375,125,l),
(250,125,l)
);
}
);
width = 875;
},
{
layerId = "15C0796C-B0F3-4225-BD6B-773C46650136";
shapes = (
{
closed = 1;
nodes = (
(250,125,l),
(250,250,l),
(375,250,l),
(375,375,l),
(250,375,l),
(250,500,l),
(125,500,l),
(125,625,l),
(375,625,l),
(375,500,l),
(625,500,l),
(625,625,l),
(875,625,l),
(875,500,l),
(750,500,l),
(750,375,l),
(625,375,l),
(625,250,l),
(750,250,l),
(750,125,l),
(875,125,l),
(875,0,l),
(625,0,l),
(625,125,l),
(375,125,l),
(375,0,l),
(125,0,l),
(125,125,l)
);
}
);
width = 1000;
}
);
note = X;
unicode = 88;
},
{
glyphname = Y;
lastChange = "2022-06-09 09:49:02 +0000";
layers = (
{
layerId = m01;
shapes = (
{
closed = 1;
nodes = (
(250,375,l),
(250,500,l),
(125,500,l),
(125,625,l),
(250,625,l),
(250,500,l),
(375,500,l),
(375,375,l),
(500,375,l),
(500,0,l),
(375,0,l),
(375,375,l)
);
},
{
closed = 1;
nodes = (
(500,500,l),
(625,500,l),
(625,375,l),
(500,375,l)
);
},
{
closed = 1;
nodes = (
(625,625,l),
(750,625,l),
(750,500,l),
(625,500,l)
);
}
);
width = 875;
},
{
layerId = "15C0796C-B0F3-4225-BD6B-773C46650136";
shapes = (
{
closed = 1;
nodes = (
(250,375,l),
(250,500,l),
(125,500,l),
(125,625,l),
(375,625,l),
(375,500,l),
(625,500,l),
(625,625,l),
(875,625,l),
(875,500,l),
(750,500,l),
(750,375,l),
(625,375,l),
(625,0,l),
(375,0,l),
(375,375,l)
);
}
);
width = 1000;
}
);
note = Y;
unicode = 89;
},
{
glyphname = Z;
lastChange = "2022-06-09 09:49:02 +0000";
layers = (
{
layerId = m01;
shapes = (
{
closed = 1;
nodes = (
(250,250,l),
(250,125,l),
(500,125,l),
(500,0,l),
(125,0,l),
(125,250,l)
);
},
{
closed = 1;
nodes = (
(375,500,l),
(125,500,l),
(125,625,l),
(500,625,l),
(500,375,l),
(375,375,l)
);
},
{
closed = 1;
nodes = (
(250,375,l),
(375,375,l),
(375,250,l),
(250,250,l)
);
}
);
width = 625;
},
{
layerId = "15C0796C-B0F3-4225-BD6B-773C46650136";
shapes = (
{
closed = 1;
nodes = (
(250,250,l),
(250,375,l),
(375,375,l),
(375,500,l),
(125,500,l),
(125,625,l),
(625,625,l),
(625,375,l),
(500,375,l),
(500,250,l),
(375,250,l),
(375,125,l),
(625,125,l),
(625,0,l),
(125,0,l),
(125,250,l)
);
}
);
width = 750;
}
);
note = Z;
unicode = 90;
},
{
glyphname = bracketleft;
lastChange = "2022-06-09 09:49:02 +0000";
layers = (
{
layerId = m01;
shapes = (
{
closed = 1;
nodes = (
(125,625,l),
(375,625,l),
(375,500,l),
(250,500,l),
(250,125,l),
(375,125,l),
(375,0,l),
(125,0,l)
);
}
);
width = 500;
},
{
layerId = "15C0796C-B0F3-4225-BD6B-773C46650136";
shapes = (
{
closed = 1;
nodes = (
(125,625,l),
(500,625,l),
(500,500,l),
(375,500,l),
(375,125,l),
(500,125,l),
(500,0,l),
(125,0,l)
);
}
);
width = 625;
}
);
note = bracketleft;
unicode = 91;
},
{
glyphname = backslash;
lastChange = "2022-06-09 09:49:02 +0000";
layers = (
{
layerId = m01;
shapes = (
{
closed = 1;
nodes = (
(250,250,l),
(250,375,l),
(125,375,l),
(125,625,l),
(250,625,l),
(250,375,l),
(375,375,l),
(375,250,l),
(500,250,l),
(500,0,l),
(375,0,l),
(375,250,l)
);
}
);
width = 625;
},
{
layerId = "15C0796C-B0F3-4225-BD6B-773C46650136";
shapes = (
{
closed = 1;
nodes = (
(250,250,l),
(250,375,l),
(125,375,l),
(125,625,l),
(375,625,l),
(375,375,l),
(500,375,l),
(500,250,l),
(625,250,l),
(625,0,l),
(375,0,l),
(375,250,l)
);
}
);
width = 750;
}
);
note = backslash;
unicode = 92;
},
{
glyphname = bracketright;
lastChange = "2022-06-09 09:49:02 +0000";
layers = (
{
layerId = m01;
shapes = (
{
closed = 1;
nodes = (
(250,125,l),
(250,500,l),
(125,500,l),
(125,625,l),
(375,625,l),
(375,0,l),
(125,0,l),
(125,125,l)
);
}
);
width = 500;
},
{
layerId = "15C0796C-B0F3-4225-BD6B-773C46650136";
shapes = (
{
closed = 1;
nodes = (
(250,125,l),
(250,500,l),
(125,500,l),
(125,625,l),
(500,625,l),
(500,0,l),
(125,0,l),
(125,125,l)
);
}
);
width = 625;
}
);
note = bracketright;
unicode = 93;
},
{
glyphname = asciicircum;
lastChange = "2022-06-09 09:49:02 +0000";
layers = (
{
layerId = m01;
shapes = (
{
closed = 1;
nodes = (
(250,625,l),
(250,750,l),
(375,750,l),
(375,625,l),
(500,625,l),
(500,500,l),
(375,500,l),
(375,625,l),
(250,625,l),
(250,500,l),
(125,500,l),
(125,625,l)
);
}
);
width = 625;
},
{
layerId = "15C0796C-B0F3-4225-BD6B-773C46650136";
shapes = (
{
closed = 1;
nodes = (
(250,625,l),
(250,750,l),
(500,750,l),
(500,625,l),
(625,625,l),
(625,500,l),
(125,500,l),
(125,625,l)
);
}
);
width = 750;
}
);
note = asciicircum;
unicode = 94;
},
{
glyphname = underscore;
lastChange = "2022-06-09 09:49:02 +0000";
layers = (
{
layerId = m01;
shapes = (
{
closed = 1;
nodes = (
(625,-125,l),
(125,-125,l),
(125,0,l),
(625,0,l)
);
}
);
width = 750;
},
{
layerId = "15C0796C-B0F3-4225-BD6B-773C46650136";
shapes = (
{
closed = 1;
nodes = (
(750,-125,l),
(125,-125,l),
(125,0,l),
(750,0,l)
);
}
);
width = 875;
}
);
note = underscore;
unicode = 95;
},
{
glyphname = grave;
lastChange = "2022-06-09 09:49:02 +0000";
layers = (
{
layerId = m01;
shapes = (
{
closed = 1;
nodes = (
(250,500,l),
(375,500,l),
(375,375,l),
(250,375,l),
(250,500,l),
(125,500,l),
(125,625,l),
(250,625,l)
);
}
);
width = 500;
},
{
layerId = "15C0796C-B0F3-4225-BD6B-773C46650136";
shapes = (
{
closed = 1;
nodes = (
(125,500,l),
(125,625,l),
(375,625,l),
(375,500,l),
(500,500,l),
(500,375,l),
(250,375,l),
(250,500,l)
);
}
);
width = 625;
}
);
note = grave;
unicode = 96;
},
{
glyphname = a;
lastChange = "2022-06-09 09:49:02 +0000";
layers = (
{
layerId = m01;
shapes = (
{
closed = 1;
nodes = (
(250,250,l),
(250,0,l),
(125,0,l),
(125,500,l),
(250,500,l),
(250,625,l),
(500,625,l),
(500,500,l),
(625,500,l),
(625,0,l),
(500,0,l),
(500,250,l)
);
},
{
closed = 1;
nodes = (
(500,495,l),
(250,495,l),
(250,375,l),
(500,375,l)
);
}
);
width = 750;
},
{
layerId = "15C0796C-B0F3-4225-BD6B-773C46650136";
shapes = (
{
closed = 1;
nodes = (
(375,250,l),
(375,0,l),
(125,0,l),
(125,500,l),
(250,500,l),
(250,625,l),
(625,625,l),
(625,500,l),
(750,500,l),
(750,0,l),
(500,0,l),
(500,250,l)
);
},
{
closed = 1;
nodes = (
(500,495,l),
(375,495,l),
(375,375,l),
(500,375,l)
);
}
);
width = 875;
}
);
note = a;
unicode = 97;
},
{
glyphname = b;
lastChange = "2022-06-09 09:49:02 +0000";
layers = (
{
layerId = m01;
shapes = (
{
closed = 1;
nodes = (
(500,625,l),
(500,500,l),
(625,500,l),
(625,125,l),
(500,125,l),
(500,0,l),
(125,0,l),
(125,625,l)
);
},
{
closed = 1;
nodes = (
(495,375,l),
(495,500,l),
(250,500,l),
(250,375,l)
);
},
{
closed = 1;
nodes = (
(495,125,l),
(495,250,l),
(250,250,l),
(250,125,l)
);
}
);
width = 750;
},
{
layerId = "15C0796C-B0F3-4225-BD6B-773C46650136";
shapes = (
{
closed = 1;
nodes = (
(625,625,l),
(625,500,l),
(750,500,l),
(750,125,l),
(625,125,l),
(625,0,l),
(125,0,l),
(125,625,l)
);
},
{
closed = 1;
nodes = (
(495,375,l),
(495,500,l),
(375,500,l),
(375,375,l)
);
},
{
closed = 1;
nodes = (
(495,125,l),
(495,250,l),
(375,250,l),
(375,125,l)
);
}
);
width = 875;
}
);
note = b;
unicode = 98;
},
{
glyphname = c;
lastChange = "2022-06-09 09:49:02 +0000";
layers = (
{
layerId = m01;
shapes = (
{
closed = 1;
nodes = (
(125,125,l),
(125,500,l),
(250,500,l),
(250,125,l),
(500,125,l),
(500,0,l),
(250,0,l),
(250,125,l)
);
},
{
closed = 1;
nodes = (
(250,625,l),
(500,625,l),
(500,500,l),
(625,500,l),
(625,375,l),
(500,375,l),
(500,500,l),
(250,500,l)
);
},
{
closed = 1;
nodes = (
(500,250,l),
(625,250,l),
(625,125,l),
(500,125,l)
);
}
);
width = 750;
},
{
layerId = "15C0796C-B0F3-4225-BD6B-773C46650136";
shapes = (
{
closed = 1;
nodes = (
(125,125,l),
(125,500,l),
(250,500,l),
(250,625,l),
(625,625,l),
(625,500,l),
(750,500,l),
(750,375,l),
(500,375,l),
(500,500,l),
(375,500,l),
(375,125,l),
(500,125,l),
(500,250,l),
(750,250,l),
(750,125,l),
(625,125,l),
(625,0,l),
(250,0,l),
(250,125,l)
);
}
);
width = 875;
}
);
note = c;
unicode = 99;
},
{
glyphname = d;
lastChange = "2022-06-09 09:49:02 +0000";
layers = (
{
layerId = m01;
shapes = (
{
closed = 1;
nodes = (
(125,625,l),
(500,625,l),
(500,500,l),
(625,500,l),
(625,125,l),
(500,125,l),
(500,0,l),
(125,0,l)
);
},
{
closed = 1;
nodes = (
(495,125,l),
(495,500,l),
(250,500,l),
(250,125,l)
);
}
);
width = 750;
},
{
layerId = "15C0796C-B0F3-4225-BD6B-773C46650136";
shapes = (
{
closed = 1;
nodes = (
(125,625,l),
(625,625,l),
(625,500,l),
(750,500,l),
(750,125,l),
(625,125,l),
(625,0,l),
(125,0,l)
);
},
{
closed = 1;
nodes = (
(495,125,l),
(495,500,l),
(375,500,l),
(375,125,l)
);
}
);
width = 875;
}
);
note = d;
unicode = 100;
},
{
glyphname = e;
lastChange = "2022-06-09 09:49:02 +0000";
layers = (
{
layerId = m01;
shapes = (
{
closed = 1;
nodes = (
(500,625,l),
(500,500,l),
(250,500,l),
(250,375,l),
(500,375,l),
(500,250,l),
(250,250,l),
(250,125,l),
(500,125,l),
(500,0,l),
(125,0,l),
(125,625,l)
);
}
);
width = 625;
},
{
layerId = "15C0796C-B0F3-4225-BD6B-773C46650136";
shapes = (
{
closed = 1;
nodes = (
(625,625,l),
(625,500,l),
(375,500,l),
(375,375,l),
(625,375,l),
(625,250,l),
(375,250,l),
(375,125,l),
(625,125,l),
(625,0,l),
(125,0,l),
(125,625,l)
);
}
);
width = 750;
}
);
note = e;
unicode = 101;
},
{
glyphname = f;
lastChange = "2022-06-09 09:49:02 +0000";
layers = (
{
layerId = m01;
shapes = (
{
closed = 1;
nodes = (
(500,625,l),
(500,500,l),
(250,500,l),
(250,375,l),
(500,375,l),
(500,250,l),
(250,250,l),
(250,0,l),
(125,0,l),
(125,625,l)
);
}
);
width = 625;
},
{
layerId = "15C0796C-B0F3-4225-BD6B-773C46650136";
shapes = (
{
closed = 1;
nodes = (
(625,625,l),
(625,500,l),
(375,500,l),
(375,375,l),
(625,375,l),
(625,250,l),
(375,250,l),
(375,0,l),
(125,0,l),
(125,625,l)
);
}
);
width = 750;
}
);
note = f;
unicode = 102;
},
{
glyphname = g;
lastChange = "2022-06-09 09:49:02 +0000";
layers = (
{
layerId = m01;
shapes = (
{
closed = 1;
nodes = (
(500,250,l),
(375,250,l),
(375,375,l),
(625,375,l),
(625,125,l),
(500,125,l)
);
},
{
closed = 1;
nodes = (
(250,625,l),
(625,625,l),
(625,500,l),
(250,500,l)
);
},
{
closed = 1;
nodes = (
(125,125,l),
(125,500,l),
(250,500,l),
(250,125,l)
);
},
{
closed = 1;
nodes = (
(500,125,l),
(500,0,l),
(250,0,l),
(250,125,l)
);
}
);
width = 750;
},
{
layerId = "15C0796C-B0F3-4225-BD6B-773C46650136";
shapes = (
{
closed = 1;
nodes = (
(125,125,l),
(125,500,l),
(250,500,l),
(250,625,l),
(750,625,l),
(750,500,l),
(375,500,l),
(375,125,l),
(500,125,l),
(500,375,l),
(750,375,l),
(750,125,l),
(625,125,l),
(625,0,l),
(250,0,l),
(250,125,l)
);
}
);
width = 875;
}
);
note = g;
unicode = 103;
},
{
glyphname = h;
lastChange = "2022-06-09 09:49:02 +0000";
layers = (
{
layerId = m01;
shapes = (
{
closed = 1;
nodes = (
(250,250,l),
(250,0,l),
(125,0,l),
(125,625,l),
(250,625,l),
(250,375,l),
(500,375,l),
(500,625,l),
(625,625,l),
(625,0,l),
(500,0,l),
(500,250,l)
);
}
);
width = 750;
},
{
layerId = "15C0796C-B0F3-4225-BD6B-773C46650136";
shapes = (
{
closed = 1;
nodes = (
(375,250,l),
(375,0,l),
(125,0,l),
(125,625,l),
(375,625,l),
(375,375,l),
(500,375,l),
(500,625,l),
(750,625,l),
(750,0,l),
(500,0,l),
(500,250,l)
);
}
);
width = 875;
}
);
note = h;
unicode = 104;
},
{
glyphname = i;
lastChange = "2022-06-09 09:49:02 +0000";
layers = (
{
layerId = m01;
shapes = (
{
closed = 1;
nodes = (
(250,625,l),
(250,0,l),
(125,0,l),
(125,625,l)
);
}
);
width = 375;
},
{
layerId = "15C0796C-B0F3-4225-BD6B-773C46650136";
shapes = (
{
closed = 1;
nodes = (
(375,625,l),
(375,0,l),
(125,0,l),
(125,625,l)
);
}
);
width = 500;
}
);
note = i;
unicode = 105;
},
{
glyphname = j;
lastChange = "2022-06-09 09:49:02 +0000";
layers = (
{
layerId = m01;
shapes = (
{
closed = 1;
nodes = (
(500,625,l),
(625,625,l),
(625,125,l),
(500,125,l)
);
},
{
closed = 1;
nodes = (
(125,125,l),
(125,250,l),
(250,250,l),
(250,125,l),
(500,125,l),
(500,0,l),
(250,0,l),
(250,125,l)
);
}
);
width = 750;
},
{
layerId = "15C0796C-B0F3-4225-BD6B-773C46650136";
shapes = (
{
closed = 1;
nodes = (
(125,125,l),
(125,250,l),
(375,250,l),
(375,125,l),
(500,125,l),
(500,625,l),
(750,625,l),
(750,125,l),
(625,125,l),
(625,0,l),
(250,0,l),
(250,125,l)
);
}
);
width = 875;
}
);
note = j;
unicode = 106;
},
{
glyphname = k;
lastChange = "2022-06-09 09:49:02 +0000";
layers = (
{
layerId = m01;
shapes = (
{
closed = 1;
nodes = (
(125,625,l),
(250,625,l),
(250,375,l),
(375,375,l),
(375,250,l),
(500,250,l),
(500,125,l),
(625,125,l),
(625,0,l),
(500,0,l),
(500,125,l),
(375,125,l),
(375,250,l),
(250,250,l),
(250,0,l),
(125,0,l)
);
},
{
closed = 1;
nodes = (
(375,500,l),
(500,500,l),
(500,375,l),
(375,375,l)
);
},
{
closed = 1;
nodes = (
(500,625,l),
(625,625,l),
(625,500,l),
(500,500,l)
);
}
);
width = 750;
},
{
layerId = "15C0796C-B0F3-4225-BD6B-773C46650136";
shapes = (
{
closed = 1;
nodes = (
(375,625,l),
(375,500,l),
(500,500,l),
(500,625,l),
(750,625,l),
(750,500,l),
(625,500,l),
(625,375,l),
(500,375,l),
(500,250,l),
(625,250,l),
(625,125,l),
(750,125,l),
(750,0,l),
(500,0,l),
(500,125,l),
(375,125,l),
(375,0,l),
(125,0,l),
(125,625,l)
);
}
);
width = 875;
}
);
note = k;
unicode = 107;
},
{
glyphname = l;
lastChange = "2022-06-09 09:49:02 +0000";
layers = (
{
layerId = m01;
shapes = (
{
closed = 1;
nodes = (
(250,625,l),
(250,125,l),
(500,125,l),
(500,0,l),
(125,0,l),
(125,625,l)
);
}
);
width = 625;
},
{
layerId = "15C0796C-B0F3-4225-BD6B-773C46650136";
shapes = (
{
closed = 1;
nodes = (
(375,625,l),
(375,125,l),
(625,125,l),
(625,0,l),
(125,0,l),
(125,625,l)
);
}
);
width = 750;
}
);
note = l;
unicode = 108;
},
{
glyphname = m;
lastChange = "2022-06-09 09:49:02 +0000";
layers = (
{
layerId = m01;
shapes = (
{
closed = 1;
nodes = (
(250,625,l),
(250,500,l),
(375,500,l),
(375,375,l),
(500,375,l),
(500,250,l),
(375,250,l),
(375,375,l),
(250,375,l),
(250,0,l),
(125,0,l),
(125,625,l)
);
},
{
closed = 1;
nodes = (
(500,500,l),
(625,500,l),
(625,625,l),
(750,625,l),
(750,0,l),
(625,0,l),
(625,375,l),
(500,375,l)
);
}
);
width = 875;
},
{
layerId = "15C0796C-B0F3-4225-BD6B-773C46650136";
shapes = (
{
closed = 1;
nodes = (
(375,625,l),
(375,500,l),
(625,500,l),
(625,625,l),
(875,625,l),
(875,0,l),
(625,0,l),
(625,250,l),
(375,250,l),
(375,0,l),
(125,0,l),
(125,625,l)
);
}
);
width = 1000;
}
);
note = m;
unicode = 109;
},
{
glyphname = n;
lastChange = "2022-06-09 09:49:02 +0000";
layers = (
{
layerId = m01;
shapes = (
{
closed = 1;
nodes = (
(250,625,l),
(250,500,l),
(375,500,l),
(375,375,l),
(500,375,l),
(500,250,l),
(625,250,l),
(625,625,l),
(750,625,l),
(750,0,l),
(625,0,l),
(625,125,l),
(500,125,l),
(500,250,l),
(375,250,l),
(375,375,l),
(250,375,l),
(250,0,l),
(125,0,l),
(125,625,l)
);
}
);
width = 875;
},
{
layerId = "15C0796C-B0F3-4225-BD6B-773C46650136";
shapes = (
{
closed = 1;
nodes = (
(375,625,l),
(375,500,l),
(500,500,l),
(500,375,l),
(625,375,l),
(625,625,l),
(875,625,l),
(875,0,l),
(625,0,l),
(625,125,l),
(500,125,l),
(500,250,l),
(375,250,l),
(375,0,l),
(125,0,l),
(125,625,l)
);
}
);
width = 1000;
}
);
note = n;
unicode = 110;
},
{
glyphname = o;
lastChange = "2022-06-09 09:49:02 +0000";
layers = (
{
layerId = m01;
shapes = (
{
closed = 1;
nodes = (
(250,500,l),
(250,625,l),
(500,625,l),
(500,500,l),
(625,500,l),
(625,125,l),
(500,125,l),
(500,0,l),
(250,0,l),
(250,125,l),
(125,125,l),
(125,500,l)
);
},
{
closed = 1;
nodes = (
(500,130,l),
(500,495,l),
(250,495,l),
(250,130,l)
);
}
);
width = 750;
},
{
layerId = "15C0796C-B0F3-4225-BD6B-773C46650136";
shapes = (
{
closed = 1;
nodes = (
(250,500,l),
(250,625,l),
(625,625,l),
(625,500,l),
(750,500,l),
(750,125,l),
(625,125,l),
(625,0,l),
(250,0,l),
(250,125,l),
(125,125,l),
(125,500,l)
);
},
{
closed = 1;
nodes = (
(500,130,l),
(500,495,l),
(375,495,l),
(375,130,l)
);
}
);
width = 875;
}
);
note = o;
unicode = 111;
},
{
glyphname = p;
lastChange = "2022-06-09 09:49:02 +0000";
layers = (
{
layerId = m01;
shapes = (
{
closed = 1;
nodes = (
(500,625,l),
(500,500,l),
(625,500,l),
(625,375,l),
(500,375,l),
(500,250,l),
(250,250,l),
(250,0,l),
(125,0,l),
(125,625,l)
);
},
{
closed = 1;
nodes = (
(495,375,l),
(495,500,l),
(250,500,l),
(250,375,l)
);
}
);
width = 750;
},
{
layerId = "15C0796C-B0F3-4225-BD6B-773C46650136";
shapes = (
{
closed = 1;
nodes = (
(625,625,l),
(625,500,l),
(750,500,l),
(750,375,l),
(625,375,l),
(625,250,l),
(375,250,l),
(375,0,l),
(125,0,l),
(125,625,l)
);
},
{
closed = 1;
nodes = (
(495,375,l),
(495,500,l),
(375,500,l),
(375,375,l)
);
}
);
width = 875;
}
);
note = p;
unicode = 112;
},
{
glyphname = q;
lastChange = "2022-06-09 09:49:02 +0000";
layers = (
{
layerId = m01;
shapes = (
{
closed = 1;
nodes = (
(125,125,l),
(125,500,l),
(250,500,l),
(250,625,l),
(500,625,l),
(500,500,l),
(625,500,l),
(625,125,l),
(500,125,l),
(500,0,l),
(625,0,l),
(625,-125,l),
(500,-125,l),
(500,0,l),
(250,0,l),
(250,125,l)
);
},
{
closed = 1;
nodes = (
(500,130,l),
(500,495,l),
(250,495,l),
(250,130,l)
);
}
);
width = 750;
},
{
layerId = "15C0796C-B0F3-4225-BD6B-773C46650136";
shapes = (
{
closed = 1;
nodes = (
(125,125,l),
(125,500,l),
(250,500,l),
(250,625,l),
(625,625,l),
(625,500,l),
(750,500,l),
(750,125,l),
(625,125,l),
(625,0,l),
(750,0,l),
(750,-125,l),
(500,-125,l),
(500,0,l),
(250,0,l),
(250,125,l)
);
},
{
closed = 1;
nodes = (
(375,125,l),
(500,125,l),
(500,500,l),
(375,500,l)
);
}
);
width = 875;
}
);
note = q;
unicode = 113;
},
{
glyphname = r;
lastChange = "2022-06-09 09:49:02 +0000";
layers = (
{
layerId = m01;
shapes = (
{
closed = 1;
nodes = (
(500,625,l),
(500,500,l),
(625,500,l),
(625,375,l),
(500,375,l),
(500,125,l),
(625,125,l),
(625,0,l),
(500,0,l),
(500,125,l),
(375,125,l),
(375,250,l),
(250,250,l),
(250,0,l),
(125,0,l),
(125,625,l)
);
},
{
closed = 1;
nodes = (
(495,375,l),
(495,500,l),
(250,500,l),
(250,375,l)
);
}
);
width = 750;
},
{
layerId = "15C0796C-B0F3-4225-BD6B-773C46650136";
shapes = (
{
closed = 1;
nodes = (
(625,625,l),
(625,500,l),
(750,500,l),
(750,375,l),
(625,375,l),
(625,125,l),
(750,125,l),
(750,0,l),
(500,0,l),
(500,125,l),
(375,125,l),
(375,0,l),
(125,0,l),
(125,625,l)
);
},
{
closed = 1;
nodes = (
(375,375,l),
(500,375,l),
(500,500,l),
(375,500,l)
);
}
);
width = 875;
}
);
note = r;
unicode = 114;
},
{
glyphname = s;
lastChange = "2022-06-09 09:49:02 +0000";
layers = (
{
layerId = m01;
shapes = (
{
closed = 1;
nodes = (
(500,250,l),
(250,250,l),
(250,375,l),
(125,375,l),
(125,500,l),
(250,500,l),
(250,375,l),
(500,375,l),
(500,250,l),
(625,250,l),
(625,125,l),
(500,125,l)
);
},
{
closed = 1;
nodes = (
(500,125,l),
(500,0,l),
(125,0,l),
(125,125,l)
);
},
{
closed = 1;
nodes = (
(250,625,l),
(625,625,l),
(625,500,l),
(250,500,l)
);
}
);
width = 750;
},
{
layerId = "15C0796C-B0F3-4225-BD6B-773C46650136";
shapes = (
{
closed = 1;
nodes = (
(500,125,l),
(500,250,l),
(250,250,l),
(250,375,l),
(125,375,l),
(125,500,l),
(250,500,l),
(250,625,l),
(750,625,l),
(750,500,l),
(375,500,l),
(375,375,l),
(625,375,l),
(625,250,l),
(750,250,l),
(750,125,l),
(625,125,l),
(625,0,l),
(125,0,l),
(125,125,l)
);
}
);
width = 875;
}
);
note = s;
unicode = 115;
},
{
glyphname = t;
lastChange = "2022-06-09 09:49:02 +0000";
layers = (
{
layerId = m01;
shapes = (
{
closed = 1;
nodes = (
(125,500,l),
(125,625,l),
(500,625,l),
(500,500,l),
(375,500,l),
(375,0,l),
(250,0,l),
(250,500,l)
);
}
);
width = 625;
},
{
layerId = "15C0796C-B0F3-4225-BD6B-773C46650136";
shapes = (
{
closed = 1;
nodes = (
(125,500,l),
(125,625,l),
(625,625,l),
(625,500,l),
(500,500,l),
(500,0,l),
(250,0,l),
(250,500,l)
);
}
);
width = 750;
}
);
note = t;
unicode = 116;
},
{
glyphname = u;
lastChange = "2022-06-09 09:49:02 +0000";
layers = (
{
layerId = m01;
shapes = (
{
closed = 1;
nodes = (
(125,125,l),
(125,625,l),
(250,625,l),
(250,125,l),
(500,125,l),
(500,0,l),
(250,0,l),
(250,125,l)
);
},
{
closed = 1;
nodes = (
(500,625,l),
(625,625,l),
(625,125,l),
(500,125,l)
);
}
);
width = 750;
},
{
layerId = "15C0796C-B0F3-4225-BD6B-773C46650136";
shapes = (
{
closed = 1;
nodes = (
(125,125,l),
(125,625,l),
(375,625,l),
(375,125,l),
(500,125,l),
(500,625,l),
(750,625,l),
(750,125,l),
(625,125,l),
(625,0,l),
(250,0,l),
(250,125,l)
);
}
);
width = 875;
}
);
note = u;
unicode = 117;
},
{
glyphname = v;
lastChange = "2022-06-09 09:49:02 +0000";
layers = (
{
layerId = m01;
shapes = (
{
closed = 1;
nodes = (
(250,125,l),
(250,375,l),
(125,375,l),
(125,625,l),
(250,625,l),
(250,375,l),
(375,375,l),
(375,125,l),
(500,125,l),
(500,0,l),
(375,0,l),
(375,125,l)
);
},
{
closed = 1;
nodes = (
(500,375,l),
(625,375,l),
(625,125,l),
(500,125,l)
);
},
{
closed = 1;
nodes = (
(625,625,l),
(750,625,l),
(750,375,l),
(625,375,l)
);
}
);
width = 875;
},
{
layerId = "15C0796C-B0F3-4225-BD6B-773C46650136";
shapes = (
{
closed = 1;
nodes = (
(250,125,l),
(250,375,l),
(125,375,l),
(125,625,l),
(375,625,l),
(375,375,l),
(625,375,l),
(625,625,l),
(875,625,l),
(875,375,l),
(750,375,l),
(750,125,l),
(625,125,l),
(625,0,l),
(375,0,l),
(375,125,l)
);
}
);
width = 1000;
}
);
note = v;
unicode = 118;
},
{
glyphname = w;
lastChange = "2022-06-09 09:49:02 +0000";
layers = (
{
layerId = m01;
shapes = (
{
closed = 1;
nodes = (
(125,125,l),
(125,625,l),
(250,625,l),
(250,125,l),
(375,125,l),
(375,0,l),
(250,0,l),
(250,125,l)
);
},
{
closed = 1;
nodes = (
(625,625,l),
(750,625,l),
(750,125,l),
(625,125,l)
);
},
{
closed = 1;
nodes = (
(375,500,l),
(500,500,l),
(500,125,l),
(625,125,l),
(625,0,l),
(500,0,l),
(500,125,l),
(375,125,l)
);
}
);
width = 875;
},
{
layerId = "15C0796C-B0F3-4225-BD6B-773C46650136";
shapes = (
{
closed = 1;
nodes = (
(125,125,l),
(125,625,l),
(375,625,l),
(375,500,l),
(625,500,l),
(625,625,l),
(875,625,l),
(875,125,l),
(750,125,l),
(750,0,l),
(250,0,l),
(250,125,l)
);
}
);
width = 1000;
}
);
note = w;
unicode = 119;
},
{
glyphname = x;
lastChange = "2022-06-09 09:49:02 +0000";
layers = (
{
layerId = m01;
shapes = (
{
closed = 1;
nodes = (
(375,375,l),
(250,375,l),
(250,500,l),
(125,500,l),
(125,625,l),
(250,625,l),
(250,500,l),
(375,500,l),
(375,375,l),
(500,375,l),
(500,250,l),
(625,250,l),
(625,125,l),
(750,125,l),
(750,0,l),
(625,0,l),
(625,125,l),
(500,125,l),
(500,250,l),
(375,250,l)
);
},
{
closed = 1;
nodes = (
(500,500,l),
(625,500,l),
(625,625,l),
(750,625,l),
(750,500,l),
(625,500,l),
(625,375,l),
(500,375,l)
);
},
{
closed = 1;
nodes = (
(250,125,l),
(250,0,l),
(125,0,l),
(125,125,l)
);
},
{
closed = 1;
nodes = (
(250,250,l),
(375,250,l),
(375,125,l),
(250,125,l)
);
}
);
width = 875;
},
{
layerId = "15C0796C-B0F3-4225-BD6B-773C46650136";
shapes = (
{
closed = 1;
nodes = (
(250,125,l),
(250,250,l),
(375,250,l),
(375,375,l),
(250,375,l),
(250,500,l),
(125,500,l),
(125,625,l),
(375,625,l),
(375,500,l),
(625,500,l),
(625,625,l),
(875,625,l),
(875,500,l),
(750,500,l),
(750,375,l),
(625,375,l),
(625,250,l),
(750,250,l),
(750,125,l),
(875,125,l),
(875,0,l),
(625,0,l),
(625,125,l),
(375,125,l),
(375,0,l),
(125,0,l),
(125,125,l)
);
}
);
width = 1000;
}
);
note = x;
unicode = 120;
},
{
glyphname = y;
lastChange = "2022-06-09 09:49:02 +0000";
layers = (
{
layerId = m01;
shapes = (
{
closed = 1;
nodes = (
(250,375,l),
(250,500,l),
(125,500,l),
(125,625,l),
(250,625,l),
(250,500,l),
(375,500,l),
(375,375,l),
(500,375,l),
(500,0,l),
(375,0,l),
(375,375,l)
);
},
{
closed = 1;
nodes = (
(500,500,l),
(625,500,l),
(625,375,l),
(500,375,l)
);
},
{
closed = 1;
nodes = (
(625,625,l),
(750,625,l),
(750,500,l),
(625,500,l)
);
}
);
width = 875;
},
{
layerId = "15C0796C-B0F3-4225-BD6B-773C46650136";
shapes = (
{
closed = 1;
nodes = (
(250,375,l),
(250,500,l),
(125,500,l),
(125,625,l),
(375,625,l),
(375,500,l),
(625,500,l),
(625,625,l),
(875,625,l),
(875,500,l),
(750,500,l),
(750,375,l),
(625,375,l),
(625,0,l),
(375,0,l),
(375,375,l)
);
}
);
width = 1000;
}
);
note = y;
unicode = 121;
},
{
glyphname = z;
lastChange = "2022-06-09 09:49:02 +0000";
layers = (
{
layerId = m01;
shapes = (
{
closed = 1;
nodes = (
(250,250,l),
(250,125,l),
(500,125,l),
(500,0,l),
(125,0,l),
(125,250,l)
);
},
{
closed = 1;
nodes = (
(375,500,l),
(125,500,l),
(125,625,l),
(500,625,l),
(500,375,l),
(375,375,l)
);
},
{
closed = 1;
nodes = (
(250,375,l),
(375,375,l),
(375,250,l),
(250,250,l)
);
}
);
width = 625;
},
{
layerId = "15C0796C-B0F3-4225-BD6B-773C46650136";
shapes = (
{
closed = 1;
nodes = (
(250,250,l),
(250,375,l),
(375,375,l),
(375,500,l),
(125,500,l),
(125,625,l),
(625,625,l),
(625,375,l),
(500,375,l),
(500,250,l),
(375,250,l),
(375,125,l),
(625,125,l),
(625,0,l),
(125,0,l),
(125,250,l)
);
}
);
width = 750;
}
);
note = z;
unicode = 122;
},
{
glyphname = braceleft;
lastChange = "2022-06-09 09:49:02 +0000";
layers = (
{
layerId = m01;
shapes = (
{
closed = 1;
nodes = (
(125,250,l),
(125,375,l),
(250,375,l),
(250,625,l),
(500,625,l),
(500,500,l),
(375,500,l),
(375,375,l),
(250,375,l),
(250,250,l),
(375,250,l),
(375,125,l),
(500,125,l),
(500,0,l),
(250,0,l),
(250,250,l)
);
}
);
width = 625;
},
{
layerId = "15C0796C-B0F3-4225-BD6B-773C46650136";
shapes = (
{
closed = 1;
nodes = (
(125,250,l),
(125,375,l),
(250,375,l),
(250,625,l),
(625,625,l),
(625,500,l),
(500,500,l),
(500,375,l),
(375,375,l),
(375,250,l),
(500,250,l),
(500,125,l),
(625,125,l),
(625,0,l),
(250,0,l),
(250,250,l)
);
}
);
width = 750;
}
);
note = braceleft;
unicode = 123;
},
{
glyphname = bar;
lastChange = "2022-06-09 09:49:02 +0000";
layers = (
{
layerId = m01;
shapes = (
{
closed = 1;
nodes = (
(250,750,l),
(250,-125,l),
(125,-125,l),
(125,750,l)
);
}
);
width = 375;
},
{
layerId = "15C0796C-B0F3-4225-BD6B-773C46650136";
shapes = (
{
closed = 1;
nodes = (
(375,750,l),
(375,-125,l),
(125,-125,l),
(125,750,l)
);
}
);
width = 500;
}
);
note = bar;
unicode = 124;
},
{
glyphname = braceright;
lastChange = "2022-06-09 09:49:02 +0000";
layers = (
{
layerId = m01;
shapes = (
{
closed = 1;
nodes = (
(250,125,l),
(250,250,l),
(375,250,l),
(375,375,l),
(250,375,l),
(250,500,l),
(125,500,l),
(125,625,l),
(375,625,l),
(375,375,l),
(500,375,l),
(500,250,l),
(375,250,l),
(375,0,l),
(125,0,l),
(125,125,l)
);
}
);
width = 625;
},
{
layerId = "15C0796C-B0F3-4225-BD6B-773C46650136";
shapes = (
{
closed = 1;
nodes = (
(625,250,l),
(625,375,l),
(500,375,l),
(500,625,l),
(125,625,l),
(125,500,l),
(250,500,l),
(250,375,l),
(375,375,l),
(375,250,l),
(250,250,l),
(250,125,l),
(125,125,l),
(125,0,l),
(500,0,l),
(500,250,l)
);
}
);
width = 750;
}
);
note = braceright;
unicode = 125;
},
{
glyphname = asciitilde;
lastChange = "2022-06-09 09:49:02 +0000";
layers = (
{
layerId = m01;
shapes = (
{
closed = 1;
nodes = (
(250,500,l),
(250,625,l),
(375,625,l),
(375,500,l),
(500,500,l),
(500,625,l),
(625,625,l),
(625,500,l),
(500,500,l),
(500,375,l),
(375,375,l),
(375,500,l),
(250,500,l),
(250,375,l),
(125,375,l),
(125,500,l)
);
}
);
width = 750;
},
{
layerId = "15C0796C-B0F3-4225-BD6B-773C46650136";
shapes = (
{
closed = 1;
nodes = (
(250,500,l),
(250,625,l),
(750,625,l),
(750,500,l),
(625,500,l),
(625,375,l),
(125,375,l),
(125,500,l)
);
}
);
width = 875;
}
);
note = asciitilde;
unicode = 126;
},
{
glyphname = Euro;
lastChange = "2022-06-09 09:49:02 +0000";
layers = (
{
layerId = m01;
shapes = (
{
closed = 1;
nodes = (
(250,125,l),
(250,249,l),
(125,250,l),
(125,375,l),
(250,376,l),
(250,500,l),
(375,500,l),
(375,375,l),
(500,375,l),
(500,250,l),
(375,250,l),
(375,125,l),
(625,125,l),
(625,0,l),
(375,0,l),
(375,125,l)
);
},
{
closed = 1;
nodes = (
(375,625,l),
(625,625,l),
(625,500,l),
(750,500,l),
(750,375,l),
(625,375,l),
(625,500,l),
(375,500,l)
);
},
{
closed = 1;
nodes = (
(625,250,l),
(750,250,l),
(750,125,l),
(625,125,l)
);
}
);
width = 875;
},
{
layerId = "15C0796C-B0F3-4225-BD6B-773C46650136";
shapes = (
{
closed = 1;
nodes = (
(250,125,l),
(250,250,l),
(125,250,l),
(125,375,l),
(250,375,l),
(250,500,l),
(375,500,l),
(375,625,l),
(750,625,l),
(750,500,l),
(875,500,l),
(875,375,l),
(625,375,l),
(625,250,l),
(875,250,l),
(875,125,l),
(750,125,l),
(750,0,l),
(375,0,l),
(375,125,l)
);
},
{
closed = 1;
nodes = (
(620,375,l),
(620,500,l),
(500,500,l),
(500,375,l)
);
},
{
closed = 1;
nodes = (
(620,125,l),
(620,250,l),
(500,250,l),
(500,125,l)
);
}
);
width = 1000;
}
);
note = Euro;
unicode = 8364;
},
{
glyphname = quotesinglbase;
lastChange = "2022-06-09 09:49:02 +0000";
layers = (
{
layerId = m01;
shapes = (
{
closed = 1;
nodes = (
(250,0,l),
(250,-125,l),
(125,-125,l),
(125,0,l)
);
},
{
closed = 1;
nodes = (
(250,125,l),
(375,125,l),
(375,0,l),
(250,0,l)
);
}
);
width = 500;
},
{
layerId = "15C0796C-B0F3-4225-BD6B-773C46650136";
shapes = (
{
closed = 1;
nodes = (
(250,0,l),
(250,125,l),
(500,125,l),
(500,0,l),
(375,0,l),
(375,-125,l),
(125,-125,l),
(125,0,l)
);
}
);
width = 625;
}
);
note = quotesinglbase;
unicode = 8218;
},
{
glyphname = florin;
lastChange = "2022-06-09 09:49:02 +0000";
layers = (
{
layerId = m01;
shapes = (
{
closed = 1;
nodes = (
(250,0,l),
(250,250,l),
(250,375,l),
(375,375,l),
(375,625,l),
(750,625,l),
(750,500,l),
(500,500,l),
(500,375,l),
(625,375,l),
(625,250,l),
(375,250,l),
(375,0,l),
(250,0,l),
(250,-125,l),
(125,-125,l),
(125,0,l)
);
}
);
width = 875;
},
{
layerId = "15C0796C-B0F3-4225-BD6B-773C46650136";
shapes = (
{
closed = 1;
nodes = (
(250,0,l),
(250,375,l),
(375,375,l),
(375,625,l),
(875,625,l),
(875,500,l),
(625,500,l),
(625,375,l),
(750,375,l),
(750,250,l),
(500,250,l),
(500,0,l),
(375,0,l),
(375,-125,l),
(125,-125,l),
(125,0,l)
);
}
);
width = 1000;
}
);
note = florin;
unicode = 402;
},
{
glyphname = quotedblbase;
lastChange = "2022-06-09 09:49:02 +0000";
layers = (
{
layerId = m01;
shapes = (
{
closed = 1;
nodes = (
(250,0,l),
(125,0,l),
(125,250,l),
(250,250,l)
);
},
{
closed = 1;
nodes = (
(500,250,l),
(500,0,l),
(375,0,l),
(375,250,l)
);
}
);
width = 625;
},
{
layerId = "15C0796C-B0F3-4225-BD6B-773C46650136";
shapes = (
{
closed = 1;
nodes = (
(625,250,l),
(625,0,l),
(125,0,l),
(125,250,l)
);
}
);
width = 750;
}
);
note = quotedblbase;
unicode = 8222;
},
{
glyphname = ellipsis;
lastChange = "2022-06-09 09:49:02 +0000";
layers = (
{
layerId = m01;
shapes = (
{
closed = 1;
nodes = (
(250,125,l),
(250,0,l),
(125,0,l),
(125,125,l)
);
},
{
closed = 1;
nodes = (
(500,125,l),
(500,0,l),
(375,0,l),
(375,125,l)
);
},
{
closed = 1;
nodes = (
(750,0,l),
(625,0,l),
(625,125,l),
(750,125,l)
);
}
);
width = 875;
},
{
layerId = "15C0796C-B0F3-4225-BD6B-773C46650136";
shapes = (
{
closed = 1;
nodes = (
(875,125,l),
(875,0,l),
(125,0,l),
(125,125,l)
);
}
);
width = 1000;
}
);
note = ellipsis;
unicode = 8230;
},
{
glyphname = dagger;
lastChange = "2022-06-09 09:49:02 +0000";
layers = (
{
layerId = m01;
shapes = (
{
closed = 1;
nodes = (
(250,375,l),
(125,375,l),
(125,500,l),
(250,500,l),
(250,625,l),
(375,625,l),
(375,500,l),
(500,500,l),
(500,375,l),
(375,375,l),
(375,0,l),
(250,0,l)
);
}
);
width = 625;
},
{
layerId = "15C0796C-B0F3-4225-BD6B-773C46650136";
shapes = (
{
closed = 1;
nodes = (
(250,375,l),
(125,375,l),
(125,500,l),
(250,500,l),
(250,625,l),
(500,625,l),
(500,500,l),
(625,500,l),
(625,375,l),
(500,375,l),
(500,0,l),
(250,0,l)
);
}
);
width = 750;
}
);
note = dagger;
unicode = 8224;
},
{
glyphname = daggerdbl;
lastChange = "2022-06-09 09:49:02 +0000";
layers = (
{
layerId = m01;
shapes = (
{
closed = 1;
nodes = (
(125,125,l),
(125,250,l),
(250,250,l),
(250,375,l),
(125,375,l),
(125,500,l),
(250,500,l),
(250,625,l),
(375,625,l),
(375,500,l),
(500,500,l),
(500,375,l),
(375,375,l),
(375,250,l),
(500,250,l),
(500,125,l),
(375,125,l),
(375,0,l),
(250,0,l),
(250,125,l)
);
}
);
width = 625;
},
{
layerId = "15C0796C-B0F3-4225-BD6B-773C46650136";
shapes = (
{
closed = 1;
nodes = (
(125,125,l),
(125,250,l),
(250,250,l),
(250,375,l),
(125,375,l),
(125,500,l),
(250,500,l),
(250,625,l),
(500,625,l),
(500,500,l),
(625,500,l),
(625,375,l),
(500,375,l),
(500,250,l),
(625,250,l),
(625,125,l),
(500,125,l),
(500,0,l),
(250,0,l),
(250,125,l)
);
}
);
width = 750;
}
);
note = daggerdbl;
unicode = 8225;
},
{
glyphname = circumflex;
lastChange = "2022-06-09 09:49:02 +0000";
layers = (
{
layerId = m01;
shapes = (
{
closed = 1;
nodes = (
(250,625,l),
(250,750,l),
(375,750,l),
(375,625,l),
(500,625,l),
(500,500,l),
(375,500,l),
(375,625,l),
(250,625,l),
(250,500,l),
(125,500,l),
(125,625,l)
);
}
);
width = 625;
},
{
layerId = "15C0796C-B0F3-4225-BD6B-773C46650136";
shapes = (
{
closed = 1;
nodes = (
(250,625,l),
(250,750,l),
(500,750,l),
(500,625,l),
(625,625,l),
(625,500,l),
(125,500,l),
(125,625,l)
);
}
);
width = 750;
}
);
note = circumflex;
unicode = 710;
},
{
glyphname = perthousand;
lastChange = "2022-06-09 09:49:02 +0000";
layers = (
{
layerId = m01;
shapes = (
{
closed = 1;
nodes = (
(375,375,l),
(125,375,l),
(125,625,l),
(375,625,l),
(375,375,l),
(500,375,l),
(500,250,l),
(625,250,l),
(625,0,l),
(500,0,l),
(500,250,l),
(375,250,l)
);
},
{
closed = 1;
nodes = (
(250,250,l),
(375,250,l),
(375,0,l),
(250,0,l)
);
},
{
closed = 1;
nodes = (
(500,625,l),
(625,625,l),
(625,375,l),
(500,375,l)
);
},
{
closed = 1;
nodes = (
(875,0,l),
(750,0,l),
(750,250,l),
(875,250,l)
);
}
);
width = 1000;
},
{
layerId = "15C0796C-B0F3-4225-BD6B-773C46650136";
shapes = (
{
closed = 1;
nodes = (
(375,250,l),
(375,375,l),
(125,375,l),
(125,625,l),
(750,625,l),
(750,375,l),
(625,375,l),
(625,250,l),
(1000,250,l),
(1000,0,l),
(250,0,l),
(250,250,l)
);
}
);
width = 1125;
}
);
note = perthousand;
unicode = 8240;
},
{
glyphname = Scaron;
lastChange = "2022-06-09 09:49:02 +0000";
layers = (
{
layerId = m01;
shapes = (
{
closed = 1;
nodes = (
(500,250,l),
(250,250,l),
(250,375,l),
(125,375,l),
(125,500,l),
(250,500,l),
(250,375,l),
(500,375,l),
(500,250,l),
(625,250,l),
(625,125,l),
(500,125,l)
);
},
{
closed = 1;
nodes = (
(500,125,l),
(500,0,l),
(125,0,l),
(125,125,l)
);
},
{
closed = 1;
nodes = (
(250,625,l),
(625,625,l),
(625,500,l),
(250,500,l)
);
},
{
closed = 1;
nodes = (
(125,875,l),
(125,1000,l),
(250,1000,l),
(250,875,l),
(500,875,l),
(500,1000,l),
(625,1000,l),
(625,875,l),
(500,875,l),
(500,750,l),
(250,750,l),
(250,875,l)
);
}
);
width = 750;
},
{
layerId = "15C0796C-B0F3-4225-BD6B-773C46650136";
shapes = (
{
closed = 1;
nodes = (
(125,875,l),
(125,1000,l),
(375,1000,l),
(375,875,l),
(500,875,l),
(500,1000,l),
(750,1000,l),
(750,875,l),
(625,875,l),
(625,750,l),
(250,750,l),
(250,875,l)
);
},
{
closed = 1;
nodes = (
(500,125,l),
(500,250,l),
(250,250,l),
(250,375,l),
(125,375,l),
(125,500,l),
(250,500,l),
(250,625,l),
(750,625,l),
(750,500,l),
(375,500,l),
(375,375,l),
(625,375,l),
(625,250,l),
(750,250,l),
(750,125,l),
(625,125,l),
(625,0,l),
(125,0,l),
(125,125,l)
);
}
);
width = 875;
}
);
note = Scaron;
unicode = 352;
},
{
glyphname = guilsinglleft;
lastChange = "2022-06-09 09:49:02 +0000";
layers = (
{
layerId = m01;
shapes = (
{
closed = 1;
nodes = (
(250,250,l),
(125,250,l),
(125,375,l),
(250,375,l),
(250,500,l),
(375,500,l),
(375,375,l),
(250,375,l),
(250,250,l),
(375,250,l),
(375,125,l),
(250,125,l)
);
}
);
width = 500;
},
{
layerId = "15C0796C-B0F3-4225-BD6B-773C46650136";
shapes = (
{
closed = 1;
nodes = (
(125,250,l),
(125,375,l),
(250,375,l),
(250,500,l),
(500,500,l),
(500,375,l),
(375,375,l),
(375,250,l),
(500,250,l),
(500,125,l),
(250,125,l),
(250,250,l)
);
}
);
width = 625;
}
);
note = guilsinglleft;
unicode = 8249;
},
{
glyphname = OE;
lastChange = "2022-06-09 09:49:02 +0000";
layers = (
{
layerId = m01;
shapes = (
{
closed = 1;
nodes = (
(250,500,l),
(250,625,l),
(750,625,l),
(750,500,l),
(500,500,l),
(500,375,l),
(750,375,l),
(750,250,l),
(500,250,l),
(500,125,l),
(750,125,l),
(750,0,l),
(250,0,l),
(250,125,l),
(125,125,l),
(125,500,l)
);
},
{
closed = 1;
nodes = (
(255,501,l),
(255,126,l),
(375,126,l),
(375,501,l)
);
}
);
width = 875;
},
{
layerId = "15C0796C-B0F3-4225-BD6B-773C46650136";
shapes = (
{
closed = 1;
nodes = (
(250,500,l),
(250,625,l),
(875,625,l),
(875,500,l),
(625,500,l),
(625,375,l),
(875,375,l),
(875,250,l),
(625,250,l),
(625,125,l),
(875,125,l),
(875,0,l),
(250,0,l),
(250,125,l),
(125,125,l),
(125,500,l)
);
}
);
width = 1000;
}
);
note = OE;
unicode = 338;
},
{
glyphname = Zcaron;
lastChange = "2022-06-09 09:49:02 +0000";
layers = (
{
layerId = m01;
shapes = (
{
closed = 1;
nodes = (
(250,250,l),
(250,125,l),
(500,125,l),
(500,0,l),
(125,0,l),
(125,250,l)
);
},
{
closed = 1;
nodes = (
(375,500,l),
(125,500,l),
(125,625,l),
(500,625,l),
(500,375,l),
(375,375,l)
);
},
{
closed = 1;
nodes = (
(250,375,l),
(375,375,l),
(375,250,l),
(250,250,l)
);
},
{
closed = 1;
nodes = (
(125,875,l),
(125,1000,l),
(250,1000,l),
(250,875,l),
(375,875,l),
(375,1000,l),
(500,1000,l),
(500,875,l),
(375,875,l),
(375,750,l),
(250,750,l),
(250,875,l)
);
}
);
width = 625;
},
{
layerId = "15C0796C-B0F3-4225-BD6B-773C46650136";
shapes = (
{
closed = 1;
nodes = (
(125,875,l),
(125,1000,l),
(625,1000,l),
(625,875,l),
(500,875,l),
(500,750,l),
(250,750,l),
(250,875,l)
);
},
{
closed = 1;
nodes = (
(250,250,l),
(250,375,l),
(375,375,l),
(375,500,l),
(125,500,l),
(125,625,l),
(625,625,l),
(625,375,l),
(500,375,l),
(500,250,l),
(375,250,l),
(375,125,l),
(625,125,l),
(625,0,l),
(125,0,l),
(125,250,l)
);
}
);
width = 750;
}
);
note = Zcaron;
unicode = 381;
},
{
glyphname = quoteleft;
lastChange = "2022-06-09 09:49:02 +0000";
layers = (
{
layerId = m01;
shapes = (
{
closed = 1;
nodes = (
(250,625,l),
(250,375,l),
(125,375,l),
(125,625,l)
);
}
);
width = 375;
},
{
layerId = "15C0796C-B0F3-4225-BD6B-773C46650136";
shapes = (
{
closed = 1;
nodes = (
(375,625,l),
(375,375,l),
(125,375,l),
(125,625,l)
);
}
);
width = 500;
}
);
note = quoteleft;
unicode = 8216;
},
{
glyphname = quoteright;
lastChange = "2022-06-09 09:49:02 +0000";
layers = (
{
layerId = m01;
shapes = (
{
closed = 1;
nodes = (
(250,625,l),
(250,375,l),
(125,375,l),
(125,625,l)
);
}
);
width = 375;
},
{
layerId = "15C0796C-B0F3-4225-BD6B-773C46650136";
shapes = (
{
closed = 1;
nodes = (
(375,625,l),
(375,375,l),
(125,375,l),
(125,625,l)
);
}
);
width = 500;
}
);
note = quoteright;
unicode = 8217;
},
{
glyphname = quotedblleft;
lastChange = "2022-06-09 09:49:02 +0000";
layers = (
{
layerId = m01;
shapes = (
{
closed = 1;
nodes = (
(250,375,l),
(125,375,l),
(125,625,l),
(250,625,l)
);
},
{
closed = 1;
nodes = (
(500,625,l),
(500,375,l),
(375,375,l),
(375,625,l)
);
}
);
width = 625;
},
{
layerId = "15C0796C-B0F3-4225-BD6B-773C46650136";
shapes = (
{
closed = 1;
nodes = (
(625,625,l),
(625,375,l),
(125,375,l),
(125,625,l)
);
}
);
width = 750;
}
);
note = quotedblleft;
unicode = 8220;
},
{
glyphname = quotedblright;
lastChange = "2022-06-09 09:49:02 +0000";
layers = (
{
layerId = m01;
shapes = (
{
closed = 1;
nodes = (
(250,375,l),
(125,375,l),
(125,625,l),
(250,625,l)
);
},
{
closed = 1;
nodes = (
(500,625,l),
(500,375,l),
(375,375,l),
(375,625,l)
);
}
);
width = 625;
},
{
layerId = "15C0796C-B0F3-4225-BD6B-773C46650136";
shapes = (
{
closed = 1;
nodes = (
(625,625,l),
(625,375,l),
(125,375,l),
(125,625,l)
);
}
);
width = 750;
}
);
note = quotedblright;
unicode = 8221;
},
{
glyphname = bullet;
lastChange = "2022-06-09 09:49:02 +0000";
layers = (
{
layerId = m01;
shapes = (
{
closed = 1;
nodes = (
(250,250,l),
(125,250,l),
(125,375,l),
(250,375,l)
);
}
);
width = 375;
},
{
layerId = "15C0796C-B0F3-4225-BD6B-773C46650136";
shapes = (
{
closed = 1;
nodes = (
(375,250,l),
(125,250,l),
(125,375,l),
(375,375,l)
);
}
);
width = 500;
}
);
note = bullet;
unicode = 8226;
},
{
glyphname = endash;
lastChange = "2022-06-09 09:49:02 +0000";
layers = (
{
layerId = m01;
shapes = (
{
closed = 1;
nodes = (
(625,250,l),
(125,250,l),
(125,375,l),
(625,375,l)
);
}
);
width = 750;
},
{
layerId = "15C0796C-B0F3-4225-BD6B-773C46650136";
shapes = (
{
closed = 1;
nodes = (
(750,250,l),
(125,250,l),
(125,375,l),
(750,375,l)
);
}
);
width = 875;
}
);
note = endash;
unicode = 8211;
},
{
glyphname = emdash;
lastChange = "2022-06-09 09:49:02 +0000";
layers = (
{
layerId = m01;
shapes = (
{
closed = 1;
nodes = (
(875,250,l),
(125,250,l),
(125,375,l),
(875,375,l)
);
}
);
width = 1000;
},
{
layerId = "15C0796C-B0F3-4225-BD6B-773C46650136";
shapes = (
{
closed = 1;
nodes = (
(1000,250,l),
(125,250,l),
(125,375,l),
(1000,375,l)
);
}
);
width = 1125;
}
);
note = emdash;
unicode = 8212;
},
{
glyphname = tilde;
lastChange = "2022-06-09 09:49:02 +0000";
layers = (
{
layerId = m01;
shapes = (
{
closed = 1;
nodes = (
(250,500,l),
(250,625,l),
(375,625,l),
(375,500,l),
(500,500,l),
(500,625,l),
(625,625,l),
(625,500,l),
(500,500,l),
(500,375,l),
(375,375,l),
(375,500,l),
(250,500,l),
(250,375,l),
(125,375,l),
(125,500,l)
);
}
);
width = 750;
},
{
layerId = "15C0796C-B0F3-4225-BD6B-773C46650136";
shapes = (
{
closed = 1;
nodes = (
(250,500,l),
(250,625,l),
(750,625,l),
(750,500,l),
(625,500,l),
(625,375,l),
(125,375,l),
(125,500,l)
);
}
);
width = 875;
}
);
note = tilde;
unicode = 732;
},
{
glyphname = trademark;
lastChange = "2022-06-09 09:49:02 +0000";
layers = (
{
layerId = m01;
shapes = (
{
closed = 1;
nodes = (
(125,625,l),
(125,750,l),
(750,750,l),
(750,625,l),
(875,625,l),
(875,750,l),
(1125,750,l),
(1125,375,l),
(1000,375,l),
(1000,625,l),
(875,625,l),
(875,375,l),
(750,375,l),
(750,625,l),
(625,625,l),
(625,375,l),
(500,375,l),
(500,625,l),
(375,625,l),
(375,375,l),
(250,375,l),
(250,625,l)
);
}
);
width = 1250;
},
{
layerId = "15C0796C-B0F3-4225-BD6B-773C46650136";
shapes = (
{
closed = 1;
nodes = (
(125,625,l),
(125,750,l),
(750,750,l),
(750,625,l),
(875,625,l),
(875,750,l),
(1125,750,l),
(1125,375,l),
(1000,375,l),
(1000,625,l),
(875,625,l),
(875,375,l),
(750,375,l),
(750,625,l),
(625,625,l),
(625,375,l),
(500,375,l),
(500,625,l),
(375,625,l),
(375,375,l),
(250,375,l),
(250,625,l)
);
}
);
width = 1250;
}
);
note = trademark;
unicode = 8482;
},
{
glyphname = scaron;
lastChange = "2022-06-09 09:49:02 +0000";
layers = (
{
layerId = m01;
shapes = (
{
closed = 1;
nodes = (
(500,250,l),
(250,250,l),
(250,375,l),
(125,375,l),
(125,500,l),
(250,500,l),
(250,375,l),
(500,375,l),
(500,250,l),
(625,250,l),
(625,125,l),
(500,125,l)
);
},
{
closed = 1;
nodes = (
(500,125,l),
(500,0,l),
(125,0,l),
(125,125,l)
);
},
{
closed = 1;
nodes = (
(250,625,l),
(625,625,l),
(625,500,l),
(250,500,l)
);
},
{
closed = 1;
nodes = (
(125,875,l),
(125,1000,l),
(250,1000,l),
(250,875,l),
(500,875,l),
(500,1000,l),
(625,1000,l),
(625,875,l),
(500,875,l),
(500,750,l),
(250,750,l),
(250,875,l)
);
}
);
width = 750;
},
{
layerId = "15C0796C-B0F3-4225-BD6B-773C46650136";
shapes = (
{
closed = 1;
nodes = (
(125,875,l),
(125,1000,l),
(375,1000,l),
(375,875,l),
(500,875,l),
(500,1000,l),
(750,1000,l),
(750,875,l),
(625,875,l),
(625,750,l),
(250,750,l),
(250,875,l)
);
},
{
closed = 1;
nodes = (
(500,125,l),
(500,250,l),
(250,250,l),
(250,375,l),
(125,375,l),
(125,500,l),
(250,500,l),
(250,625,l),
(750,625,l),
(750,500,l),
(375,500,l),
(375,375,l),
(625,375,l),
(625,250,l),
(750,250,l),
(750,125,l),
(625,125,l),
(625,0,l),
(125,0,l),
(125,125,l)
);
}
);
width = 875;
}
);
note = scaron;
unicode = 353;
},
{
glyphname = guilsinglright;
lastChange = "2022-06-09 09:49:02 +0000";
layers = (
{
layerId = m01;
shapes = (
{
closed = 1;
nodes = (
(125,125,l),
(125,250,l),
(250,250,l),
(250,375,l),
(125,375,l),
(125,500,l),
(250,500,l),
(250,375,l),
(375,375,l),
(375,250,l),
(250,250,l),
(250,125,l)
);
}
);
width = 500;
},
{
layerId = "15C0796C-B0F3-4225-BD6B-773C46650136";
shapes = (
{
closed = 1;
nodes = (
(500,250,l),
(500,375,l),
(375,375,l),
(375,500,l),
(125,500,l),
(125,375,l),
(250,375,l),
(250,250,l),
(125,250,l),
(125,125,l),
(375,125,l),
(375,250,l)
);
}
);
width = 625;
}
);
note = guilsinglright;
unicode = 8250;
},
{
glyphname = oe;
lastChange = "2022-06-09 09:49:02 +0000";
layers = (
{
layerId = m01;
shapes = (
{
closed = 1;
nodes = (
(250,500,l),
(250,625,l),
(750,625,l),
(750,500,l),
(500,500,l),
(500,375,l),
(750,375,l),
(750,250,l),
(500,250,l),
(500,125,l),
(750,125,l),
(750,0,l),
(250,0,l),
(250,125,l),
(125,125,l),
(125,500,l)
);
},
{
closed = 1;
nodes = (
(255,501,l),
(255,126,l),
(375,126,l),
(375,501,l)
);
}
);
width = 875;
},
{
layerId = "15C0796C-B0F3-4225-BD6B-773C46650136";
shapes = (
{
closed = 1;
nodes = (
(250,500,l),
(250,625,l),
(875,625,l),
(875,500,l),
(625,500,l),
(625,375,l),
(875,375,l),
(875,250,l),
(625,250,l),
(625,125,l),
(875,125,l),
(875,0,l),
(250,0,l),
(250,125,l),
(125,125,l),
(125,500,l)
);
}
);
width = 1000;
}
);
note = oe;
unicode = 339;
},
{
glyphname = zcaron;
lastChange = "2022-06-09 09:49:02 +0000";
layers = (
{
layerId = m01;
shapes = (
{
closed = 1;
nodes = (
(250,250,l),
(250,125,l),
(500,125,l),
(500,0,l),
(125,0,l),
(125,250,l)
);
},
{
closed = 1;
nodes = (
(375,500,l),
(125,500,l),
(125,625,l),
(500,625,l),
(500,375,l),
(375,375,l)
);
},
{
closed = 1;
nodes = (
(250,375,l),
(375,375,l),
(375,250,l),
(250,250,l)
);
},
{
closed = 1;
nodes = (
(125,875,l),
(125,1000,l),
(250,1000,l),
(250,875,l),
(375,875,l),
(375,1000,l),
(500,1000,l),
(500,875,l),
(375,875,l),
(375,750,l),
(250,750,l),
(250,875,l)
);
}
);
width = 625;
},
{
layerId = "15C0796C-B0F3-4225-BD6B-773C46650136";
shapes = (
{
closed = 1;
nodes = (
(125,875,l),
(125,1000,l),
(625,1000,l),
(625,875,l),
(500,875,l),
(500,750,l),
(250,750,l),
(250,875,l)
);
},
{
closed = 1;
nodes = (
(250,250,l),
(250,375,l),
(375,375,l),
(375,500,l),
(125,500,l),
(125,625,l),
(625,625,l),
(625,375,l),
(500,375,l),
(500,250,l),
(375,250,l),
(375,125,l),
(625,125,l),
(625,0,l),
(125,0,l),
(125,250,l)
);
}
);
width = 750;
}
);
note = zcaron;
unicode = 382;
},
{
glyphname = Ydieresis;
lastChange = "2022-06-09 09:49:02 +0000";
layers = (
{
layerId = m01;
shapes = (
{
closed = 1;
nodes = (
(250,375,l),
(250,500,l),
(125,500,l),
(125,625,l),
(250,625,l),
(250,500,l),
(375,500,l),
(375,375,l),
(500,375,l),
(500,0,l),
(375,0,l),
(375,375,l)
);
},
{
closed = 1;
nodes = (
(500,500,l),
(625,500,l),
(625,375,l),
(500,375,l)
);
},
{
closed = 1;
nodes = (
(625,625,l),
(750,625,l),
(750,500,l),
(625,500,l)
);
},
{
closed = 1;
nodes = (
(375,875,l),
(375,750,l),
(250,750,l),
(250,875,l)
);
},
{
closed = 1;
nodes = (
(625,875,l),
(625,750,l),
(500,750,l),
(500,875,l)
);
}
);
width = 875;
},
{
layerId = "15C0796C-B0F3-4225-BD6B-773C46650136";
shapes = (
{
closed = 1;
nodes = (
(250,375,l),
(250,500,l),
(125,500,l),
(125,625,l),
(375,625,l),
(375,500,l),
(625,500,l),
(625,625,l),
(875,625,l),
(875,500,l),
(750,500,l),
(750,375,l),
(625,375,l),
(625,0,l),
(375,0,l),
(375,375,l)
);
},
{
closed = 1;
nodes = (
(750,875,l),
(750,750,l),
(250,750,l),
(250,875,l)
);
}
);
width = 1000;
}
);
note = Ydieresis;
unicode = 376;
},
{
glyphname = exclamdown;
lastChange = "2022-06-09 09:49:02 +0000";
layers = (
{
layerId = m01;
shapes = (
{
closed = 1;
nodes = (
(250,375,l),
(250,0,l),
(125,0,l),
(125,375,l)
);
},
{
closed = 1;
nodes = (
(250,625,l),
(250,500,l),
(125,500,l),
(125,625,l)
);
}
);
width = 375;
},
{
layerId = "15C0796C-B0F3-4225-BD6B-773C46650136";
shapes = (
{
closed = 1;
nodes = (
(375,375,l),
(375,0,l),
(125,0,l),
(125,375,l)
);
},
{
closed = 1;
nodes = (
(375,625,l),
(375,500,l),
(125,500,l),
(125,625,l)
);
}
);
width = 500;
}
);
note = exclamdown;
unicode = 161;
},
{
glyphname = cent;
lastChange = "2022-06-09 09:49:02 +0000";
layers = (
{
layerId = m01;
shapes = (
{
closed = 1;
nodes = (
(125,125,l),
(125,500,l),
(250,500,l),
(250,625,l),
(375,625,l),
(375,500,l),
(500,500,l),
(500,375,l),
(250,375,l),
(250,250,l),
(500,250,l),
(500,125,l),
(375,125,l),
(375,0,l),
(250,0,l),
(250,125,l)
);
}
);
width = 625;
},
{
layerId = "15C0796C-B0F3-4225-BD6B-773C46650136";
shapes = (
{
closed = 1;
nodes = (
(125,125,l),
(125,500,l),
(250,500,l),
(250,625,l),
(500,625,l),
(500,500,l),
(625,500,l),
(625,375,l),
(375,375,l),
(375,250,l),
(625,250,l),
(625,125,l),
(500,125,l),
(500,0,l),
(250,0,l),
(250,125,l)
);
}
);
width = 750;
}
);
note = cent;
unicode = 162;
},
{
glyphname = sterling;
lastChange = "2022-06-09 09:49:02 +0000";
layers = (
{
layerId = m01;
shapes = (
{
closed = 1;
nodes = (
(250,125,l),
(250,250,l),
(125,250,l),
(125,375,l),
(375,375,l),
(375,625,l),
(625,625,l),
(625,500,l),
(500,500,l),
(500,250,l),
(375,250,l),
(375,125,l),
(625,125,l),
(625,0,l),
(125,0,l),
(125,125,l)
);
}
);
width = 750;
},
{
layerId = "15C0796C-B0F3-4225-BD6B-773C46650136";
shapes = (
{
closed = 1;
nodes = (
(250,125,l),
(250,250,l),
(125,250,l),
(125,375,l),
(375,375,l),
(375,625,l),
(750,625,l),
(750,500,l),
(625,500,l),
(625,250,l),
(500,250,l),
(500,125,l),
(750,125,l),
(750,0,l),
(125,0,l),
(125,125,l)
);
}
);
width = 875;
}
);
note = sterling;
unicode = 163;
},
{
glyphname = currency;
lastChange = "2022-06-09 09:49:02 +0000";
layers = (
{
layerId = m01;
shapes = (
{
closed = 1;
nodes = (
(250,125,l),
(250,0,l),
(125,0,l),
(125,125,l),
(250,125,l),
(250,500,l),
(125,500,l),
(125,625,l),
(250,625,l),
(250,500,l),
(375,500,l),
(375,625,l),
(500,625,l),
(500,500,l),
(625,500,l),
(625,625,l),
(750,625,l),
(750,500,l),
(625,500,l),
(625,125,l),
(750,125,l),
(750,0,l),
(625,0,l),
(625,125,l),
(500,125,l),
(500,0,l),
(375,0,l),
(375,125,l)
);
},
{
closed = 1;
nodes = (
(500,495,l),
(375,495,l),
(375,130,l),
(500,130,l)
);
}
);
width = 875;
},
{
layerId = "15C0796C-B0F3-4225-BD6B-773C46650136";
shapes = (
{
closed = 1;
nodes = (
(250,125,l),
(250,500,l),
(125,500,l),
(125,625,l),
(875,625,l),
(875,500,l),
(750,500,l),
(750,125,l),
(875,125,l),
(875,0,l),
(125,0,l),
(125,125,l)
);
}
);
width = 1000;
}
);
note = currency;
unicode = 164;
},
{
glyphname = yen;
lastChange = "2022-06-09 09:49:02 +0000";
layers = (
{
layerId = m01;
shapes = (
{
closed = 1;
nodes = (
(250,125,l),
(250,250,l),
(375,250,l),
(375,375,l),
(250,375,l),
(250,500,l),
(125,500,l),
(125,625,l),
(250,625,l),
(250,500,l),
(625,500,l),
(625,625,l),
(750,625,l),
(750,500,l),
(625,500,l),
(625,375,l),
(500,375,l),
(500,250,l),
(625,250,l),
(625,125,l),
(500,125,l),
(500,0,l),
(375,0,l),
(375,125,l)
);
}
);
width = 875;
},
{
layerId = "15C0796C-B0F3-4225-BD6B-773C46650136";
shapes = (
{
closed = 1;
nodes = (
(250,125,l),
(250,250,l),
(375,250,l),
(375,375,l),
(250,375,l),
(250,500,l),
(125,500,l),
(125,625,l),
(375,625,l),
(375,500,l),
(625,500,l),
(625,625,l),
(875,625,l),
(875,500,l),
(750,500,l),
(750,375,l),
(625,375,l),
(625,250,l),
(750,250,l),
(750,125,l),
(625,125,l),
(625,0,l),
(375,0,l),
(375,125,l)
);
}
);
width = 1000;
}
);
note = yen;
unicode = 165;
},
{
glyphname = brokenbar;
lastChange = "2022-06-09 09:49:02 +0000";
layers = (
{
layerId = m01;
shapes = (
{
closed = 1;
nodes = (
(250,250,l),
(250,0,l),
(125,0,l),
(125,250,l)
);
},
{
closed = 1;
nodes = (
(250,625,l),
(250,375,l),
(125,375,l),
(125,625,l)
);
}
);
width = 375;
},
{
layerId = "15C0796C-B0F3-4225-BD6B-773C46650136";
shapes = (
{
closed = 1;
nodes = (
(375,250,l),
(375,0,l),
(125,0,l),
(125,250,l)
);
},
{
closed = 1;
nodes = (
(375,625,l),
(375,375,l),
(125,375,l),
(125,625,l)
);
}
);
width = 500;
}
);
note = brokenbar;
unicode = 166;
},
{
glyphname = section;
lastChange = "2022-06-09 09:49:02 +0000";
layers = (
{
layerId = m01;
shapes = (
{
closed = 1;
nodes = (
(500,0,l),
(500,125,l),
(250,125,l),
(250,250,l),
(125,250,l),
(125,375,l),
(250,375,l),
(250,500,l),
(125,500,l),
(125,625,l),
(250,625,l),
(250,750,l),
(500,750,l),
(500,625,l),
(250,625,l),
(250,500,l),
(500,500,l),
(500,375,l),
(625,375,l),
(625,250,l),
(500,250,l),
(500,125,l),
(625,125,l),
(625,0,l),
(500,0,l),
(500,-125,l),
(250,-125,l),
(250,0,l)
);
},
{
closed = 1;
nodes = (
(495,250,l),
(495,375,l),
(255,375,l),
(255,250,l)
);
}
);
width = 750;
},
{
layerId = "15C0796C-B0F3-4225-BD6B-773C46650136";
shapes = (
{
closed = 1;
nodes = (
(500,0,l),
(500,125,l),
(250,125,l),
(250,250,l),
(125,250,l),
(125,375,l),
(250,375,l),
(250,500,l),
(125,500,l),
(125,625,l),
(250,625,l),
(250,750,l),
(625,750,l),
(625,625,l),
(375,625,l),
(375,500,l),
(625,500,l),
(625,375,l),
(750,375,l),
(750,250,l),
(625,250,l),
(625,125,l),
(750,125,l),
(750,0,l),
(625,0,l),
(625,-125,l),
(250,-125,l),
(250,0,l)
);
},
{
closed = 1;
nodes = (
(500,250,l),
(500,375,l),
(375,375,l),
(375,250,l)
);
}
);
width = 875;
}
);
note = section;
unicode = 167;
},
{
glyphname = dieresis;
lastChange = "2022-06-09 09:49:02 +0000";
layers = (
{
layerId = m01;
shapes = (
{
closed = 1;
nodes = (
(250,500,l),
(125,500,l),
(125,625,l),
(250,625,l)
);
},
{
closed = 1;
nodes = (
(500,500,l),
(375,500,l),
(375,625,l),
(500,625,l)
);
}
);
width = 625;
},
{
layerId = "15C0796C-B0F3-4225-BD6B-773C46650136";
shapes = (
{
closed = 1;
nodes = (
(625,500,l),
(125,500,l),
(125,625,l),
(625,625,l)
);
}
);
width = 750;
}
);
note = dieresis;
unicode = 168;
},
{
glyphname = copyright;
lastChange = "2022-06-09 09:49:02 +0000";
layers = (
{
layerId = m01;
shapes = (
{
closed = 1;
nodes = (
(125,0,l),
(125,625,l),
(250,625,l),
(250,750,l),
(875,750,l),
(875,625,l),
(1000,625,l),
(1000,0,l),
(875,0,l),
(875,-125,l),
(250,-125,l),
(250,0,l)
);
},
{
closed = 1;
nodes = (
(870,0,l),
(870,625,l),
(255,625,l),
(255,0,l)
);
},
{
closed = 1;
nodes = (
(750,500,l),
(750,375,l),
(500,375,l),
(500,250,l),
(750,250,l),
(750,125,l),
(375,125,l),
(375,500,l)
);
}
);
width = 1125;
},
{
layerId = "15C0796C-B0F3-4225-BD6B-773C46650136";
shapes = (
{
closed = 1;
nodes = (
(125,0,l),
(125,625,l),
(250,625,l),
(250,750,l),
(1000,750,l),
(1000,625,l),
(1125,625,l),
(1125,0,l),
(1000,0,l),
(1000,-125,l),
(250,-125,l),
(250,0,l)
);
},
{
closed = 1;
nodes = (
(875,500,l),
(875,625,l),
(375,625,l),
(375,500,l)
);
},
{
closed = 1;
nodes = (
(875,0,l),
(875,125,l),
(375,125,l),
(375,0,l)
);
},
{
closed = 1;
nodes = (
(875,250,l),
(875,375,l),
(625,375,l),
(625,250,l)
);
}
);
width = 1250;
}
);
note = copyright;
unicode = 169;
},
{
glyphname = ordfeminine;
lastChange = "2022-06-09 09:49:02 +0000";
layers = (
{
layerId = m01;
shapes = (
{
closed = 1;
nodes = (
(125,375,l),
(125,500,l),
(250,500,l),
(250,625,l),
(375,625,l),
(375,500,l),
(500,500,l),
(500,250,l),
(250,250,l),
(250,375,l)
);
},
{
closed = 1;
nodes = (
(375,495,l),
(255,495,l),
(255,375,l),
(375,375,l)
);
}
);
width = 625;
},
{
layerId = "15C0796C-B0F3-4225-BD6B-773C46650136";
shapes = (
{
closed = 1;
nodes = (
(125,375,l),
(125,500,l),
(250,500,l),
(250,625,l),
(500,625,l),
(500,500,l),
(625,500,l),
(625,250,l),
(250,250,l),
(250,375,l)
);
}
);
width = 750;
}
);
note = ordfeminine;
unicode = 170;
},
{
glyphname = guillemotleft;
lastChange = "2022-06-09 09:49:02 +0000";
layers = (
{
layerId = m01;
shapes = (
{
closed = 1;
nodes = (
(250,250,l),
(125,250,l),
(125,375,l),
(250,375,l),
(250,500,l),
(375,500,l),
(375,375,l),
(250,375,l),
(250,250,l),
(375,250,l),
(375,125,l),
(250,125,l)
);
},
{
closed = 1;
nodes = (
(625,250,l),
(500,250,l),
(500,375,l),
(625,375,l),
(625,500,l),
(750,500,l),
(750,375,l),
(625,375,l),
(625,250,l),
(750,250,l),
(750,125,l),
(625,125,l)
);
}
);
width = 875;
},
{
layerId = "15C0796C-B0F3-4225-BD6B-773C46650136";
shapes = (
{
closed = 1;
nodes = (
(125,250,l),
(125,375,l),
(250,375,l),
(250,500,l),
(500,500,l),
(500,375,l),
(625,375,l),
(625,500,l),
(875,500,l),
(875,375,l),
(750,375,l),
(750,250,l),
(875,250,l),
(875,125,l),
(625,125,l),
(625,250,l),
(500,250,l),
(500,125,l),
(250,125,l),
(250,250,l)
);
},
{
closed = 1;
nodes = (
(375,250,l),
(495,250,l),
(495,375,l),
(375,375,l)
);
}
);
width = 1000;
}
);
note = guillemotleft;
unicode = 171;
},
{
glyphname = logicalnot;
lastChange = "2022-06-09 09:49:02 +0000";
layers = (
{
layerId = m01;
shapes = (
{
closed = 1;
nodes = (
(625,125,l),
(500,125,l),
(500,250,l),
(125,250,l),
(125,375,l),
(625,375,l)
);
}
);
width = 750;
},
{
layerId = "15C0796C-B0F3-4225-BD6B-773C46650136";
shapes = (
{
closed = 1;
nodes = (
(750,125,l),
(500,125,l),
(500,250,l),
(125,250,l),
(125,375,l),
(750,375,l)
);
}
);
width = 875;
}
);
note = logicalnot;
unicode = 172;
},
{
glyphname = minus;
lastChange = "2022-06-09 09:49:02 +0000";
layers = (
{
layerId = m01;
shapes = (
{
closed = 1;
nodes = (
(500,375,l),
(500,250,l),
(125,250,l),
(125,375,l)
);
}
);
width = 625;
},
{
layerId = "15C0796C-B0F3-4225-BD6B-773C46650136";
shapes = (
{
closed = 1;
nodes = (
(625,375,l),
(625,250,l),
(125,250,l),
(125,375,l)
);
}
);
width = 750;
}
);
note = minus;
unicode = 173;
},
{
glyphname = registered;
lastChange = "2022-06-09 09:49:02 +0000";
layers = (
{
layerId = m01;
shapes = (
{
closed = 1;
nodes = (
(125,0,l),
(125,625,l),
(250,625,l),
(250,750,l),
(875,750,l),
(875,625,l),
(1000,625,l),
(1000,0,l),
(875,0,l),
(875,-125,l),
(250,-125,l),
(250,0,l)
);
},
{
closed = 1;
nodes = (
(870,0,l),
(870,625,l),
(255,625,l),
(255,0,l)
);
},
{
closed = 1;
nodes = (
(500,375,l),
(500,500,l),
(750,500,l),
(750,375,l),
(500,375,l),
(500,125,l),
(375,125,l),
(375,375,l)
);
}
);
width = 1125;
},
{
layerId = "15C0796C-B0F3-4225-BD6B-773C46650136";
shapes = (
{
closed = 1;
nodes = (
(125,0,l),
(125,625,l),
(250,625,l),
(250,750,l),
(1000,750,l),
(1000,625,l),
(1125,625,l),
(1125,0,l),
(1000,0,l),
(1000,-125,l),
(250,-125,l),
(250,0,l)
);
},
{
closed = 1;
nodes = (
(875,0,l),
(875,375,l),
(625,375,l),
(625,125,l),
(375,125,l),
(375,0,l)
);
},
{
closed = 1;
nodes = (
(500,375,l),
(500,500,l),
(875,500,l),
(875,625,l),
(375,625,l),
(375,375,l)
);
}
);
width = 1250;
}
);
note = registered;
unicode = 174;
},
{
glyphname = macron;
lastChange = "2022-06-09 09:49:02 +0000";
layers = (
{
layerId = m01;
shapes = (
{
closed = 1;
nodes = (
(625,625,l),
(625,500,l),
(125,500,l),
(125,625,l)
);
}
);
width = 750;
},
{
layerId = "15C0796C-B0F3-4225-BD6B-773C46650136";
shapes = (
{
closed = 1;
nodes = (
(750,625,l),
(750,500,l),
(125,500,l),
(125,625,l)
);
}
);
width = 875;
}
);
note = macron;
unicode = 175;
},
{
glyphname = degree;
lastChange = "2022-06-09 09:49:02 +0000";
layers = (
{
layerId = m01;
shapes = (
{
closed = 1;
nodes = (
(125,375,l),
(125,500,l),
(250,500,l),
(250,625,l),
(375,625,l),
(375,500,l),
(500,500,l),
(500,375,l),
(375,375,l),
(375,250,l),
(250,250,l),
(250,375,l)
);
},
{
closed = 1;
nodes = (
(370,495,l),
(255,495,l),
(255,380,l),
(370,380,l)
);
}
);
width = 625;
},
{
layerId = "15C0796C-B0F3-4225-BD6B-773C46650136";
shapes = (
{
closed = 1;
nodes = (
(125,375,l),
(125,500,l),
(250,500,l),
(250,625,l),
(500,625,l),
(500,500,l),
(625,500,l),
(625,375,l),
(500,375,l),
(500,250,l),
(250,250,l),
(250,375,l)
);
}
);
width = 750;
}
);
note = degree;
unicode = 176;
},
{
glyphname = plusminus;
lastChange = "2022-06-09 09:49:02 +0000";
layers = (
{
layerId = m01;
shapes = (
{
closed = 1;
nodes = (
(125,250,l),
(125,375,l),
(375,375,l),
(375,625,l),
(500,625,l),
(500,375,l),
(750,375,l),
(750,250,l),
(500,250,l),
(500,0,l),
(750,0,l),
(750,-125,l),
(125,-125,l),
(125,0,l),
(375,0,l),
(375,250,l)
);
}
);
width = 875;
},
{
layerId = "15C0796C-B0F3-4225-BD6B-773C46650136";
shapes = (
{
closed = 1;
nodes = (
(125,250,l),
(125,375,l),
(375,375,l),
(375,625,l),
(625,625,l),
(625,375,l),
(875,375,l),
(875,250,l),
(625,250,l),
(625,0,l),
(875,0,l),
(875,-125,l),
(125,-125,l),
(125,0,l),
(375,0,l),
(375,250,l)
);
}
);
width = 1000;
}
);
note = plusminus;
unicode = 177;
},
{
glyphname = twosuperior;
lastChange = "2022-06-09 09:49:02 +0000";
layers = (
{
layerId = m01;
shapes = (
{
closed = 1;
nodes = (
(250,250,l),
(250,375,l),
(375,375,l),
(375,500,l),
(125,500,l),
(125,625,l),
(250,625,l),
(375,625,l),
(375,500,l),
(500,500,l),
(500,375,l),
(375,375,l),
(375,250,l),
(500,250,l),
(500,125,l),
(125,125,l),
(125,250,l)
);
}
);
width = 625;
},
{
layerId = "15C0796C-B0F3-4225-BD6B-773C46650136";
shapes = (
{
closed = 1;
nodes = (
(250,250,l),
(250,375,l),
(375,375,l),
(375,500,l),
(125,500,l),
(125,625,l),
(500,625,l),
(500,500,l),
(625,500,l),
(625,375,l),
(500,375,l),
(500,250,l),
(625,250,l),
(625,125,l),
(125,125,l),
(125,250,l)
);
}
);
width = 750;
}
);
note = twosuperior;
unicode = 178;
},
{
glyphname = threesuperior;
lastChange = "2022-06-09 09:49:02 +0000";
layers = (
{
layerId = m01;
shapes = (
{
closed = 1;
nodes = (
(375,250,l),
(375,375,l),
(250,375,l),
(250,500,l),
(125,500,l),
(125,625,l),
(375,625,l),
(375,500,l),
(500,500,l),
(500,125,l),
(125,125,l),
(125,250,l)
);
}
);
width = 625;
},
{
layerId = "15C0796C-B0F3-4225-BD6B-773C46650136";
shapes = (
{
closed = 1;
nodes = (
(375,250,l),
(375,375,l),
(250,375,l),
(250,500,l),
(125,500,l),
(125,625,l),
(500,625,l),
(500,500,l),
(625,500,l),
(625,125,l),
(125,125,l),
(125,250,l)
);
}
);
width = 750;
}
);
note = threesuperior;
unicode = 179;
},
{
glyphname = acute;
lastChange = "2022-06-09 09:49:02 +0000";
layers = (
{
layerId = m01;
shapes = (
{
closed = 1;
nodes = (
(250,500,l),
(250,625,l),
(375,625,l),
(375,500,l),
(250,500,l),
(250,375,l),
(125,375,l),
(125,500,l)
);
}
);
width = 500;
},
{
layerId = "15C0796C-B0F3-4225-BD6B-773C46650136";
shapes = (
{
closed = 1;
nodes = (
(250,500,l),
(250,625,l),
(500,625,l),
(500,500,l),
(375,500,l),
(375,375,l),
(125,375,l),
(125,500,l)
);
}
);
width = 625;
}
);
note = acute;
unicode = 180;
},
{
glyphname = mu;
lastChange = "2022-06-09 09:49:02 +0000";
layers = (
{
layerId = m01;
shapes = (
{
closed = 1;
nodes = (
(125,-125,l),
(125,625,l),
(250,625,l),
(250,125,l),
(500,125,l),
(500,0,l),
(250,0,l),
(250,-125,l)
);
},
{
closed = 1;
nodes = (
(500,625,l),
(625,625,l),
(625,125,l),
(500,125,l)
);
}
);
width = 750;
},
{
layerId = "15C0796C-B0F3-4225-BD6B-773C46650136";
shapes = (
{
closed = 1;
nodes = (
(375,625,l),
(375,125,l),
(500,125,l),
(500,625,l),
(750,625,l),
(750,125,l),
(625,125,l),
(625,0,l),
(375,0,l),
(375,-125,l),
(125,-125,l),
(125,625,l)
);
}
);
width = 875;
}
);
note = mu;
unicode = 181;
},
{
glyphname = paragraph;
lastChange = "2022-06-09 09:49:02 +0000";
layers = (
{
layerId = m01;
shapes = (
{
closed = 1;
nodes = (
(625,250,l),
(500,250,l),
(500,0,l),
(375,0,l),
(375,250,l),
(250,250,l),
(250,375,l),
(125,375,l),
(125,500,l),
(250,500,l),
(250,625,l),
(750,625,l),
(750,0,l),
(625,0,l)
);
},
{
closed = 1;
nodes = (
(625,375,l),
(625,500,l),
(500,500,l),
(500,375,l)
);
},
{
closed = 1;
nodes = (
(375,375,l),
(375,500,l),
(255,500,l),
(255,375,l)
);
}
);
width = 875;
},
{
layerId = "15C0796C-B0F3-4225-BD6B-773C46650136";
shapes = (
{
closed = 1;
nodes = (
(375,250,l),
(250,250,l),
(250,375,l),
(125,375,l),
(125,500,l),
(250,500,l),
(250,625,l),
(875,625,l),
(875,0,l),
(375,0,l)
);
}
);
width = 1000;
}
);
note = paragraph;
unicode = 182;
},
{
glyphname = periodcentered;
lastChange = "2022-06-09 09:49:02 +0000";
layers = (
{
layerId = m01;
shapes = (
{
closed = 1;
nodes = (
(250,250,l),
(125,250,l),
(125,375,l),
(250,375,l)
);
}
);
width = 375;
},
{
layerId = "15C0796C-B0F3-4225-BD6B-773C46650136";
shapes = (
{
closed = 1;
nodes = (
(375,250,l),
(125,250,l),
(125,375,l),
(375,375,l)
);
}
);
width = 500;
}
);
note = periodcentered;
unicode = 183;
},
{
glyphname = cedilla;
lastChange = "2022-06-09 09:49:02 +0000";
layers = (
{
layerId = m01;
shapes = (
{
closed = 1;
nodes = (
(250,0,l),
(250,-125,l),
(125,-125,l),
(125,0,l)
);
},
{
closed = 1;
nodes = (
(250,125,l),
(375,125,l),
(375,0,l),
(250,0,l)
);
}
);
width = 500;
},
{
layerId = "15C0796C-B0F3-4225-BD6B-773C46650136";
shapes = (
{
closed = 1;
nodes = (
(250,0,l),
(250,125,l),
(500,125,l),
(500,0,l),
(375,0,l),
(375,-125,l),
(125,-125,l),
(125,0,l)
);
}
);
width = 625;
}
);
note = cedilla;
unicode = 184;
},
{
glyphname = onesuperior;
lastChange = "2022-06-09 09:49:02 +0000";
layers = (
{
layerId = m01;
shapes = (
{
closed = 1;
nodes = (
(125,500,l),
(125,625,l),
(375,625,l),
(375,125,l),
(250,125,l),
(250,500,l)
);
}
);
width = 500;
},
{
layerId = "15C0796C-B0F3-4225-BD6B-773C46650136";
shapes = (
{
closed = 1;
nodes = (
(125,500,l),
(125,625,l),
(500,625,l),
(500,125,l),
(250,125,l),
(250,500,l)
);
}
);
width = 625;
}
);
note = onesuperior;
unicode = 185;
},
{
glyphname = ordmasculine;
lastChange = "2022-06-09 09:49:02 +0000";
layers = (
{
layerId = m01;
shapes = (
{
closed = 1;
nodes = (
(125,375,l),
(125,500,l),
(250,500,l),
(250,625,l),
(375,625,l),
(375,500,l),
(500,500,l),
(500,375,l),
(375,375,l),
(375,250,l),
(250,250,l),
(250,375,l)
);
},
{
closed = 1;
nodes = (
(370,495,l),
(255,495,l),
(255,380,l),
(370,380,l)
);
}
);
width = 625;
},
{
layerId = "15C0796C-B0F3-4225-BD6B-773C46650136";
shapes = (
{
closed = 1;
nodes = (
(125,375,l),
(125,500,l),
(250,500,l),
(250,625,l),
(500,625,l),
(500,500,l),
(625,500,l),
(625,375,l),
(500,375,l),
(500,250,l),
(250,250,l),
(250,375,l)
);
}
);
width = 750;
}
);
note = ordmasculine;
unicode = 186;
},
{
glyphname = guillemotright;
lastChange = "2022-06-09 09:49:02 +0000";
layers = (
{
layerId = m01;
shapes = (
{
closed = 1;
nodes = (
(625,374,l),
(750,374,l),
(750,249,l),
(625,249,l),
(625,124,l),
(500,124,l),
(500,249,l),
(625,249,l),
(625,374,l),
(500,374,l),
(500,499,l),
(625,499,l)
);
},
{
closed = 1;
nodes = (
(250,374,l),
(375,374,l),
(375,249,l),
(250,249,l),
(250,124,l),
(125,124,l),
(125,249,l),
(250,249,l),
(250,374,l),
(125,374,l),
(125,499,l),
(250,499,l)
);
}
);
width = 875;
},
{
layerId = "15C0796C-B0F3-4225-BD6B-773C46650136";
shapes = (
{
closed = 1;
nodes = (
(875,250,l),
(875,375,l),
(750,375,l),
(750,500,l),
(500,500,l),
(500,375,l),
(375,375,l),
(375,500,l),
(125,500,l),
(125,375,l),
(250,375,l),
(250,250,l),
(125,250,l),
(125,125,l),
(375,125,l),
(375,250,l),
(500,250,l),
(500,125,l),
(750,125,l),
(750,250,l)
);
},
{
closed = 1;
nodes = (
(625,250,l),
(505,250,l),
(505,375,l),
(625,375,l)
);
}
);
width = 1000;
}
);
note = guillemotright;
unicode = 187;
},
{
glyphname = onequarter;
lastChange = "2022-06-09 09:49:02 +0000";
layers = (
{
layerId = m01;
shapes = (
{
closed = 1;
nodes = (
(250,250,l),
(375,250,l),
(375,0,l),
(250,0,l)
);
},
{
closed = 1;
nodes = (
(500,625,l),
(625,625,l),
(625,375,l),
(500,375,l)
);
},
{
closed = 1;
nodes = (
(375,375,l),
(500,375,l),
(500,250,l),
(375,250,l)
);
},
{
closed = 1;
nodes = (
(250,625,l),
(250,250,l),
(125,250,l),
(125,625,l)
);
},
{
closed = 1;
nodes = (
(750,375,l),
(750,250,l),
(875,250,l),
(875,375,l),
(1000,375,l),
(1000,0,l),
(875,0,l),
(875,125,l),
(625,125,l),
(625,375,l)
);
}
);
width = 1125;
},
{
layerId = "15C0796C-B0F3-4225-BD6B-773C46650136";
shapes = (
{
closed = 1;
nodes = (
(125,250,l),
(125,625,l),
(375,625,l),
(375,375,l),
(500,375,l),
(500,625,l),
(750,625,l),
(750,375,l),
(1125,375,l),
(1125,0,l),
(875,0,l),
(875,125,l),
(625,125,l),
(625,250,l),
(500,250,l),
(500,0,l),
(250,0,l),
(250,250,l)
);
}
);
width = 1250;
}
);
note = onequarter;
unicode = 188;
},
{
glyphname = onehalf;
lastChange = "2022-06-09 09:49:02 +0000";
layers = (
{
layerId = m01;
shapes = (
{
closed = 1;
nodes = (
(250,250,l),
(375,250,l),
(375,0,l),
(250,0,l)
);
},
{
closed = 1;
nodes = (
(500,625,l),
(625,625,l),
(625,499,l),
(875,500,l),
(875,375,l),
(1000,375,l),
(1000,250,l),
(875,250,l),
(875,125,l),
(1000,125,l),
(1000,0,l),
(625,0,l),
(625,125,l),
(750,125,l),
(750,250,l),
(875,250,l),
(875,375,l),
(625,375,l),
(500,375,l)
);
},
{
closed = 1;
nodes = (
(375,375,l),
(500,375,l),
(500,250,l),
(375,250,l)
);
},
{
closed = 1;
nodes = (
(250,625,l),
(250,250,l),
(125,250,l),
(125,625,l)
);
}
);
width = 1125;
},
{
layerId = "15C0796C-B0F3-4225-BD6B-773C46650136";
shapes = (
{
closed = 1;
nodes = (
(125,250,l),
(125,625,l),
(375,625,l),
(375,375,l),
(500,375,l),
(500,625,l),
(750,625,l),
(750,500,l),
(1000,500,l),
(1000,375,l),
(1125,375,l),
(1125,250,l),
(1000,250,l),
(1000,125,l),
(1125,125,l),
(1125,0,l),
(625,0,l),
(625,125,l),
(750,125,l),
(750,250,l),
(875,250,l),
(875,375,l),
(625,375,l),
(625,250,l),
(500,250,l),
(500,0,l),
(250,0,l),
(250,250,l)
);
}
);
width = 1250;
}
);
note = onehalf;
unicode = 189;
},
{
glyphname = threequarters;
lastChange = "2022-06-09 09:49:02 +0000";
layers = (
{
layerId = m01;
shapes = (
{
closed = 1;
nodes = (
(625,625,l),
(750,625,l),
(750,375,l),
(625,375,l)
);
},
{
closed = 1;
nodes = (
(500,375,l),
(625,375,l),
(625,250,l),
(500,250,l)
);
},
{
closed = 1;
nodes = (
(875,375,l),
(875,250,l),
(1000,250,l),
(1000,375,l),
(1125,375,l),
(1125,0,l),
(1000,0,l),
(1000,125,l),
(750,125,l),
(750,375,l)
);
},
{
closed = 1;
nodes = (
(375,250,l),
(375,375,l),
(250,375,l),
(250,500,l),
(125,500,l),
(125,625,l),
(375,625,l),
(375,500,l),
(500,500,l),
(500,0,l),
(375,0,l),
(375,125,l),
(125,125,l),
(125,250,l)
);
}
);
width = 1250;
},
{
layerId = "15C0796C-B0F3-4225-BD6B-773C46650136";
shapes = (
{
closed = 1;
nodes = (
(125,125,l),
(125,250,l),
(375,250,l),
(375,375,l),
(250,375,l),
(250,500,l),
(125,500,l),
(125,625,l),
(500,625,l),
(500,500,l),
(625,500,l),
(625,625,l),
(875,625,l),
(875,375,l),
(1250,375,l),
(1250,0,l),
(1000,0,l),
(1000,125,l),
(750,125,l),
(750,250,l),
(625,250,l),
(625,0,l),
(375,0,l),
(375,125,l)
);
}
);
width = 1375;
}
);
note = threequarters;
unicode = 190;
},
{
glyphname = questiondown;
lastChange = "2022-06-09 09:49:02 +0000";
layers = (
{
layerId = m01;
shapes = (
{
closed = 1;
nodes = (
(250,125,l),
(625,125,l),
(625,0,l),
(250,0,l),
(250,125,l),
(125,125,l),
(125,250,l),
(250,250,l)
);
},
{
closed = 1;
nodes = (
(250,250,l),
(250,375,l),
(500,375,l),
(500,250,l)
);
},
{
closed = 1;
nodes = (
(375,500,l),
(375,625,l),
(500,625,l),
(500,500,l)
);
}
);
width = 750;
},
{
layerId = "15C0796C-B0F3-4225-BD6B-773C46650136";
shapes = (
{
closed = 1;
nodes = (
(125,125,l),
(125,250,l),
(250,250,l),
(250,375,l),
(625,375,l),
(625,250,l),
(375,250,l),
(375,125,l),
(750,125,l),
(750,0,l),
(250,0,l),
(250,125,l)
);
},
{
closed = 1;
nodes = (
(625,625,l),
(625,500,l),
(375,500,l),
(375,625,l)
);
}
);
width = 875;
}
);
note = questiondown;
unicode = 191;
},
{
glyphname = Agrave;
lastChange = "2022-06-09 09:49:02 +0000";
layers = (
{
layerId = m01;
shapes = (
{
closed = 1;
nodes = (
(250,250,l),
(250,0,l),
(125,0,l),
(125,500,l),
(250,500,l),
(250,625,l),
(500,625,l),
(500,500,l),
(625,500,l),
(625,0,l),
(500,0,l),
(500,250,l)
);
},
{
closed = 1;
nodes = (
(500,495,l),
(250,495,l),
(250,375,l),
(500,375,l)
);
},
{
closed = 1;
nodes = (
(250,875,l),
(250,1000,l),
(375,1000,l),
(375,875,l),
(500,875,l),
(500,750,l),
(375,750,l),
(375,875,l)
);
}
);
width = 750;
},
{
layerId = "15C0796C-B0F3-4225-BD6B-773C46650136";
shapes = (
{
closed = 1;
nodes = (
(375,250,l),
(375,0,l),
(125,0,l),
(125,500,l),
(250,500,l),
(250,625,l),
(625,625,l),
(625,500,l),
(750,500,l),
(750,0,l),
(500,0,l),
(500,250,l)
);
},
{
closed = 1;
nodes = (
(250,875,l),
(250,1000,l),
(500,1000,l),
(500,875,l),
(625,875,l),
(625,750,l),
(375,750,l),
(375,875,l)
);
},
{
closed = 1;
nodes = (
(500,495,l),
(375,495,l),
(375,375,l),
(500,375,l)
);
}
);
width = 875;
}
);
note = Agrave;
unicode = 192;
},
{
glyphname = Aacute;
lastChange = "2022-06-09 09:49:02 +0000";
layers = (
{
layerId = m01;
shapes = (
{
closed = 1;
nodes = (
(250,250,l),
(250,0,l),
(125,0,l),
(125,500,l),
(250,500,l),
(250,625,l),
(500,625,l),
(500,500,l),
(625,500,l),
(625,0,l),
(500,0,l),
(500,250,l)
);
},
{
closed = 1;
nodes = (
(500,495,l),
(250,495,l),
(250,375,l),
(500,375,l)
);
},
{
closed = 1;
nodes = (
(375,875,l),
(375,1000,l),
(500,1000,l),
(500,875,l),
(375,875,l),
(375,750,l),
(250,750,l),
(250,875,l)
);
}
);
width = 750;
},
{
layerId = "15C0796C-B0F3-4225-BD6B-773C46650136";
shapes = (
{
closed = 1;
nodes = (
(375,250,l),
(375,0,l),
(125,0,l),
(125,500,l),
(250,500,l),
(250,625,l),
(625,625,l),
(625,500,l),
(750,500,l),
(750,0,l),
(500,0,l),
(500,250,l)
);
},
{
closed = 1;
nodes = (
(500,495,l),
(375,495,l),
(375,375,l),
(500,375,l)
);
},
{
closed = 1;
nodes = (
(625,875,l),
(625,1000,l),
(375,1000,l),
(375,875,l),
(250,875,l),
(250,750,l),
(500,750,l),
(500,875,l)
);
}
);
width = 875;
}
);
note = Aacute;
unicode = 193;
},
{
glyphname = Acircumflex;
lastChange = "2022-06-09 09:49:02 +0000";
layers = (
{
layerId = m01;
shapes = (
{
closed = 1;
nodes = (
(250,250,l),
(250,0,l),
(125,0,l),
(125,500,l),
(250,500,l),
(250,625,l),
(500,625,l),
(500,500,l),
(625,500,l),
(625,0,l),
(500,0,l),
(500,250,l)
);
},
{
closed = 1;
nodes = (
(500,495,l),
(250,495,l),
(250,375,l),
(500,375,l)
);
},
{
closed = 1;
nodes = (
(250,875,l),
(250,1000,l),
(500,1000,l),
(500,875,l),
(625,875,l),
(625,750,l),
(500,750,l),
(500,875,l),
(250,875,l),
(250,750,l),
(125,750,l),
(125,875,l)
);
}
);
width = 750;
},
{
layerId = "15C0796C-B0F3-4225-BD6B-773C46650136";
shapes = (
{
closed = 1;
nodes = (
(375,250,l),
(375,0,l),
(125,0,l),
(125,500,l),
(250,500,l),
(250,625,l),
(625,625,l),
(625,500,l),
(750,500,l),
(750,0,l),
(500,0,l),
(500,250,l)
);
},
{
closed = 1;
nodes = (
(250,875,l),
(250,1000,l),
(625,1000,l),
(625,875,l),
(750,875,l),
(750,750,l),
(500,750,l),
(500,875,l),
(375,875,l),
(375,750,l),
(125,750,l),
(125,875,l)
);
},
{
closed = 1;
nodes = (
(500,495,l),
(375,495,l),
(375,375,l),
(500,375,l)
);
}
);
width = 875;
}
);
note = Acircumflex;
unicode = 194;
},
{
glyphname = Atilde;
lastChange = "2022-06-09 09:49:02 +0000";
layers = (
{
layerId = m01;
shapes = (
{
closed = 1;
nodes = (
(250,250,l),
(250,0,l),
(125,0,l),
(125,500,l),
(250,500,l),
(250,625,l),
(500,625,l),
(500,500,l),
(625,500,l),
(625,0,l),
(500,0,l),
(500,250,l)
);
},
{
closed = 1;
nodes = (
(500,495,l),
(250,495,l),
(250,375,l),
(500,375,l)
);
},
{
closed = 1;
nodes = (
(250,875,l),
(250,1000,l),
(375,1000,l),
(375,875,l),
(500,875,l),
(500,1000,l),
(625,1000,l),
(625,875,l),
(500,875,l),
(500,750,l),
(375,750,l),
(375,875,l),
(250,875,l),
(250,750,l),
(125,750,l),
(125,875,l)
);
}
);
width = 750;
},
{
layerId = "15C0796C-B0F3-4225-BD6B-773C46650136";
shapes = (
{
closed = 1;
nodes = (
(375,250,l),
(375,0,l),
(125,0,l),
(125,500,l),
(250,500,l),
(250,625,l),
(625,625,l),
(625,500,l),
(750,500,l),
(750,0,l),
(500,0,l),
(500,250,l)
);
},
{
closed = 1;
nodes = (
(500,495,l),
(375,495,l),
(375,375,l),
(500,375,l)
);
},
{
closed = 1;
nodes = (
(250,875,l),
(250,1000,l),
(750,1000,l),
(750,875,l),
(625,875,l),
(625,750,l),
(125,750,l),
(125,875,l)
);
}
);
width = 875;
}
);
note = Atilde;
unicode = 195;
},
{
glyphname = Adieresis;
lastChange = "2022-06-09 09:49:02 +0000";
layers = (
{
layerId = m01;
shapes = (
{
closed = 1;
nodes = (
(250,250,l),
(250,0,l),
(125,0,l),
(125,500,l),
(250,500,l),
(250,625,l),
(500,625,l),
(500,500,l),
(625,500,l),
(625,0,l),
(500,0,l),
(500,250,l)
);
},
{
closed = 1;
nodes = (
(500,495,l),
(250,495,l),
(250,375,l),
(500,375,l)
);
},
{
closed = 1;
nodes = (
(250,875,l),
(250,750,l),
(125,750,l),
(125,875,l)
);
},
{
closed = 1;
nodes = (
(625,750,l),
(500,750,l),
(500,875,l),
(625,875,l)
);
}
);
width = 750;
},
{
layerId = "15C0796C-B0F3-4225-BD6B-773C46650136";
shapes = (
{
closed = 1;
nodes = (
(375,250,l),
(375,0,l),
(125,0,l),
(125,500,l),
(250,500,l),
(250,625,l),
(625,625,l),
(625,500,l),
(750,500,l),
(750,0,l),
(500,0,l),
(500,250,l)
);
},
{
closed = 1;
nodes = (
(375,875,l),
(375,750,l),
(125,750,l),
(125,875,l)
);
},
{
closed = 1;
nodes = (
(500,495,l),
(375,495,l),
(375,375,l),
(500,375,l)
);
},
{
closed = 1;
nodes = (
(750,875,l),
(750,750,l),
(500,750,l),
(500,875,l)
);
}
);
width = 875;
}
);
note = Adieresis;
unicode = 196;
},
{
glyphname = Aring;
lastChange = "2022-06-09 09:49:02 +0000";
layers = (
{
layerId = m01;
shapes = (
{
closed = 1;
nodes = (
(250,250,l),
(250,0,l),
(125,0,l),
(125,500,l),
(250,500,l),
(250,625,l),
(500,625,l),
(500,500,l),
(625,500,l),
(625,0,l),
(500,0,l),
(500,250,l)
);
},
{
closed = 1;
nodes = (
(500,495,l),
(250,495,l),
(250,375,l),
(500,375,l)
);
},
{
closed = 1;
nodes = (
(125,875,l),
(125,1000,l),
(250,1000,l),
(250,875,l),
(500,875,l),
(500,1000,l),
(625,1000,l),
(625,875,l),
(500,875,l),
(500,750,l),
(250,750,l),
(250,875,l)
);
}
);
width = 750;
},
{
layerId = "15C0796C-B0F3-4225-BD6B-773C46650136";
shapes = (
{
closed = 1;
nodes = (
(375,250,l),
(375,0,l),
(125,0,l),
(125,500,l),
(250,500,l),
(250,625,l),
(625,625,l),
(625,500,l),
(750,500,l),
(750,0,l),
(500,0,l),
(500,250,l)
);
},
{
closed = 1;
nodes = (
(500,495,l),
(375,495,l),
(375,375,l),
(500,375,l)
);
},
{
closed = 1;
nodes = (
(250,875,l),
(250,750,l),
(625,750,l),
(625,875,l),
(750,875,l),
(750,1000,l),
(500,1000,l),
(500,875,l),
(375,875,l),
(375,1000,l),
(125,1000,l),
(125,875,l)
);
}
);
width = 875;
}
);
note = Aring;
unicode = 197;
},
{
glyphname = AE;
lastChange = "2022-06-09 09:49:02 +0000";
layers = (
{
layerId = m01;
shapes = (
{
closed = 1;
nodes = (
(250,250,l),
(250,0,l),
(125,0,l),
(125,500,l),
(250,500,l),
(250,625,l),
(750,625,l),
(750,500,l),
(500,500,l),
(500,375,l),
(750,375,l),
(750,250,l),
(500,250,l),
(500,125,l),
(750,125,l),
(750,0,l),
(375,0,l),
(375,250,l)
);
},
{
closed = 1;
nodes = (
(375,495,l),
(250,495,l),
(250,375,l),
(375,375,l)
);
}
);
width = 875;
},
{
layerId = "15C0796C-B0F3-4225-BD6B-773C46650136";
shapes = (
{
closed = 1;
nodes = (
(125,500,l),
(250,500,l),
(250,625,l),
(875,625,l),
(875,500,l),
(625,500,l),
(625,375,l),
(875,375,l),
(875,250,l),
(625,250,l),
(625,125,l),
(875,125,l),
(875,0,l),
(125,0,l)
);
}
);
width = 1000;
}
);
note = AE;
unicode = 198;
},
{
glyphname = Ccedilla;
lastChange = "2022-06-09 09:49:02 +0000";
layers = (
{
layerId = m01;
shapes = (
{
closed = 1;
nodes = (
(125,125,l),
(125,500,l),
(250,500,l),
(250,125,l),
(500,125,l),
(500,0,l),
(375,0,l),
(375,-125,l),
(250,-125,l),
(250,-250,l),
(125,-250,l),
(125,-125,l),
(250,-125,l),
(250,0,l),
(250,125,l)
);
},
{
closed = 1;
nodes = (
(250,625,l),
(500,625,l),
(500,500,l),
(625,500,l),
(625,375,l),
(500,375,l),
(500,500,l),
(250,500,l)
);
},
{
closed = 1;
nodes = (
(500,250,l),
(625,250,l),
(625,125,l),
(500,125,l)
);
}
);
width = 750;
},
{
layerId = "15C0796C-B0F3-4225-BD6B-773C46650136";
shapes = (
{
closed = 1;
nodes = (
(250,-125,l),
(250,125,l),
(125,125,l),
(125,500,l),
(250,500,l),
(250,625,l),
(625,625,l),
(625,500,l),
(750,500,l),
(750,375,l),
(500,375,l),
(500,500,l),
(375,500,l),
(375,125,l),
(500,125,l),
(500,250,l),
(750,250,l),
(750,125,l),
(625,125,l),
(625,0,l),
(500,0,l),
(500,-125,l),
(375,-125,l),
(375,-250,l),
(125,-250,l),
(125,-125,l)
);
}
);
width = 875;
}
);
note = Ccedilla;
unicode = 199;
},
{
glyphname = Egrave;
lastChange = "2022-06-09 09:49:02 +0000";
layers = (
{
layerId = m01;
shapes = (
{
closed = 1;
nodes = (
(500,625,l),
(500,500,l),
(250,500,l),
(250,375,l),
(500,375,l),
(500,250,l),
(250,250,l),
(250,125,l),
(500,125,l),
(500,0,l),
(125,0,l),
(125,625,l)
);
},
{
closed = 1;
nodes = (
(250,875,l),
(375,875,l),
(375,750,l),
(250,750,l),
(250,875,l),
(125,875,l),
(125,1000,l),
(250,1000,l)
);
}
);
width = 625;
},
{
layerId = "15C0796C-B0F3-4225-BD6B-773C46650136";
shapes = (
{
closed = 1;
nodes = (
(625,625,l),
(625,500,l),
(375,500,l),
(375,375,l),
(625,375,l),
(625,250,l),
(375,250,l),
(375,125,l),
(625,125,l),
(625,0,l),
(125,0,l),
(125,625,l)
);
},
{
closed = 1;
nodes = (
(125,875,l),
(125,1000,l),
(375,1000,l),
(375,875,l),
(500,875,l),
(500,750,l),
(250,750,l),
(250,875,l)
);
}
);
width = 750;
}
);
note = Egrave;
unicode = 200;
},
{
glyphname = Eacute;
lastChange = "2022-06-09 09:49:02 +0000";
layers = (
{
layerId = m01;
shapes = (
{
closed = 1;
nodes = (
(500,625,l),
(500,500,l),
(250,500,l),
(250,375,l),
(500,375,l),
(500,250,l),
(250,250,l),
(250,125,l),
(500,125,l),
(500,0,l),
(125,0,l),
(125,625,l)
);
},
{
closed = 1;
nodes = (
(375,875,l),
(375,1000,l),
(500,1000,l),
(500,875,l),
(375,875,l),
(375,750,l),
(250,750,l),
(250,875,l)
);
}
);
width = 625;
},
{
layerId = "15C0796C-B0F3-4225-BD6B-773C46650136";
shapes = (
{
closed = 1;
nodes = (
(625,625,l),
(625,500,l),
(375,500,l),
(375,375,l),
(625,375,l),
(625,250,l),
(375,250,l),
(375,125,l),
(625,125,l),
(625,0,l),
(125,0,l),
(125,625,l)
);
},
{
closed = 1;
nodes = (
(625,875,l),
(625,1000,l),
(375,1000,l),
(375,875,l),
(250,875,l),
(250,750,l),
(500,750,l),
(500,875,l)
);
}
);
width = 750;
}
);
note = Eacute;
unicode = 201;
},
{
glyphname = Ecircumflex;
lastChange = "2022-06-09 09:49:02 +0000";
layers = (
{
layerId = m01;
shapes = (
{
closed = 1;
nodes = (
(500,625,l),
(500,500,l),
(250,500,l),
(250,375,l),
(500,375,l),
(500,250,l),
(250,250,l),
(250,125,l),
(500,125,l),
(500,0,l),
(125,0,l),
(125,625,l)
);
},
{
closed = 1;
nodes = (
(250,875,l),
(250,1000,l),
(375,1000,l),
(375,875,l),
(500,875,l),
(500,750,l),
(375,750,l),
(375,875,l),
(250,875,l),
(250,750,l),
(125,750,l),
(125,875,l)
);
}
);
width = 625;
},
{
layerId = "15C0796C-B0F3-4225-BD6B-773C46650136";
shapes = (
{
closed = 1;
nodes = (
(625,625,l),
(625,500,l),
(375,500,l),
(375,375,l),
(625,375,l),
(625,250,l),
(375,250,l),
(375,125,l),
(625,125,l),
(625,0,l),
(125,0,l),
(125,625,l)
);
},
{
closed = 1;
nodes = (
(250,875,l),
(250,1000,l),
(500,1000,l),
(500,875,l),
(625,875,l),
(625,750,l),
(125,750,l),
(125,875,l)
);
}
);
width = 750;
}
);
note = Ecircumflex;
unicode = 202;
},
{
glyphname = Edieresis;
lastChange = "2022-06-09 09:49:02 +0000";
layers = (
{
layerId = m01;
shapes = (
{
closed = 1;
nodes = (
(500,625,l),
(500,500,l),
(250,500,l),
(250,375,l),
(500,375,l),
(500,250,l),
(250,250,l),
(250,125,l),
(500,125,l),
(500,0,l),
(125,0,l),
(125,625,l)
);
},
{
closed = 1;
nodes = (
(250,875,l),
(250,750,l),
(125,750,l),
(125,875,l)
);
},
{
closed = 1;
nodes = (
(500,750,l),
(375,750,l),
(375,875,l),
(500,875,l)
);
}
);
width = 625;
},
{
layerId = "15C0796C-B0F3-4225-BD6B-773C46650136";
shapes = (
{
closed = 1;
nodes = (
(625,625,l),
(625,500,l),
(375,500,l),
(375,375,l),
(625,375,l),
(625,250,l),
(375,250,l),
(375,125,l),
(625,125,l),
(625,0,l),
(125,0,l),
(125,625,l)
);
},
{
closed = 1;
nodes = (
(625,875,l),
(625,750,l),
(125,750,l),
(125,875,l)
);
}
);
width = 750;
}
);
note = Edieresis;
unicode = 203;
},
{
glyphname = Igrave;
lastChange = "2022-06-09 09:49:02 +0000";
layers = (
{
layerId = m01;
shapes = (
{
closed = 1;
nodes = (
(250,625,l),
(250,0,l),
(125,0,l),
(125,625,l)
);
},
{
closed = 1;
nodes = (
(0,875,l),
(0,1000,l),
(125,1000,l),
(125,875,l),
(250,875,l),
(250,750,l),
(125,750,l),
(125,875,l)
);
}
);
width = 375;
},
{
layerId = "15C0796C-B0F3-4225-BD6B-773C46650136";
shapes = (
{
closed = 1;
nodes = (
(375,625,l),
(375,0,l),
(125,0,l),
(125,625,l)
);
},
{
closed = 1;
nodes = (
(0,875,l),
(0,1000,l),
(250,1000,l),
(250,875,l),
(375,875,l),
(375,750,l),
(125,750,l),
(125,875,l)
);
}
);
width = 500;
}
);
note = Igrave;
unicode = 204;
},
{
glyphname = Iacute;
lastChange = "2022-06-09 09:49:02 +0000";
layers = (
{
layerId = m01;
shapes = (
{
closed = 1;
nodes = (
(250,625,l),
(250,0,l),
(125,0,l),
(125,625,l)
);
},
{
closed = 1;
nodes = (
(250,875,l),
(250,1000,l),
(375,1000,l),
(375,875,l),
(250,875,l),
(250,750,l),
(125,750,l),
(125,875,l)
);
}
);
width = 375;
},
{
layerId = "15C0796C-B0F3-4225-BD6B-773C46650136";
shapes = (
{
closed = 1;
nodes = (
(375,625,l),
(375,0,l),
(125,0,l),
(125,625,l)
);
},
{
closed = 1;
nodes = (
(500,875,l),
(500,1000,l),
(250,1000,l),
(250,875,l),
(125,875,l),
(125,750,l),
(375,750,l),
(375,875,l)
);
}
);
width = 500;
}
);
note = Iacute;
unicode = 205;
},
{
glyphname = Icircumflex;
lastChange = "2022-06-09 09:49:02 +0000";
layers = (
{
layerId = m01;
shapes = (
{
closed = 1;
nodes = (
(250,625,l),
(250,0,l),
(125,0,l),
(125,625,l)
);
},
{
closed = 1;
nodes = (
(125,875,l),
(125,1000,l),
(250,1000,l),
(250,875,l),
(375,875,l),
(375,750,l),
(250,750,l),
(250,875,l),
(125,875,l),
(125,750,l),
(0,750,l),
(0,875,l)
);
}
);
width = 375;
},
{
layerId = "15C0796C-B0F3-4225-BD6B-773C46650136";
shapes = (
{
closed = 1;
nodes = (
(375,625,l),
(375,0,l),
(125,0,l),
(125,625,l)
);
},
{
closed = 1;
nodes = (
(125,875,l),
(125,1000,l),
(375,1000,l),
(375,875,l),
(500,875,l),
(500,750,l),
(0,750,l),
(0,875,l)
);
}
);
width = 500;
}
);
note = Icircumflex;
unicode = 206;
},
{
glyphname = Idieresis;
lastChange = "2022-06-09 09:49:02 +0000";
layers = (
{
layerId = m01;
shapes = (
{
closed = 1;
nodes = (
(250,625,l),
(250,0,l),
(125,0,l),
(125,625,l)
);
},
{
closed = 1;
nodes = (
(0,875,l),
(125,875,l),
(125,750,l),
(0,750,l)
);
},
{
closed = 1;
nodes = (
(375,875,l),
(375,750,l),
(250,750,l),
(250,875,l)
);
}
);
width = 375;
},
{
layerId = "15C0796C-B0F3-4225-BD6B-773C46650136";
shapes = (
{
closed = 1;
nodes = (
(375,625,l),
(375,0,l),
(125,0,l),
(125,625,l)
);
},
{
closed = 1;
nodes = (
(500,875,l),
(500,750,l),
(0,750,l),
(0,875,l)
);
}
);
width = 500;
}
);
note = Idieresis;
unicode = 207;
},
{
glyphname = Eth;
lastChange = "2022-06-09 09:49:02 +0000";
layers = (
{
layerId = m01;
shapes = (
{
closed = 1;
nodes = (
(250,250,l),
(125,250,l),
(125,375,l),
(250,375,l),
(250,625,l),
(625,625,l),
(625,500,l),
(750,500,l),
(750,125,l),
(625,125,l),
(625,0,l),
(250,0,l)
);
},
{
closed = 1;
nodes = (
(500,375,l),
(500,250,l),
(375,250,l),
(375,125,l),
(620,125,l),
(620,500,l),
(375,500,l),
(375,375,l)
);
}
);
width = 875;
},
{
layerId = "15C0796C-B0F3-4225-BD6B-773C46650136";
shapes = (
{
closed = 1;
nodes = (
(250,250,l),
(125,250,l),
(125,375,l),
(250,375,l),
(250,625,l),
(750,625,l),
(750,500,l),
(875,500,l),
(875,125,l),
(750,125,l),
(750,0,l),
(250,0,l)
);
},
{
closed = 1;
nodes = (
(500,375,l),
(625,375,l),
(625,500,l),
(500,500,l)
);
},
{
closed = 1;
nodes = (
(500,125,l),
(625,125,l),
(625,250,l),
(500,250,l)
);
}
);
width = 1000;
}
);
note = Eth;
unicode = 208;
},
{
glyphname = Ntilde;
lastChange = "2022-06-09 09:49:02 +0000";
layers = (
{
layerId = m01;
shapes = (
{
closed = 1;
nodes = (
(250,625,l),
(250,500,l),
(375,500,l),
(375,375,l),
(500,375,l),
(500,250,l),
(625,250,l),
(625,625,l),
(750,625,l),
(750,0,l),
(625,0,l),
(625,125,l),
(500,125,l),
(500,250,l),
(375,250,l),
(375,375,l),
(250,375,l),
(250,0,l),
(125,0,l),
(125,625,l)
);
},
{
closed = 1;
nodes = (
(375,875,l),
(375,1000,l),
(500,1000,l),
(500,875,l),
(625,875,l),
(625,1000,l),
(750,1000,l),
(750,875,l),
(625,875,l),
(625,750,l),
(500,750,l),
(500,875,l),
(375,875,l),
(375,750,l),
(250,750,l),
(250,875,l)
);
}
);
width = 875;
},
{
layerId = "15C0796C-B0F3-4225-BD6B-773C46650136";
shapes = (
{
closed = 1;
nodes = (
(375,625,l),
(375,500,l),
(500,500,l),
(500,375,l),
(625,375,l),
(625,625,l),
(875,625,l),
(875,0,l),
(625,0,l),
(625,125,l),
(500,125,l),
(500,250,l),
(375,250,l),
(375,0,l),
(125,0,l),
(125,625,l)
);
},
{
closed = 1;
nodes = (
(375,875,l),
(375,1000,l),
(875,1000,l),
(875,875,l),
(750,875,l),
(750,750,l),
(250,750,l),
(250,875,l)
);
}
);
width = 1000;
}
);
note = Ntilde;
unicode = 209;
},
{
glyphname = Ograve;
lastChange = "2022-06-09 09:49:02 +0000";
layers = (
{
layerId = m01;
shapes = (
{
closed = 1;
nodes = (
(250,500,l),
(250,625,l),
(500,625,l),
(500,500,l),
(625,500,l),
(625,125,l),
(500,125,l),
(500,0,l),
(250,0,l),
(250,125,l),
(125,125,l),
(125,500,l)
);
},
{
closed = 1;
nodes = (
(500,130,l),
(500,495,l),
(250,495,l),
(250,130,l)
);
},
{
closed = 1;
nodes = (
(250,875,l),
(250,1000,l),
(375,1000,l),
(375,875,l),
(500,875,l),
(500,750,l),
(375,750,l),
(375,875,l)
);
}
);
width = 750;
},
{
layerId = "15C0796C-B0F3-4225-BD6B-773C46650136";
shapes = (
{
closed = 1;
nodes = (
(250,500,l),
(250,625,l),
(625,625,l),
(625,500,l),
(750,500,l),
(750,125,l),
(625,125,l),
(625,0,l),
(250,0,l),
(250,125,l),
(125,125,l),
(125,500,l)
);
},
{
closed = 1;
nodes = (
(500,130,l),
(500,495,l),
(375,495,l),
(375,130,l)
);
},
{
closed = 1;
nodes = (
(250,875,l),
(250,1000,l),
(500,1000,l),
(500,875,l),
(625,875,l),
(625,750,l),
(375,750,l),
(375,875,l)
);
}
);
width = 875;
}
);
note = Ograve;
unicode = 210;
},
{
glyphname = Oacute;
lastChange = "2022-06-09 09:49:02 +0000";
layers = (
{
layerId = m01;
shapes = (
{
closed = 1;
nodes = (
(250,500,l),
(250,625,l),
(500,625,l),
(500,500,l),
(625,500,l),
(625,125,l),
(500,125,l),
(500,0,l),
(250,0,l),
(250,125,l),
(125,125,l),
(125,500,l)
);
},
{
closed = 1;
nodes = (
(500,130,l),
(500,495,l),
(250,495,l),
(250,130,l)
);
},
{
closed = 1;
nodes = (
(375,875,l),
(375,1000,l),
(500,1000,l),
(500,875,l),
(375,875,l),
(375,750,l),
(250,750,l),
(250,875,l)
);
}
);
width = 750;
},
{
layerId = "15C0796C-B0F3-4225-BD6B-773C46650136";
shapes = (
{
closed = 1;
nodes = (
(250,500,l),
(250,625,l),
(625,625,l),
(625,500,l),
(750,500,l),
(750,125,l),
(625,125,l),
(625,0,l),
(250,0,l),
(250,125,l),
(125,125,l),
(125,500,l)
);
},
{
closed = 1;
nodes = (
(500,130,l),
(500,495,l),
(375,495,l),
(375,130,l)
);
},
{
closed = 1;
nodes = (
(625,875,l),
(625,1000,l),
(375,1000,l),
(375,875,l),
(250,875,l),
(250,750,l),
(500,750,l),
(500,875,l)
);
}
);
width = 875;
}
);
note = Oacute;
unicode = 211;
},
{
glyphname = Ocircumflex;
lastChange = "2022-06-09 09:49:02 +0000";
layers = (
{
layerId = m01;
shapes = (
{
closed = 1;
nodes = (
(250,500,l),
(250,625,l),
(500,625,l),
(500,500,l),
(625,500,l),
(625,125,l),
(500,125,l),
(500,0,l),
(250,0,l),
(250,125,l),
(125,125,l),
(125,500,l)
);
},
{
closed = 1;
nodes = (
(500,130,l),
(500,495,l),
(250,495,l),
(250,130,l)
);
},
{
closed = 1;
nodes = (
(250,875,l),
(250,1000,l),
(500,1000,l),
(500,875,l),
(625,875,l),
(625,750,l),
(500,750,l),
(500,875,l),
(250,875,l),
(250,750,l),
(125,750,l),
(125,875,l)
);
}
);
width = 750;
},
{
layerId = "15C0796C-B0F3-4225-BD6B-773C46650136";
shapes = (
{
closed = 1;
nodes = (
(250,500,l),
(250,625,l),
(625,625,l),
(625,500,l),
(750,500,l),
(750,125,l),
(625,125,l),
(625,0,l),
(250,0,l),
(250,125,l),
(125,125,l),
(125,500,l)
);
},
{
closed = 1;
nodes = (
(500,130,l),
(500,495,l),
(375,495,l),
(375,130,l)
);
},
{
closed = 1;
nodes = (
(250,875,l),
(250,1000,l),
(625,1000,l),
(625,875,l),
(750,875,l),
(750,750,l),
(500,750,l),
(500,875,l),
(375,875,l),
(375,750,l),
(125,750,l),
(125,875,l)
);
}
);
width = 875;
}
);
note = Ocircumflex;
unicode = 212;
},
{
glyphname = Otilde;
lastChange = "2022-06-09 09:49:02 +0000";
layers = (
{
layerId = m01;
shapes = (
{
closed = 1;
nodes = (
(250,500,l),
(250,625,l),
(500,625,l),
(500,500,l),
(625,500,l),
(625,125,l),
(500,125,l),
(500,0,l),
(250,0,l),
(250,125,l),
(125,125,l),
(125,500,l)
);
},
{
closed = 1;
nodes = (
(500,130,l),
(500,495,l),
(250,495,l),
(250,130,l)
);
},
{
closed = 1;
nodes = (
(250,875,l),
(250,1000,l),
(375,1000,l),
(375,875,l),
(500,875,l),
(500,1000,l),
(625,1000,l),
(625,875,l),
(500,875,l),
(500,750,l),
(375,750,l),
(375,875,l),
(250,875,l),
(250,750,l),
(125,750,l),
(125,875,l)
);
}
);
width = 750;
},
{
layerId = "15C0796C-B0F3-4225-BD6B-773C46650136";
shapes = (
{
closed = 1;
nodes = (
(250,500,l),
(250,625,l),
(625,625,l),
(625,500,l),
(750,500,l),
(750,125,l),
(625,125,l),
(625,0,l),
(250,0,l),
(250,125,l),
(125,125,l),
(125,500,l)
);
},
{
closed = 1;
nodes = (
(500,130,l),
(500,495,l),
(375,495,l),
(375,130,l)
);
},
{
closed = 1;
nodes = (
(250,875,l),
(250,1000,l),
(750,1000,l),
(750,875,l),
(625,875,l),
(625,750,l),
(125,750,l),
(125,875,l)
);
}
);
width = 875;
}
);
note = Otilde;
unicode = 213;
},
{
glyphname = Odieresis;
lastChange = "2022-06-09 09:49:02 +0000";
layers = (
{
layerId = m01;
shapes = (
{
closed = 1;
nodes = (
(250,500,l),
(250,625,l),
(500,625,l),
(500,500,l),
(625,500,l),
(625,125,l),
(500,125,l),
(500,0,l),
(250,0,l),
(250,125,l),
(125,125,l),
(125,500,l)
);
},
{
closed = 1;
nodes = (
(500,130,l),
(500,495,l),
(250,495,l),
(250,130,l)
);
},
{
closed = 1;
nodes = (
(250,875,l),
(250,750,l),
(125,750,l),
(125,875,l)
);
},
{
closed = 1;
nodes = (
(625,875,l),
(625,750,l),
(500,750,l),
(500,875,l)
);
}
);
width = 750;
},
{
layerId = "15C0796C-B0F3-4225-BD6B-773C46650136";
shapes = (
{
closed = 1;
nodes = (
(250,500,l),
(250,625,l),
(625,625,l),
(625,500,l),
(750,500,l),
(750,125,l),
(625,125,l),
(625,0,l),
(250,0,l),
(250,125,l),
(125,125,l),
(125,500,l)
);
},
{
closed = 1;
nodes = (
(500,130,l),
(500,495,l),
(375,495,l),
(375,130,l)
);
},
{
closed = 1;
nodes = (
(375,875,l),
(375,750,l),
(125,750,l),
(125,875,l)
);
},
{
closed = 1;
nodes = (
(750,875,l),
(750,750,l),
(500,750,l),
(500,875,l)
);
}
);
width = 875;
}
);
note = Odieresis;
unicode = 214;
},
{
glyphname = multiply;
lastChange = "2022-06-09 09:49:02 +0000";
layers = (
{
layerId = m01;
shapes = (
{
closed = 1;
nodes = (
(250,250,l),
(250,375,l),
(125,375,l),
(125,500,l),
(250,500,l),
(250,375,l),
(375,375,l),
(375,500,l),
(500,500,l),
(500,375,l),
(375,375,l),
(375,250,l),
(500,250,l),
(500,125,l),
(375,125,l),
(375,250,l),
(250,250,l),
(250,125,l),
(125,125,l),
(125,250,l)
);
}
);
width = 625;
},
{
layerId = "15C0796C-B0F3-4225-BD6B-773C46650136";
shapes = (
{
closed = 1;
nodes = (
(250,250,l),
(250,375,l),
(125,375,l),
(125,500,l),
(625,500,l),
(625,375,l),
(500,375,l),
(500,250,l),
(625,250,l),
(625,125,l),
(125,125,l),
(125,250,l)
);
}
);
width = 750;
}
);
note = multiply;
unicode = 215;
},
{
glyphname = Oslash;
lastChange = "2022-06-09 09:49:02 +0000";
layers = (
{
layerId = m01;
shapes = (
{
closed = 1;
nodes = (
(250,500,l),
(250,625,l),
(625,625,l),
(625,500,l),
(750,500,l),
(750,125,l),
(625,125,l),
(625,0,l),
(250,0,l),
(250,125,l),
(125,125,l),
(125,500,l)
);
},
{
closed = 1;
nodes = (
(625,130,l),
(625,375,l),
(500,375,l),
(500,250,l),
(375,250,l),
(375,130,l)
);
},
{
closed = 1;
nodes = (
(375,375,l),
(500,375,l),
(500,495,l),
(250,495,l),
(250,250,l),
(375,250,l)
);
}
);
width = 875;
},
{
layerId = "15C0796C-B0F3-4225-BD6B-773C46650136";
shapes = (
{
closed = 1;
nodes = (
(250,500,l),
(250,625,l),
(750,625,l),
(750,500,l),
(875,500,l),
(875,125,l),
(750,125,l),
(750,0,l),
(250,0,l),
(250,125,l),
(125,125,l),
(125,500,l)
);
},
{
closed = 1;
nodes = (
(500,500,l),
(375,500,l),
(375,375,l),
(500,375,l)
);
},
{
closed = 1;
nodes = (
(625,250,l),
(500,250,l),
(500,125,l),
(625,125,l)
);
}
);
width = 1000;
}
);
note = Oslash;
unicode = 216;
},
{
glyphname = Ugrave;
lastChange = "2022-06-09 09:49:02 +0000";
layers = (
{
layerId = m01;
shapes = (
{
closed = 1;
nodes = (
(125,125,l),
(125,625,l),
(250,625,l),
(250,125,l),
(500,125,l),
(500,0,l),
(250,0,l),
(250,125,l)
);
},
{
closed = 1;
nodes = (
(500,625,l),
(625,625,l),
(625,125,l),
(500,125,l)
);
},
{
closed = 1;
nodes = (
(250,875,l),
(250,1000,l),
(375,1000,l),
(375,875,l),
(500,875,l),
(500,750,l),
(375,750,l),
(375,875,l)
);
}
);
width = 750;
},
{
layerId = "15C0796C-B0F3-4225-BD6B-773C46650136";
shapes = (
{
closed = 1;
nodes = (
(125,125,l),
(125,625,l),
(375,625,l),
(375,125,l),
(500,125,l),
(500,625,l),
(750,625,l),
(750,125,l),
(625,125,l),
(625,0,l),
(250,0,l),
(250,125,l)
);
},
{
closed = 1;
nodes = (
(250,875,l),
(250,1000,l),
(500,1000,l),
(500,875,l),
(625,875,l),
(625,750,l),
(375,750,l),
(375,875,l)
);
}
);
width = 875;
}
);
note = Ugrave;
unicode = 217;
},
{
glyphname = Uacute;
lastChange = "2022-06-09 09:49:02 +0000";
layers = (
{
layerId = m01;
shapes = (
{
closed = 1;
nodes = (
(125,125,l),
(125,625,l),
(250,625,l),
(250,125,l),
(500,125,l),
(500,0,l),
(250,0,l),
(250,125,l)
);
},
{
closed = 1;
nodes = (
(500,625,l),
(625,625,l),
(625,125,l),
(500,125,l)
);
},
{
closed = 1;
nodes = (
(375,875,l),
(375,1000,l),
(500,1000,l),
(500,875,l),
(375,875,l),
(375,750,l),
(250,750,l),
(250,875,l)
);
}
);
width = 750;
},
{
layerId = "15C0796C-B0F3-4225-BD6B-773C46650136";
shapes = (
{
closed = 1;
nodes = (
(125,125,l),
(125,625,l),
(375,625,l),
(375,125,l),
(500,125,l),
(500,625,l),
(750,625,l),
(750,125,l),
(625,125,l),
(625,0,l),
(250,0,l),
(250,125,l)
);
},
{
closed = 1;
nodes = (
(625,875,l),
(625,1000,l),
(375,1000,l),
(375,875,l),
(250,875,l),
(250,750,l),
(500,750,l),
(500,875,l)
);
}
);
width = 875;
}
);
note = Uacute;
unicode = 218;
},
{
glyphname = Ucircumflex;
lastChange = "2022-06-09 09:49:02 +0000";
layers = (
{
layerId = m01;
shapes = (
{
closed = 1;
nodes = (
(125,125,l),
(125,625,l),
(250,625,l),
(250,125,l),
(500,125,l),
(500,0,l),
(250,0,l),
(250,125,l)
);
},
{
closed = 1;
nodes = (
(500,625,l),
(625,625,l),
(625,125,l),
(500,125,l)
);
},
{
closed = 1;
nodes = (
(250,875,l),
(250,1000,l),
(500,1000,l),
(500,875,l),
(625,875,l),
(625,750,l),
(500,750,l),
(500,875,l),
(250,875,l),
(250,750,l),
(125,750,l),
(125,875,l)
);
}
);
width = 750;
},
{
layerId = "15C0796C-B0F3-4225-BD6B-773C46650136";
shapes = (
{
closed = 1;
nodes = (
(125,125,l),
(125,625,l),
(375,625,l),
(375,125,l),
(500,125,l),
(500,625,l),
(750,625,l),
(750,125,l),
(625,125,l),
(625,0,l),
(250,0,l),
(250,125,l)
);
},
{
closed = 1;
nodes = (
(250,875,l),
(250,1000,l),
(625,1000,l),
(625,875,l),
(750,875,l),
(750,750,l),
(500,750,l),
(500,875,l),
(375,875,l),
(375,750,l),
(125,750,l),
(125,875,l)
);
}
);
width = 875;
}
);
note = Ucircumflex;
unicode = 219;
},
{
glyphname = Udieresis;
lastChange = "2022-06-09 09:49:02 +0000";
layers = (
{
layerId = m01;
shapes = (
{
closed = 1;
nodes = (
(125,125,l),
(125,625,l),
(250,625,l),
(250,125,l),
(500,125,l),
(500,0,l),
(250,0,l),
(250,125,l)
);
},
{
closed = 1;
nodes = (
(500,625,l),
(625,625,l),
(625,125,l),
(500,125,l)
);
},
{
closed = 1;
nodes = (
(250,875,l),
(250,750,l),
(125,750,l),
(125,875,l)
);
},
{
closed = 1;
nodes = (
(625,875,l),
(625,750,l),
(500,750,l),
(500,875,l)
);
}
);
width = 750;
},
{
layerId = "15C0796C-B0F3-4225-BD6B-773C46650136";
shapes = (
{
closed = 1;
nodes = (
(125,125,l),
(125,625,l),
(375,625,l),
(375,125,l),
(500,125,l),
(500,625,l),
(750,625,l),
(750,125,l),
(625,125,l),
(625,0,l),
(250,0,l),
(250,125,l)
);
},
{
closed = 1;
nodes = (
(375,875,l),
(375,750,l),
(125,750,l),
(125,875,l)
);
},
{
closed = 1;
nodes = (
(750,875,l),
(750,750,l),
(500,750,l),
(500,875,l)
);
}
);
width = 875;
}
);
note = Udieresis;
unicode = 220;
},
{
glyphname = Yacute;
lastChange = "2022-06-09 09:49:02 +0000";
layers = (
{
layerId = m01;
shapes = (
{
closed = 1;
nodes = (
(250,375,l),
(250,500,l),
(125,500,l),
(125,625,l),
(250,625,l),
(250,500,l),
(375,500,l),
(375,375,l),
(500,375,l),
(500,0,l),
(375,0,l),
(375,375,l)
);
},
{
closed = 1;
nodes = (
(500,500,l),
(625,500,l),
(625,375,l),
(500,375,l)
);
},
{
closed = 1;
nodes = (
(625,625,l),
(750,625,l),
(750,500,l),
(625,500,l)
);
},
{
closed = 1;
nodes = (
(500,875,l),
(500,1000,l),
(625,1000,l),
(625,875,l),
(500,875,l),
(500,750,l),
(375,750,l),
(375,875,l)
);
}
);
width = 875;
},
{
layerId = "15C0796C-B0F3-4225-BD6B-773C46650136";
shapes = (
{
closed = 1;
nodes = (
(250,375,l),
(250,500,l),
(125,500,l),
(125,625,l),
(375,625,l),
(375,500,l),
(625,500,l),
(625,625,l),
(875,625,l),
(875,500,l),
(750,500,l),
(750,375,l),
(625,375,l),
(625,0,l),
(375,0,l),
(375,375,l)
);
},
{
closed = 1;
nodes = (
(750,875,l),
(750,1000,l),
(500,1000,l),
(500,875,l),
(375,875,l),
(375,750,l),
(625,750,l),
(625,875,l)
);
}
);
width = 1000;
}
);
note = Yacute;
unicode = 221;
},
{
glyphname = Thorn;
lastChange = "2022-06-09 09:49:02 +0000";
layers = (
{
layerId = m01;
shapes = (
{
closed = 1;
nodes = (
(250,625,l),
(250,500,l),
(375,500,l),
(375,375,l),
(500,375,l),
(500,250,l),
(375,250,l),
(375,125,l),
(250,125,l),
(250,0,l),
(125,0,l),
(125,625,l)
);
},
{
closed = 1;
nodes = (
(370,250,l),
(370,375,l),
(250,375,l),
(250,250,l)
);
}
);
width = 625;
},
{
layerId = "15C0796C-B0F3-4225-BD6B-773C46650136";
shapes = (
{
closed = 1;
nodes = (
(375,625,l),
(375,500,l),
(500,500,l),
(500,375,l),
(625,375,l),
(625,250,l),
(500,250,l),
(500,125,l),
(375,125,l),
(375,0,l),
(125,0,l),
(125,625,l)
);
}
);
width = 750;
}
);
note = Thorn;
unicode = 222;
},
{
glyphname = germandbls;
lastChange = "2022-06-09 09:49:02 +0000";
layers = (
{
layerId = m01;
shapes = (
{
closed = 1;
nodes = (
(250,500,l),
(250,625,l),
(500,625,l),
(500,500,l),
(625,500,l),
(625,375,l),
(500,375,l),
(500,250,l),
(625,250,l),
(625,125,l),
(500,125,l),
(500,0,l),
(375,0,l),
(375,125,l),
(500,125,l),
(500,250,l),
(375,250,l),
(375,375,l),
(500,375,l),
(500,500,l),
(250,500,l),
(250,250,l),
(250,0,l),
(125,0,l),
(125,500,l)
);
}
);
width = 750;
},
{
layerId = "15C0796C-B0F3-4225-BD6B-773C46650136";
shapes = (
{
closed = 1;
nodes = (
(250,500,l),
(250,625,l),
(625,625,l),
(625,500,l),
(750,500,l),
(750,375,l),
(625,375,l),
(625,250,l),
(750,250,l),
(750,125,l),
(625,125,l),
(625,0,l),
(125,0,l),
(125,500,l)
);
},
{
closed = 1;
nodes = (
(500,125,l),
(500,250,l),
(375,250,l),
(375,125,l)
);
},
{
closed = 1;
nodes = (
(500,375,l),
(500,500,l),
(375,500,l),
(375,375,l)
);
}
);
width = 875;
}
);
note = germandbls;
unicode = 223;
},
{
glyphname = agrave;
lastChange = "2022-06-09 09:49:02 +0000";
layers = (
{
layerId = m01;
shapes = (
{
closed = 1;
nodes = (
(250,250,l),
(250,0,l),
(125,0,l),
(125,500,l),
(250,500,l),
(250,625,l),
(500,625,l),
(500,500,l),
(625,500,l),
(625,0,l),
(500,0,l),
(500,250,l)
);
},
{
closed = 1;
nodes = (
(500,495,l),
(250,495,l),
(250,375,l),
(500,375,l)
);
},
{
closed = 1;
nodes = (
(250,875,l),
(250,1000,l),
(375,1000,l),
(375,875,l),
(500,875,l),
(500,750,l),
(375,750,l),
(375,875,l)
);
}
);
width = 750;
},
{
layerId = "15C0796C-B0F3-4225-BD6B-773C46650136";
shapes = (
{
closed = 1;
nodes = (
(375,250,l),
(375,0,l),
(125,0,l),
(125,500,l),
(250,500,l),
(250,625,l),
(625,625,l),
(625,500,l),
(750,500,l),
(750,0,l),
(500,0,l),
(500,250,l)
);
},
{
closed = 1;
nodes = (
(250,875,l),
(250,1000,l),
(500,1000,l),
(500,875,l),
(625,875,l),
(625,750,l),
(375,750,l),
(375,875,l)
);
},
{
closed = 1;
nodes = (
(500,495,l),
(375,495,l),
(375,375,l),
(500,375,l)
);
}
);
width = 875;
}
);
note = agrave;
unicode = 224;
},
{
glyphname = aacute;
lastChange = "2022-06-09 09:49:02 +0000";
layers = (
{
layerId = m01;
shapes = (
{
closed = 1;
nodes = (
(250,250,l),
(250,0,l),
(125,0,l),
(125,500,l),
(250,500,l),
(250,625,l),
(500,625,l),
(500,500,l),
(625,500,l),
(625,0,l),
(500,0,l),
(500,250,l)
);
},
{
closed = 1;
nodes = (
(500,495,l),
(250,495,l),
(250,375,l),
(500,375,l)
);
},
{
closed = 1;
nodes = (
(375,875,l),
(375,1000,l),
(500,1000,l),
(500,875,l),
(375,875,l),
(375,750,l),
(250,750,l),
(250,875,l)
);
}
);
width = 750;
},
{
layerId = "15C0796C-B0F3-4225-BD6B-773C46650136";
shapes = (
{
closed = 1;
nodes = (
(375,250,l),
(375,0,l),
(125,0,l),
(125,500,l),
(250,500,l),
(250,625,l),
(625,625,l),
(625,500,l),
(750,500,l),
(750,0,l),
(500,0,l),
(500,250,l)
);
},
{
closed = 1;
nodes = (
(500,495,l),
(375,495,l),
(375,375,l),
(500,375,l)
);
},
{
closed = 1;
nodes = (
(625,875,l),
(625,1000,l),
(375,1000,l),
(375,875,l),
(250,875,l),
(250,750,l),
(500,750,l),
(500,875,l)
);
}
);
width = 875;
}
);
note = aacute;
unicode = 225;
},
{
glyphname = acircumflex;
lastChange = "2022-06-09 09:49:02 +0000";
layers = (
{
layerId = m01;
shapes = (
{
closed = 1;
nodes = (
(250,250,l),
(250,0,l),
(125,0,l),
(125,500,l),
(250,500,l),
(250,625,l),
(500,625,l),
(500,500,l),
(625,500,l),
(625,0,l),
(500,0,l),
(500,250,l)
);
},
{
closed = 1;
nodes = (
(500,495,l),
(250,495,l),
(250,375,l),
(500,375,l)
);
},
{
closed = 1;
nodes = (
(250,875,l),
(250,1000,l),
(500,1000,l),
(500,875,l),
(625,875,l),
(625,750,l),
(500,750,l),
(500,875,l),
(250,875,l),
(250,750,l),
(125,750,l),
(125,875,l)
);
}
);
width = 750;
},
{
layerId = "15C0796C-B0F3-4225-BD6B-773C46650136";
shapes = (
{
closed = 1;
nodes = (
(375,250,l),
(375,0,l),
(125,0,l),
(125,500,l),
(250,500,l),
(250,625,l),
(625,625,l),
(625,500,l),
(750,500,l),
(750,0,l),
(500,0,l),
(500,250,l)
);
},
{
closed = 1;
nodes = (
(250,875,l),
(250,1000,l),
(625,1000,l),
(625,875,l),
(750,875,l),
(750,750,l),
(500,750,l),
(500,875,l),
(375,875,l),
(375,750,l),
(125,750,l),
(125,875,l)
);
},
{
closed = 1;
nodes = (
(500,495,l),
(375,495,l),
(375,375,l),
(500,375,l)
);
}
);
width = 875;
}
);
note = acircumflex;
unicode = 226;
},
{
glyphname = atilde;
lastChange = "2022-06-09 09:49:02 +0000";
layers = (
{
layerId = m01;
shapes = (
{
closed = 1;
nodes = (
(250,250,l),
(250,0,l),
(125,0,l),
(125,500,l),
(250,500,l),
(250,625,l),
(500,625,l),
(500,500,l),
(625,500,l),
(625,0,l),
(500,0,l),
(500,250,l)
);
},
{
closed = 1;
nodes = (
(500,495,l),
(250,495,l),
(250,375,l),
(500,375,l)
);
},
{
closed = 1;
nodes = (
(250,875,l),
(250,1000,l),
(375,1000,l),
(375,875,l),
(500,875,l),
(500,1000,l),
(625,1000,l),
(625,875,l),
(500,875,l),
(500,750,l),
(375,750,l),
(375,875,l),
(250,875,l),
(250,750,l),
(125,750,l),
(125,875,l)
);
}
);
width = 750;
},
{
layerId = "15C0796C-B0F3-4225-BD6B-773C46650136";
shapes = (
{
closed = 1;
nodes = (
(375,250,l),
(375,0,l),
(125,0,l),
(125,500,l),
(250,500,l),
(250,625,l),
(625,625,l),
(625,500,l),
(750,500,l),
(750,0,l),
(500,0,l),
(500,250,l)
);
},
{
closed = 1;
nodes = (
(500,495,l),
(375,495,l),
(375,375,l),
(500,375,l)
);
},
{
closed = 1;
nodes = (
(250,875,l),
(250,1000,l),
(750,1000,l),
(750,875,l),
(625,875,l),
(625,750,l),
(125,750,l),
(125,875,l)
);
}
);
width = 875;
}
);
note = atilde;
unicode = 227;
},
{
glyphname = adieresis;
lastChange = "2022-06-09 09:49:02 +0000";
layers = (
{
layerId = m01;
shapes = (
{
closed = 1;
nodes = (
(250,250,l),
(250,0,l),
(125,0,l),
(125,500,l),
(250,500,l),
(250,625,l),
(500,625,l),
(500,500,l),
(625,500,l),
(625,0,l),
(500,0,l),
(500,250,l)
);
},
{
closed = 1;
nodes = (
(500,495,l),
(250,495,l),
(250,375,l),
(500,375,l)
);
},
{
closed = 1;
nodes = (
(250,875,l),
(250,750,l),
(125,750,l),
(125,875,l)
);
},
{
closed = 1;
nodes = (
(625,750,l),
(500,750,l),
(500,875,l),
(625,875,l)
);
}
);
width = 750;
},
{
layerId = "15C0796C-B0F3-4225-BD6B-773C46650136";
shapes = (
{
closed = 1;
nodes = (
(375,250,l),
(375,0,l),
(125,0,l),
(125,500,l),
(250,500,l),
(250,625,l),
(625,625,l),
(625,500,l),
(750,500,l),
(750,0,l),
(500,0,l),
(500,250,l)
);
},
{
closed = 1;
nodes = (
(375,875,l),
(375,750,l),
(125,750,l),
(125,875,l)
);
},
{
closed = 1;
nodes = (
(500,495,l),
(375,495,l),
(375,375,l),
(500,375,l)
);
},
{
closed = 1;
nodes = (
(750,875,l),
(750,750,l),
(500,750,l),
(500,875,l)
);
}
);
width = 875;
}
);
note = adieresis;
unicode = 228;
},
{
glyphname = aring;
lastChange = "2022-06-09 09:49:02 +0000";
layers = (
{
layerId = m01;
shapes = (
{
closed = 1;
nodes = (
(250,250,l),
(250,0,l),
(125,0,l),
(125,500,l),
(250,500,l),
(250,625,l),
(500,625,l),
(500,500,l),
(625,500,l),
(625,0,l),
(500,0,l),
(500,250,l)
);
},
{
closed = 1;
nodes = (
(500,495,l),
(250,495,l),
(250,375,l),
(500,375,l)
);
},
{
closed = 1;
nodes = (
(125,875,l),
(125,1000,l),
(250,1000,l),
(250,875,l),
(500,875,l),
(500,1000,l),
(625,1000,l),
(625,875,l),
(500,875,l),
(500,750,l),
(250,750,l),
(250,875,l)
);
}
);
width = 750;
},
{
layerId = "15C0796C-B0F3-4225-BD6B-773C46650136";
shapes = (
{
closed = 1;
nodes = (
(375,250,l),
(375,0,l),
(125,0,l),
(125,500,l),
(250,500,l),
(250,625,l),
(625,625,l),
(625,500,l),
(750,500,l),
(750,0,l),
(500,0,l),
(500,250,l)
);
},
{
closed = 1;
nodes = (
(500,495,l),
(375,495,l),
(375,375,l),
(500,375,l)
);
},
{
closed = 1;
nodes = (
(250,875,l),
(250,750,l),
(625,750,l),
(625,875,l),
(750,875,l),
(750,1000,l),
(500,1000,l),
(500,875,l),
(375,875,l),
(375,1000,l),
(125,1000,l),
(125,875,l)
);
}
);
width = 875;
}
);
note = aring;
unicode = 229;
},
{
glyphname = ae;
lastChange = "2022-06-09 09:49:02 +0000";
layers = (
{
layerId = m01;
shapes = (
{
closed = 1;
nodes = (
(250,250,l),
(250,0,l),
(125,0,l),
(125,500,l),
(250,500,l),
(250,625,l),
(750,625,l),
(750,500,l),
(500,500,l),
(500,375,l),
(750,375,l),
(750,250,l),
(500,250,l),
(500,125,l),
(750,125,l),
(750,0,l),
(375,0,l),
(375,250,l)
);
},
{
closed = 1;
nodes = (
(375,495,l),
(250,495,l),
(250,375,l),
(375,375,l)
);
}
);
width = 875;
},
{
layerId = "15C0796C-B0F3-4225-BD6B-773C46650136";
shapes = (
{
closed = 1;
nodes = (
(125,500,l),
(250,500,l),
(250,625,l),
(875,625,l),
(875,500,l),
(625,500,l),
(625,375,l),
(875,375,l),
(875,250,l),
(625,250,l),
(625,125,l),
(875,125,l),
(875,0,l),
(125,0,l)
);
}
);
width = 1000;
}
);
note = ae;
unicode = 230;
},
{
glyphname = ccedilla;
lastChange = "2022-06-09 09:49:02 +0000";
layers = (
{
layerId = m01;
shapes = (
{
closed = 1;
nodes = (
(125,125,l),
(125,500,l),
(250,500,l),
(250,125,l),
(500,125,l),
(500,0,l),
(375,0,l),
(375,-125,l),
(250,-125,l),
(250,-250,l),
(125,-250,l),
(125,-125,l),
(250,-125,l),
(250,0,l),
(250,125,l)
);
},
{
closed = 1;
nodes = (
(250,625,l),
(500,625,l),
(500,500,l),
(625,500,l),
(625,375,l),
(500,375,l),
(500,500,l),
(250,500,l)
);
},
{
closed = 1;
nodes = (
(500,250,l),
(625,250,l),
(625,125,l),
(500,125,l)
);
}
);
width = 750;
},
{
layerId = "15C0796C-B0F3-4225-BD6B-773C46650136";
shapes = (
{
closed = 1;
nodes = (
(250,-125,l),
(250,125,l),
(125,125,l),
(125,500,l),
(250,500,l),
(250,625,l),
(625,625,l),
(625,500,l),
(750,500,l),
(750,375,l),
(500,375,l),
(500,500,l),
(375,500,l),
(375,125,l),
(500,125,l),
(500,250,l),
(750,250,l),
(750,125,l),
(625,125,l),
(625,0,l),
(500,0,l),
(500,-125,l),
(375,-125,l),
(375,-250,l),
(125,-250,l),
(125,-125,l)
);
}
);
width = 875;
}
);
note = ccedilla;
unicode = 231;
},
{
glyphname = egrave;
lastChange = "2022-06-09 09:49:02 +0000";
layers = (
{
layerId = m01;
shapes = (
{
closed = 1;
nodes = (
(500,625,l),
(500,500,l),
(250,500,l),
(250,375,l),
(500,375,l),
(500,250,l),
(250,250,l),
(250,125,l),
(500,125,l),
(500,0,l),
(125,0,l),
(125,625,l)
);
},
{
closed = 1;
nodes = (
(250,875,l),
(375,875,l),
(375,750,l),
(250,750,l),
(250,875,l),
(125,875,l),
(125,1000,l),
(250,1000,l)
);
}
);
width = 625;
},
{
layerId = "15C0796C-B0F3-4225-BD6B-773C46650136";
shapes = (
{
closed = 1;
nodes = (
(625,625,l),
(625,500,l),
(375,500,l),
(375,375,l),
(625,375,l),
(625,250,l),
(375,250,l),
(375,125,l),
(625,125,l),
(625,0,l),
(125,0,l),
(125,625,l)
);
},
{
closed = 1;
nodes = (
(125,875,l),
(125,1000,l),
(375,1000,l),
(375,875,l),
(500,875,l),
(500,750,l),
(250,750,l),
(250,875,l)
);
}
);
width = 750;
}
);
note = egrave;
unicode = 232;
},
{
glyphname = eacute;
lastChange = "2022-06-09 09:49:02 +0000";
layers = (
{
layerId = m01;
shapes = (
{
closed = 1;
nodes = (
(500,625,l),
(500,500,l),
(250,500,l),
(250,375,l),
(500,375,l),
(500,250,l),
(250,250,l),
(250,125,l),
(500,125,l),
(500,0,l),
(125,0,l),
(125,625,l)
);
},
{
closed = 1;
nodes = (
(375,875,l),
(375,1000,l),
(500,1000,l),
(500,875,l),
(375,875,l),
(375,750,l),
(250,750,l),
(250,875,l)
);
}
);
width = 625;
},
{
layerId = "15C0796C-B0F3-4225-BD6B-773C46650136";
shapes = (
{
closed = 1;
nodes = (
(625,625,l),
(625,500,l),
(375,500,l),
(375,375,l),
(625,375,l),
(625,250,l),
(375,250,l),
(375,125,l),
(625,125,l),
(625,0,l),
(125,0,l),
(125,625,l)
);
},
{
closed = 1;
nodes = (
(625,875,l),
(625,1000,l),
(375,1000,l),
(375,875,l),
(250,875,l),
(250,750,l),
(500,750,l),
(500,875,l)
);
}
);
width = 750;
}
);
note = eacute;
unicode = 233;
},
{
glyphname = ecircumflex;
lastChange = "2022-06-09 09:49:02 +0000";
layers = (
{
layerId = m01;
shapes = (
{
closed = 1;
nodes = (
(500,625,l),
(500,500,l),
(250,500,l),
(250,375,l),
(500,375,l),
(500,250,l),
(250,250,l),
(250,125,l),
(500,125,l),
(500,0,l),
(125,0,l),
(125,625,l)
);
},
{
closed = 1;
nodes = (
(250,875,l),
(250,1000,l),
(375,1000,l),
(375,875,l),
(500,875,l),
(500,750,l),
(375,750,l),
(375,875,l),
(250,875,l),
(250,750,l),
(125,750,l),
(125,875,l)
);
}
);
width = 625;
},
{
layerId = "15C0796C-B0F3-4225-BD6B-773C46650136";
shapes = (
{
closed = 1;
nodes = (
(625,625,l),
(625,500,l),
(375,500,l),
(375,375,l),
(625,375,l),
(625,250,l),
(375,250,l),
(375,125,l),
(625,125,l),
(625,0,l),
(125,0,l),
(125,625,l)
);
},
{
closed = 1;
nodes = (
(250,875,l),
(250,1000,l),
(500,1000,l),
(500,875,l),
(625,875,l),
(625,750,l),
(125,750,l),
(125,875,l)
);
}
);
width = 750;
}
);
note = ecircumflex;
unicode = 234;
},
{
glyphname = edieresis;
lastChange = "2022-06-09 09:49:02 +0000";
layers = (
{
layerId = m01;
shapes = (
{
closed = 1;
nodes = (
(500,625,l),
(500,500,l),
(250,500,l),
(250,375,l),
(500,375,l),
(500,250,l),
(250,250,l),
(250,125,l),
(500,125,l),
(500,0,l),
(125,0,l),
(125,625,l)
);
},
{
closed = 1;
nodes = (
(250,875,l),
(250,750,l),
(125,750,l),
(125,875,l)
);
},
{
closed = 1;
nodes = (
(500,750,l),
(375,750,l),
(375,875,l),
(500,875,l)
);
}
);
width = 625;
},
{
layerId = "15C0796C-B0F3-4225-BD6B-773C46650136";
shapes = (
{
closed = 1;
nodes = (
(625,625,l),
(625,500,l),
(375,500,l),
(375,375,l),
(625,375,l),
(625,250,l),
(375,250,l),
(375,125,l),
(625,125,l),
(625,0,l),
(125,0,l),
(125,625,l)
);
},
{
closed = 1;
nodes = (
(625,875,l),
(625,750,l),
(125,750,l),
(125,875,l)
);
}
);
width = 750;
}
);
note = edieresis;
unicode = 235;
},
{
glyphname = igrave;
lastChange = "2022-06-09 09:49:02 +0000";
layers = (
{
layerId = m01;
shapes = (
{
closed = 1;
nodes = (
(250,625,l),
(250,0,l),
(125,0,l),
(125,625,l)
);
},
{
closed = 1;
nodes = (
(0,875,l),
(0,1000,l),
(125,1000,l),
(125,875,l),
(250,875,l),
(250,750,l),
(125,750,l),
(125,875,l)
);
}
);
width = 375;
},
{
layerId = "15C0796C-B0F3-4225-BD6B-773C46650136";
shapes = (
{
closed = 1;
nodes = (
(375,625,l),
(375,0,l),
(125,0,l),
(125,625,l)
);
},
{
closed = 1;
nodes = (
(0,875,l),
(0,1000,l),
(250,1000,l),
(250,875,l),
(375,875,l),
(375,750,l),
(125,750,l),
(125,875,l)
);
}
);
width = 500;
}
);
note = igrave;
unicode = 236;
},
{
glyphname = iacute;
lastChange = "2022-06-09 09:49:02 +0000";
layers = (
{
layerId = m01;
shapes = (
{
closed = 1;
nodes = (
(250,625,l),
(250,0,l),
(125,0,l),
(125,625,l)
);
},
{
closed = 1;
nodes = (
(250,875,l),
(250,1000,l),
(375,1000,l),
(375,875,l),
(250,875,l),
(250,750,l),
(125,750,l),
(125,875,l)
);
}
);
width = 375;
},
{
layerId = "15C0796C-B0F3-4225-BD6B-773C46650136";
shapes = (
{
closed = 1;
nodes = (
(375,625,l),
(375,0,l),
(125,0,l),
(125,625,l)
);
},
{
closed = 1;
nodes = (
(500,875,l),
(500,1000,l),
(250,1000,l),
(250,875,l),
(125,875,l),
(125,750,l),
(375,750,l),
(375,875,l)
);
}
);
width = 500;
}
);
note = iacute;
unicode = 237;
},
{
glyphname = icircumflex;
lastChange = "2022-06-09 09:49:02 +0000";
layers = (
{
layerId = m01;
shapes = (
{
closed = 1;
nodes = (
(250,625,l),
(250,0,l),
(125,0,l),
(125,625,l)
);
},
{
closed = 1;
nodes = (
(125,875,l),
(125,1000,l),
(250,1000,l),
(250,875,l),
(375,875,l),
(375,750,l),
(250,750,l),
(250,875,l),
(125,875,l),
(125,750,l),
(0,750,l),
(0,875,l)
);
}
);
width = 375;
},
{
layerId = "15C0796C-B0F3-4225-BD6B-773C46650136";
shapes = (
{
closed = 1;
nodes = (
(375,625,l),
(375,0,l),
(125,0,l),
(125,625,l)
);
},
{
closed = 1;
nodes = (
(125,875,l),
(125,1000,l),
(375,1000,l),
(375,875,l),
(500,875,l),
(500,750,l),
(0,750,l),
(0,875,l)
);
}
);
width = 500;
}
);
note = icircumflex;
unicode = 238;
},
{
glyphname = idieresis;
lastChange = "2022-06-09 09:49:02 +0000";
layers = (
{
layerId = m01;
shapes = (
{
closed = 1;
nodes = (
(250,625,l),
(250,0,l),
(125,0,l),
(125,625,l)
);
},
{
closed = 1;
nodes = (
(0,875,l),
(125,875,l),
(125,750,l),
(0,750,l)
);
},
{
closed = 1;
nodes = (
(375,875,l),
(375,750,l),
(250,750,l),
(250,875,l)
);
}
);
width = 375;
},
{
layerId = "15C0796C-B0F3-4225-BD6B-773C46650136";
shapes = (
{
closed = 1;
nodes = (
(375,625,l),
(375,0,l),
(125,0,l),
(125,625,l)
);
},
{
closed = 1;
nodes = (
(500,875,l),
(500,750,l),
(0,750,l),
(0,875,l)
);
}
);
width = 500;
}
);
note = idieresis;
unicode = 239;
},
{
glyphname = eth;
lastChange = "2022-06-09 09:49:02 +0000";
layers = (
{
layerId = m01;
shapes = (
{
closed = 1;
nodes = (
(250,250,l),
(125,250,l),
(125,375,l),
(250,375,l),
(250,625,l),
(625,625,l),
(625,500,l),
(750,500,l),
(750,125,l),
(625,125,l),
(625,0,l),
(250,0,l)
);
},
{
closed = 1;
nodes = (
(500,375,l),
(500,250,l),
(375,250,l),
(375,125,l),
(620,125,l),
(620,500,l),
(375,500,l),
(375,375,l)
);
}
);
width = 875;
},
{
layerId = "15C0796C-B0F3-4225-BD6B-773C46650136";
shapes = (
{
closed = 1;
nodes = (
(250,250,l),
(125,250,l),
(125,375,l),
(250,375,l),
(250,625,l),
(750,625,l),
(750,500,l),
(875,500,l),
(875,125,l),
(750,125,l),
(750,0,l),
(250,0,l)
);
},
{
closed = 1;
nodes = (
(500,375,l),
(625,375,l),
(625,500,l),
(500,500,l)
);
},
{
closed = 1;
nodes = (
(500,125,l),
(625,125,l),
(625,250,l),
(500,250,l)
);
}
);
width = 1000;
}
);
note = eth;
unicode = 240;
},
{
glyphname = ntilde;
lastChange = "2022-06-09 09:49:02 +0000";
layers = (
{
layerId = m01;
shapes = (
{
closed = 1;
nodes = (
(250,625,l),
(250,500,l),
(375,500,l),
(375,375,l),
(500,375,l),
(500,250,l),
(625,250,l),
(625,625,l),
(750,625,l),
(750,0,l),
(625,0,l),
(625,125,l),
(500,125,l),
(500,250,l),
(375,250,l),
(375,375,l),
(250,375,l),
(250,0,l),
(125,0,l),
(125,625,l)
);
},
{
closed = 1;
nodes = (
(375,875,l),
(375,1000,l),
(500,1000,l),
(500,875,l),
(625,875,l),
(625,1000,l),
(750,1000,l),
(750,875,l),
(625,875,l),
(625,750,l),
(500,750,l),
(500,875,l),
(375,875,l),
(375,750,l),
(250,750,l),
(250,875,l)
);
}
);
width = 875;
},
{
layerId = "15C0796C-B0F3-4225-BD6B-773C46650136";
shapes = (
{
closed = 1;
nodes = (
(375,625,l),
(375,500,l),
(500,500,l),
(500,375,l),
(625,375,l),
(625,625,l),
(875,625,l),
(875,0,l),
(625,0,l),
(625,125,l),
(500,125,l),
(500,250,l),
(375,250,l),
(375,0,l),
(125,0,l),
(125,625,l)
);
},
{
closed = 1;
nodes = (
(375,875,l),
(375,1000,l),
(875,1000,l),
(875,875,l),
(750,875,l),
(750,750,l),
(250,750,l),
(250,875,l)
);
}
);
width = 1000;
}
);
note = ntilde;
unicode = 241;
},
{
glyphname = ograve;
lastChange = "2022-06-09 09:49:02 +0000";
layers = (
{
layerId = m01;
shapes = (
{
closed = 1;
nodes = (
(250,500,l),
(250,625,l),
(500,625,l),
(500,500,l),
(625,500,l),
(625,125,l),
(500,125,l),
(500,0,l),
(250,0,l),
(250,125,l),
(125,125,l),
(125,500,l)
);
},
{
closed = 1;
nodes = (
(500,130,l),
(500,495,l),
(250,495,l),
(250,130,l)
);
},
{
closed = 1;
nodes = (
(250,875,l),
(250,1000,l),
(375,1000,l),
(375,875,l),
(500,875,l),
(500,750,l),
(375,750,l),
(375,875,l)
);
}
);
width = 750;
},
{
layerId = "15C0796C-B0F3-4225-BD6B-773C46650136";
shapes = (
{
closed = 1;
nodes = (
(250,500,l),
(250,625,l),
(625,625,l),
(625,500,l),
(750,500,l),
(750,125,l),
(625,125,l),
(625,0,l),
(250,0,l),
(250,125,l),
(125,125,l),
(125,500,l)
);
},
{
closed = 1;
nodes = (
(500,130,l),
(500,495,l),
(375,495,l),
(375,130,l)
);
},
{
closed = 1;
nodes = (
(250,875,l),
(250,1000,l),
(500,1000,l),
(500,875,l),
(625,875,l),
(625,750,l),
(375,750,l),
(375,875,l)
);
}
);
width = 875;
}
);
note = ograve;
unicode = 242;
},
{
glyphname = oacute;
lastChange = "2022-06-09 09:49:02 +0000";
layers = (
{
layerId = m01;
shapes = (
{
closed = 1;
nodes = (
(250,500,l),
(250,625,l),
(500,625,l),
(500,500,l),
(625,500,l),
(625,125,l),
(500,125,l),
(500,0,l),
(250,0,l),
(250,125,l),
(125,125,l),
(125,500,l)
);
},
{
closed = 1;
nodes = (
(500,130,l),
(500,495,l),
(250,495,l),
(250,130,l)
);
},
{
closed = 1;
nodes = (
(375,875,l),
(375,1000,l),
(500,1000,l),
(500,875,l),
(375,875,l),
(375,750,l),
(250,750,l),
(250,875,l)
);
}
);
width = 750;
},
{
layerId = "15C0796C-B0F3-4225-BD6B-773C46650136";
shapes = (
{
closed = 1;
nodes = (
(250,500,l),
(250,625,l),
(625,625,l),
(625,500,l),
(750,500,l),
(750,125,l),
(625,125,l),
(625,0,l),
(250,0,l),
(250,125,l),
(125,125,l),
(125,500,l)
);
},
{
closed = 1;
nodes = (
(500,130,l),
(500,495,l),
(375,495,l),
(375,130,l)
);
},
{
closed = 1;
nodes = (
(625,875,l),
(625,1000,l),
(375,1000,l),
(375,875,l),
(250,875,l),
(250,750,l),
(500,750,l),
(500,875,l)
);
}
);
width = 875;
}
);
note = oacute;
unicode = 243;
},
{
glyphname = ocircumflex;
lastChange = "2022-06-09 09:49:02 +0000";
layers = (
{
layerId = m01;
shapes = (
{
closed = 1;
nodes = (
(250,500,l),
(250,625,l),
(500,625,l),
(500,500,l),
(625,500,l),
(625,125,l),
(500,125,l),
(500,0,l),
(250,0,l),
(250,125,l),
(125,125,l),
(125,500,l)
);
},
{
closed = 1;
nodes = (
(500,130,l),
(500,495,l),
(250,495,l),
(250,130,l)
);
},
{
closed = 1;
nodes = (
(250,875,l),
(250,1000,l),
(500,1000,l),
(500,875,l),
(625,875,l),
(625,750,l),
(500,750,l),
(500,875,l),
(250,875,l),
(250,750,l),
(125,750,l),
(125,875,l)
);
}
);
width = 750;
},
{
layerId = "15C0796C-B0F3-4225-BD6B-773C46650136";
shapes = (
{
closed = 1;
nodes = (
(250,500,l),
(250,625,l),
(625,625,l),
(625,500,l),
(750,500,l),
(750,125,l),
(625,125,l),
(625,0,l),
(250,0,l),
(250,125,l),
(125,125,l),
(125,500,l)
);
},
{
closed = 1;
nodes = (
(500,130,l),
(500,495,l),
(375,495,l),
(375,130,l)
);
},
{
closed = 1;
nodes = (
(250,875,l),
(250,1000,l),
(625,1000,l),
(625,875,l),
(750,875,l),
(750,750,l),
(500,750,l),
(500,875,l),
(375,875,l),
(375,750,l),
(125,750,l),
(125,875,l)
);
}
);
width = 875;
}
);
note = ocircumflex;
unicode = 244;
},
{
glyphname = otilde;
lastChange = "2022-06-09 09:49:02 +0000";
layers = (
{
layerId = m01;
shapes = (
{
closed = 1;
nodes = (
(250,500,l),
(250,625,l),
(500,625,l),
(500,500,l),
(625,500,l),
(625,125,l),
(500,125,l),
(500,0,l),
(250,0,l),
(250,125,l),
(125,125,l),
(125,500,l)
);
},
{
closed = 1;
nodes = (
(500,130,l),
(500,495,l),
(250,495,l),
(250,130,l)
);
},
{
closed = 1;
nodes = (
(250,875,l),
(250,1000,l),
(375,1000,l),
(375,875,l),
(500,875,l),
(500,1000,l),
(625,1000,l),
(625,875,l),
(500,875,l),
(500,750,l),
(375,750,l),
(375,875,l),
(250,875,l),
(250,750,l),
(125,750,l),
(125,875,l)
);
}
);
width = 750;
},
{
layerId = "15C0796C-B0F3-4225-BD6B-773C46650136";
shapes = (
{
closed = 1;
nodes = (
(250,500,l),
(250,625,l),
(625,625,l),
(625,500,l),
(750,500,l),
(750,125,l),
(625,125,l),
(625,0,l),
(250,0,l),
(250,125,l),
(125,125,l),
(125,500,l)
);
},
{
closed = 1;
nodes = (
(500,130,l),
(500,495,l),
(375,495,l),
(375,130,l)
);
},
{
closed = 1;
nodes = (
(250,875,l),
(250,1000,l),
(750,1000,l),
(750,875,l),
(625,875,l),
(625,750,l),
(125,750,l),
(125,875,l)
);
}
);
width = 875;
}
);
note = otilde;
unicode = 245;
},
{
glyphname = odieresis;
lastChange = "2022-06-09 09:49:02 +0000";
layers = (
{
layerId = m01;
shapes = (
{
closed = 1;
nodes = (
(250,500,l),
(250,625,l),
(500,625,l),
(500,500,l),
(625,500,l),
(625,125,l),
(500,125,l),
(500,0,l),
(250,0,l),
(250,125,l),
(125,125,l),
(125,500,l)
);
},
{
closed = 1;
nodes = (
(500,130,l),
(500,495,l),
(250,495,l),
(250,130,l)
);
},
{
closed = 1;
nodes = (
(250,875,l),
(250,750,l),
(125,750,l),
(125,875,l)
);
},
{
closed = 1;
nodes = (
(625,875,l),
(625,750,l),
(500,750,l),
(500,875,l)
);
}
);
width = 750;
},
{
layerId = "15C0796C-B0F3-4225-BD6B-773C46650136";
shapes = (
{
closed = 1;
nodes = (
(250,500,l),
(250,625,l),
(625,625,l),
(625,500,l),
(750,500,l),
(750,125,l),
(625,125,l),
(625,0,l),
(250,0,l),
(250,125,l),
(125,125,l),
(125,500,l)
);
},
{
closed = 1;
nodes = (
(500,130,l),
(500,495,l),
(375,495,l),
(375,130,l)
);
},
{
closed = 1;
nodes = (
(375,875,l),
(375,750,l),
(125,750,l),
(125,875,l)
);
},
{
closed = 1;
nodes = (
(750,875,l),
(750,750,l),
(500,750,l),
(500,875,l)
);
}
);
width = 875;
}
);
note = odieresis;
unicode = 246;
},
{
glyphname = divide;
lastChange = "2022-06-09 09:49:02 +0000";
layers = (
{
layerId = m01;
shapes = (
{
closed = 1;
nodes = (
(500,375,l),
(500,250,l),
(125,250,l),
(125,375,l)
);
},
{
closed = 1;
nodes = (
(375,625,l),
(375,500,l),
(250,500,l),
(250,625,l)
);
},
{
closed = 1;
nodes = (
(375,0,l),
(250,0,l),
(250,125,l),
(375,125,l)
);
}
);
width = 625;
},
{
layerId = "15C0796C-B0F3-4225-BD6B-773C46650136";
shapes = (
{
closed = 1;
nodes = (
(625,375,l),
(625,250,l),
(125,250,l),
(125,375,l)
);
},
{
closed = 1;
nodes = (
(500,625,l),
(500,500,l),
(250,500,l),
(250,625,l)
);
},
{
closed = 1;
nodes = (
(500,0,l),
(250,0,l),
(250,125,l),
(500,125,l)
);
}
);
width = 750;
}
);
note = divide;
unicode = 247;
},
{
glyphname = oslash;
lastChange = "2022-06-09 09:49:02 +0000";
layers = (
{
layerId = m01;
shapes = (
{
closed = 1;
nodes = (
(250,500,l),
(250,625,l),
(625,625,l),
(625,500,l),
(750,500,l),
(750,125,l),
(625,125,l),
(625,0,l),
(250,0,l),
(250,125,l),
(125,125,l),
(125,500,l)
);
},
{
closed = 1;
nodes = (
(625,130,l),
(625,375,l),
(500,375,l),
(500,250,l),
(375,250,l),
(375,130,l)
);
},
{
closed = 1;
nodes = (
(375,375,l),
(500,375,l),
(500,495,l),
(250,495,l),
(250,250,l),
(375,250,l)
);
}
);
width = 875;
},
{
layerId = "15C0796C-B0F3-4225-BD6B-773C46650136";
shapes = (
{
closed = 1;
nodes = (
(250,500,l),
(250,625,l),
(750,625,l),
(750,500,l),
(875,500,l),
(875,125,l),
(750,125,l),
(750,0,l),
(250,0,l),
(250,125,l),
(125,125,l),
(125,500,l)
);
},
{
closed = 1;
nodes = (
(500,500,l),
(375,500,l),
(375,375,l),
(500,375,l)
);
},
{
closed = 1;
nodes = (
(625,250,l),
(500,250,l),
(500,125,l),
(625,125,l)
);
}
);
width = 1000;
}
);
note = oslash;
unicode = 248;
},
{
glyphname = ugrave;
lastChange = "2022-06-09 09:49:02 +0000";
layers = (
{
layerId = m01;
shapes = (
{
closed = 1;
nodes = (
(125,125,l),
(125,625,l),
(250,625,l),
(250,125,l),
(500,125,l),
(500,0,l),
(250,0,l),
(250,125,l)
);
},
{
closed = 1;
nodes = (
(500,625,l),
(625,625,l),
(625,125,l),
(500,125,l)
);
},
{
closed = 1;
nodes = (
(250,875,l),
(250,1000,l),
(375,1000,l),
(375,875,l),
(500,875,l),
(500,750,l),
(375,750,l),
(375,875,l)
);
}
);
width = 750;
},
{
layerId = "15C0796C-B0F3-4225-BD6B-773C46650136";
shapes = (
{
closed = 1;
nodes = (
(125,125,l),
(125,625,l),
(375,625,l),
(375,125,l),
(500,125,l),
(500,625,l),
(750,625,l),
(750,125,l),
(625,125,l),
(625,0,l),
(250,0,l),
(250,125,l)
);
},
{
closed = 1;
nodes = (
(250,875,l),
(250,1000,l),
(500,1000,l),
(500,875,l),
(625,875,l),
(625,750,l),
(375,750,l),
(375,875,l)
);
}
);
width = 875;
}
);
note = ugrave;
unicode = 249;
},
{
glyphname = uacute;
lastChange = "2022-06-09 09:49:02 +0000";
layers = (
{
layerId = m01;
shapes = (
{
closed = 1;
nodes = (
(125,125,l),
(125,625,l),
(250,625,l),
(250,125,l),
(500,125,l),
(500,0,l),
(250,0,l),
(250,125,l)
);
},
{
closed = 1;
nodes = (
(500,625,l),
(625,625,l),
(625,125,l),
(500,125,l)
);
},
{
closed = 1;
nodes = (
(375,875,l),
(375,1000,l),
(500,1000,l),
(500,875,l),
(375,875,l),
(375,750,l),
(250,750,l),
(250,875,l)
);
}
);
width = 750;
},
{
layerId = "15C0796C-B0F3-4225-BD6B-773C46650136";
shapes = (
{
closed = 1;
nodes = (
(125,125,l),
(125,625,l),
(375,625,l),
(375,125,l),
(500,125,l),
(500,625,l),
(750,625,l),
(750,125,l),
(625,125,l),
(625,0,l),
(250,0,l),
(250,125,l)
);
},
{
closed = 1;
nodes = (
(625,875,l),
(625,1000,l),
(375,1000,l),
(375,875,l),
(250,875,l),
(250,750,l),
(500,750,l),
(500,875,l)
);
}
);
width = 875;
}
);
note = uacute;
unicode = 250;
},
{
glyphname = ucircumflex;
lastChange = "2022-06-09 09:49:02 +0000";
layers = (
{
layerId = m01;
shapes = (
{
closed = 1;
nodes = (
(125,125,l),
(125,625,l),
(250,625,l),
(250,125,l),
(500,125,l),
(500,0,l),
(250,0,l),
(250,125,l)
);
},
{
closed = 1;
nodes = (
(500,625,l),
(625,625,l),
(625,125,l),
(500,125,l)
);
},
{
closed = 1;
nodes = (
(250,875,l),
(250,1000,l),
(500,1000,l),
(500,875,l),
(625,875,l),
(625,750,l),
(500,750,l),
(500,875,l),
(250,875,l),
(250,750,l),
(125,750,l),
(125,875,l)
);
}
);
width = 750;
},
{
layerId = "15C0796C-B0F3-4225-BD6B-773C46650136";
shapes = (
{
closed = 1;
nodes = (
(125,125,l),
(125,625,l),
(375,625,l),
(375,125,l),
(500,125,l),
(500,625,l),
(750,625,l),
(750,125,l),
(625,125,l),
(625,0,l),
(250,0,l),
(250,125,l)
);
},
{
closed = 1;
nodes = (
(250,875,l),
(250,1000,l),
(625,1000,l),
(625,875,l),
(750,875,l),
(750,750,l),
(500,750,l),
(500,875,l),
(375,875,l),
(375,750,l),
(125,750,l),
(125,875,l)
);
}
);
width = 875;
}
);
note = ucircumflex;
unicode = 251;
},
{
glyphname = udieresis;
lastChange = "2022-06-09 09:49:02 +0000";
layers = (
{
layerId = m01;
shapes = (
{
closed = 1;
nodes = (
(125,125,l),
(125,625,l),
(250,625,l),
(250,125,l),
(500,125,l),
(500,0,l),
(250,0,l),
(250,125,l)
);
},
{
closed = 1;
nodes = (
(500,625,l),
(625,625,l),
(625,125,l),
(500,125,l)
);
},
{
closed = 1;
nodes = (
(250,875,l),
(250,750,l),
(125,750,l),
(125,875,l)
);
},
{
closed = 1;
nodes = (
(625,875,l),
(625,750,l),
(500,750,l),
(500,875,l)
);
}
);
width = 750;
},
{
layerId = "15C0796C-B0F3-4225-BD6B-773C46650136";
shapes = (
{
closed = 1;
nodes = (
(125,125,l),
(125,625,l),
(375,625,l),
(375,125,l),
(500,125,l),
(500,625,l),
(750,625,l),
(750,125,l),
(625,125,l),
(625,0,l),
(250,0,l),
(250,125,l)
);
},
{
closed = 1;
nodes = (
(375,875,l),
(375,750,l),
(125,750,l),
(125,875,l)
);
},
{
closed = 1;
nodes = (
(750,875,l),
(750,750,l),
(500,750,l),
(500,875,l)
);
}
);
width = 875;
}
);
note = udieresis;
unicode = 252;
},
{
glyphname = yacute;
lastChange = "2022-06-09 09:49:02 +0000";
layers = (
{
layerId = m01;
shapes = (
{
closed = 1;
nodes = (
(250,375,l),
(250,500,l),
(125,500,l),
(125,625,l),
(250,625,l),
(250,500,l),
(375,500,l),
(375,375,l),
(500,375,l),
(500,0,l),
(375,0,l),
(375,375,l)
);
},
{
closed = 1;
nodes = (
(500,500,l),
(625,500,l),
(625,375,l),
(500,375,l)
);
},
{
closed = 1;
nodes = (
(625,625,l),
(750,625,l),
(750,500,l),
(625,500,l)
);
},
{
closed = 1;
nodes = (
(500,875,l),
(500,1000,l),
(625,1000,l),
(625,875,l),
(500,875,l),
(500,750,l),
(375,750,l),
(375,875,l)
);
}
);
width = 875;
},
{
layerId = "15C0796C-B0F3-4225-BD6B-773C46650136";
shapes = (
{
closed = 1;
nodes = (
(250,375,l),
(250,500,l),
(125,500,l),
(125,625,l),
(375,625,l),
(375,500,l),
(625,500,l),
(625,625,l),
(875,625,l),
(875,500,l),
(750,500,l),
(750,375,l),
(625,375,l),
(625,0,l),
(375,0,l),
(375,375,l)
);
},
{
closed = 1;
nodes = (
(750,875,l),
(750,1000,l),
(500,1000,l),
(500,875,l),
(375,875,l),
(375,750,l),
(625,750,l),
(625,875,l)
);
}
);
width = 1000;
}
);
note = yacute;
unicode = 253;
},
{
glyphname = thorn;
lastChange = "2022-06-09 09:49:02 +0000";
layers = (
{
layerId = m01;
shapes = (
{
closed = 1;
nodes = (
(250,625,l),
(250,500,l),
(375,500,l),
(375,375,l),
(500,375,l),
(500,250,l),
(375,250,l),
(375,125,l),
(250,125,l),
(250,0,l),
(125,0,l),
(125,625,l)
);
},
{
closed = 1;
nodes = (
(370,250,l),
(370,375,l),
(250,375,l),
(250,250,l)
);
}
);
width = 625;
},
{
layerId = "15C0796C-B0F3-4225-BD6B-773C46650136";
shapes = (
{
closed = 1;
nodes = (
(375,625,l),
(375,500,l),
(500,500,l),
(500,375,l),
(625,375,l),
(625,250,l),
(500,250,l),
(500,125,l),
(375,125,l),
(375,0,l),
(125,0,l),
(125,625,l)
);
}
);
width = 750;
}
);
note = thorn;
unicode = 254;
},
{
glyphname = ydieresis;
lastChange = "2022-06-09 09:49:02 +0000";
layers = (
{
layerId = m01;
shapes = (
{
closed = 1;
nodes = (
(250,375,l),
(250,500,l),
(125,500,l),
(125,625,l),
(250,625,l),
(250,500,l),
(375,500,l),
(375,375,l),
(500,375,l),
(500,0,l),
(375,0,l),
(375,375,l)
);
},
{
closed = 1;
nodes = (
(500,500,l),
(625,500,l),
(625,375,l),
(500,375,l)
);
},
{
closed = 1;
nodes = (
(625,625,l),
(750,625,l),
(750,500,l),
(625,500,l)
);
},
{
closed = 1;
nodes = (
(375,875,l),
(375,750,l),
(250,750,l),
(250,875,l)
);
},
{
closed = 1;
nodes = (
(625,875,l),
(625,750,l),
(500,750,l),
(500,875,l)
);
}
